# Blender 4.2.1 LTS
# www.blender.org
o Body.006
v 0.000000 1.220664 0.102205
v -0.075745 1.241833 0.072605
v -0.045212 1.311104 0.052764
v -0.075175 1.268795 -0.043577
v 0.000000 1.284048 0.078606
v 0.000000 1.301816 -0.031199
v 0.000002 1.242886 -0.043657
v 0.000002 1.028246 -0.015885
v 0.000002 1.081177 -0.015703
v -0.060020 1.018063 -0.008054
v 0.000000 0.916637 -0.043961
v -0.065472 0.952731 -0.024503
v 0.000000 0.854625 -0.039310
v -0.017853 0.897700 -0.054202
v -0.029415 0.884288 -0.065461
v -0.063331 0.920595 -0.043946
v -0.010549 0.857538 -0.048643
v -0.026928 0.857925 -0.065332
v -0.017222 0.819575 -0.042758
v -0.029699 0.832661 -0.059750
v 0.000000 0.805093 -0.024694
v -0.046181 0.791325 -0.036381
v -0.033987 0.762152 -0.012627
v -0.052257 0.823580 -0.063852
v -0.093408 0.794897 -0.046828
v -0.080307 0.820773 -0.062923
v -0.107102 0.771941 -0.036107
v -0.125137 0.827069 -0.019790
v -0.153726 0.801087 0.016170
v -0.088654 0.845242 -0.062479
v -0.110789 0.892775 -0.015470
v -0.131408 0.913170 0.028586
v -0.085077 0.878036 -0.055850
v -0.056972 0.890280 -0.068260
v -0.054791 0.857715 -0.071365
v -0.090845 1.014103 0.033515
v -0.096085 0.882392 0.117872
v -0.063204 1.007718 0.095901
v -0.102249 0.791624 0.118590
v -0.048242 0.836568 0.107003
v 0.000000 0.921297 0.131827
v 0.000000 1.022857 0.112734
v 0.000000 0.855947 0.116360
v 0.000000 0.809746 0.100563
v -0.024172 0.774239 0.086618
v -0.015001 0.619566 0.066407
v -0.030844 0.617491 -0.022024
v -0.050877 0.456025 0.038956
v -0.108991 0.612310 0.127274
v -0.095364 0.457536 0.079254
v -0.162310 0.622864 0.035402
v -0.126387 0.454712 0.025326
v -0.106970 0.622347 -0.042449
v -0.096984 0.446158 -0.016638
v -0.063072 0.444791 -0.009003
v -0.101391 0.397668 -0.016791
v -0.120581 0.427443 0.027104
v -0.090081 0.430667 0.076419
v -0.117468 0.394509 0.020607
v -0.087882 0.391443 0.059925
v -0.134215 0.296228 0.013177
v -0.112076 0.308553 -0.034970
v -0.085995 0.297439 0.069488
v -0.107326 0.172769 -0.001607
v -0.093407 0.176096 -0.033526
v -0.083219 0.169275 0.024951
v -0.058658 0.172581 0.000856
v -0.069868 0.175177 -0.030076
v -0.039089 0.301712 0.016507
v -0.052674 0.391381 0.019069
v -0.053157 0.305910 -0.024724
v -0.062591 0.395693 -0.009303
v -0.048094 0.427222 0.030021
v 0.000000 1.086878 0.113084
v -0.055692 1.074514 0.094351
v -0.082787 1.080087 0.043807
v -0.055167 1.079325 -0.011083
v -0.069876 1.124784 0.115385
v -0.082571 1.128807 0.097087
v -0.087940 1.146603 0.100531
v -0.083398 1.165882 0.098639
v -0.069242 1.170617 0.116637
v -0.047761 1.166938 0.123525
v -0.048760 1.148499 0.129870
v -0.048824 1.126808 0.122474
v -0.054112 1.108049 0.101250
v -0.077891 1.116609 0.071580
v -0.085229 1.144706 0.068419
v -0.083618 1.184289 0.079670
v -0.061796 1.198827 0.103257
v -0.028237 1.186157 0.116937
v -0.018344 1.151038 0.122774
v -0.024536 1.115247 0.113718
v -0.073331 1.149862 0.124763
v 0.000000 1.149165 0.121530
v -0.061491 1.148825 -0.026325
v -0.089271 1.146136 0.037440
v 0.000002 1.178556 -0.035963
v -0.165840 1.271189 -0.011867
v -0.167262 1.266741 0.010506
v -0.180144 1.232314 0.026013
v -0.128711 1.289850 -0.010664
v -0.126535 1.259301 -0.035419
v -0.129785 1.282578 0.025359
v -0.047126 1.324769 -0.012241
v -0.176881 1.239734 -0.034460
v -0.231994 1.161703 0.007985
v -0.230473 1.168501 -0.040269
v -0.199315 1.151973 -0.058204
v -0.158534 1.208350 -0.048170
v -0.145764 1.179937 -0.025129
v -0.184209 1.125564 -0.028384
v -0.197095 1.131451 0.010929
v -0.278243 1.063714 0.003947
v -0.281394 1.066689 -0.033605
v -0.255258 1.046809 -0.059034
v -0.237353 1.037369 -0.032662
v -0.253062 1.046009 0.008070
v -0.321447 0.996890 0.016708
v -0.327021 0.997292 -0.020216
v -0.295757 0.983711 -0.049441
v -0.274938 0.972412 -0.018858
v -0.289864 0.979996 0.018983
v -0.349843 0.915180 0.016702
v -0.354333 0.913985 -0.009333
v -0.338917 0.916735 -0.024741
v -0.328764 0.908686 -0.010707
v -0.338583 0.907250 0.011816
v -0.221495 1.065361 -0.033681
v -0.265237 1.095884 -0.003705
v -0.266454 1.099617 -0.039687
v -0.235460 1.070420 0.001391
v -0.233602 1.088175 -0.061805
v -0.265643 1.072036 -0.050447
v -0.248534 1.059895 -0.065908
v -0.235466 1.049484 -0.042885
v -0.229094 1.061028 -0.043681
v -0.260437 1.084457 -0.052266
v -0.239974 1.076842 -0.068072
v -0.067591 1.191072 -0.030477
v -0.097010 1.199832 0.047075
v -0.157326 1.186617 0.021256
v -0.137771 1.247941 0.044255
v -0.112499 1.226398 -0.042900
v -0.105096 1.194630 -0.022828
v -0.120111 1.201819 0.036771
v -0.083695 1.227553 -0.044381
v -0.036038 1.369230 0.058418
v 0.000000 1.352057 0.080848
v 0.000000 1.363164 -0.006538
v -0.034492 1.368547 0.003671
v -0.102194 0.000168 -0.012483
v -0.087272 -0.000663 -0.043970
v -0.043845 0.000628 -0.006951
v -0.058078 -0.000201 -0.040704
v -0.106092 0.080819 0.000985
v -0.090675 0.086196 -0.037851
v -0.050045 0.081481 0.003268
v -0.082227 0.084465 0.027371
v -0.065232 0.085901 -0.034900
v -0.124561 0.003524 0.119792
v -0.064265 0.006331 0.132341
v -0.122158 0.027525 0.113769
v -0.064098 0.030580 0.125225
v -0.099511 0.038996 0.122213
v -0.045596 0.005448 0.064071
v -0.048552 0.039225 0.066330
v -0.125928 0.034305 0.059377
v -0.127328 0.003152 0.053637
v -0.092570 0.050218 0.076728
v -0.104668 0.006680 0.130737
v -0.032333 1.508365 0.104174
v -0.029939 1.369715 0.111480
v -0.006317 1.406508 0.129984
v -0.014305 1.377522 0.120709
v -0.010021 1.392057 0.126572
v -0.013239 1.415932 0.133009
v -0.010392 1.384220 0.126638
v -0.005479 1.390919 0.129114
v -0.032313 1.396366 0.115503
v -0.044036 1.398046 0.109972
v -0.015369 1.441803 0.122577
v -0.050502 1.472571 0.107491
v -0.040750 1.534144 0.074728
v -0.058446 1.489210 0.084758
v -0.061743 1.446467 0.073673
v -0.041491 1.541007 0.036641
v -0.045326 1.497347 -0.024612
v -0.039124 1.405654 -0.011483
v -0.047139 1.455334 -0.025575
v 0.000000 1.444451 0.128235
v 0.000000 1.417326 0.143144
v -0.020165 1.478294 0.126555
v 0.000000 1.477825 0.133277
v -0.021809 1.392872 0.122344
v 0.000000 1.551903 0.037509
v 0.000000 1.493895 -0.038380
v 0.000000 1.511532 0.115282
v 0.000000 1.390149 0.129752
v 0.000000 1.391414 0.130968
v 0.000000 1.372681 0.122633
v 0.000000 1.355336 0.118296
v 0.000000 1.406105 -0.023775
v 0.000000 1.396816 0.132431
v 0.000000 1.391044 0.126704
v 0.000000 1.404342 0.130910
v 0.000000 1.382458 0.128361
v 0.000000 1.540385 0.084678
v 0.000000 1.450475 -0.037029
v -0.005600 1.391809 0.129265
v -0.007809 1.399444 0.130570
v -0.013534 1.392317 0.124314
v -0.053645 1.441018 0.100711
v -0.056792 1.410950 0.068982
v -0.060102 1.410192 0.043649
v -0.065590 1.454034 0.046859
v -0.051314 1.412865 0.011876
v -0.061476 1.454537 0.008599
v -0.073974 1.417825 0.006245
v -0.079123 1.449287 0.004962
v -0.071507 1.450746 0.000432
v -0.066167 1.417197 0.001611
v -0.063676 1.502678 0.019928
v -0.062709 1.500759 0.057257
v -0.030575 1.535910 0.002604
v 0.000000 1.542701 -0.005484
v -0.050713 1.390249 0.038842
v -0.046980 1.389205 0.018623
v -0.377181 0.823377 0.055297
v -0.388642 0.816489 0.013268
v -0.361599 0.822737 -0.033034
v -0.343737 0.810602 -0.015038
v -0.355938 0.826145 0.042723
v -0.339926 0.874170 0.017047
v -0.328622 0.880089 -0.013741
v -0.344186 0.887841 -0.032870
v -0.367046 0.887033 -0.000192
v -0.359474 0.891060 0.031291
v -0.084853 0.008208 0.078749
v -0.075440 0.002707 0.013405
v -0.391641 0.756571 0.050541
v -0.401135 0.757372 0.017409
v -0.382185 0.771191 -0.025384
v -0.362453 0.760652 -0.011231
v -0.368799 0.745648 0.022104
v -0.337052 0.850762 0.042085
v -0.350264 0.830214 0.050805
v -0.355518 0.835176 0.060739
v -0.344668 0.852678 0.058719
v -0.330637 0.823541 0.064710
v -0.349345 0.816559 0.064169
v -0.352607 0.818975 0.079718
v -0.339057 0.828342 0.082595
v -0.332134 0.796182 0.081616
v -0.345817 0.792937 0.079900
v -0.346346 0.795510 0.086108
v -0.335060 0.799036 0.088361
v 0.075745 1.241833 0.072605
v 0.045212 1.311104 0.052764
v 0.075175 1.268795 -0.043577
v 0.060020 1.018063 -0.008054
v 0.065472 0.952731 -0.024503
v 0.017853 0.897700 -0.054202
v 0.029415 0.884288 -0.065461
v 0.063331 0.920595 -0.043946
v 0.010549 0.857538 -0.048643
v 0.026928 0.857925 -0.065332
v 0.017222 0.819575 -0.042758
v 0.029699 0.832661 -0.059750
v 0.046181 0.791325 -0.036381
v 0.033987 0.762152 -0.012627
v 0.052257 0.823580 -0.063852
v 0.093408 0.794897 -0.046828
v 0.080307 0.820773 -0.062923
v 0.107102 0.771941 -0.036107
v 0.125137 0.827069 -0.019790
v 0.153726 0.801087 0.016170
v 0.088654 0.845242 -0.062479
v 0.110789 0.892775 -0.015470
v 0.131408 0.913170 0.028586
v 0.085077 0.878036 -0.055850
v 0.056972 0.890280 -0.068260
v 0.054791 0.857715 -0.071365
v 0.090845 1.014103 0.033515
v 0.096085 0.882392 0.117872
v 0.063204 1.007718 0.095901
v 0.102249 0.791624 0.118590
v 0.048242 0.836568 0.107003
v 0.024172 0.774239 0.086618
v 0.015001 0.619566 0.066407
v 0.030844 0.617491 -0.022024
v 0.050877 0.456025 0.038956
v 0.108991 0.612310 0.127274
v 0.095364 0.457536 0.079254
v 0.162310 0.622864 0.035402
v 0.126387 0.454712 0.025326
v 0.106970 0.622347 -0.042449
v 0.096984 0.446158 -0.016638
v 0.063072 0.444791 -0.009003
v 0.101391 0.397668 -0.016791
v 0.120581 0.427443 0.027104
v 0.090081 0.430667 0.076419
v 0.117468 0.394509 0.020607
v 0.087882 0.391443 0.059925
v 0.134215 0.296228 0.013177
v 0.112076 0.308553 -0.034970
v 0.085995 0.297439 0.069488
v 0.107326 0.172769 -0.001607
v 0.093407 0.176096 -0.033526
v 0.083219 0.169275 0.024951
v 0.058658 0.172581 0.000856
v 0.069868 0.175177 -0.030076
v 0.039089 0.301712 0.016507
v 0.052674 0.391381 0.019069
v 0.053157 0.305910 -0.024724
v 0.062591 0.395693 -0.009303
v 0.048094 0.427222 0.030021
v 0.055692 1.074514 0.094351
v 0.082787 1.080087 0.043807
v 0.055167 1.079325 -0.011083
v 0.069876 1.124784 0.115385
v 0.082571 1.128807 0.097087
v 0.087940 1.146603 0.100531
v 0.083398 1.165882 0.098639
v 0.069242 1.170617 0.116637
v 0.047761 1.166938 0.123525
v 0.048760 1.148499 0.129870
v 0.048824 1.126808 0.122474
v 0.054112 1.108049 0.101250
v 0.077891 1.116609 0.071580
v 0.085229 1.144706 0.068419
v 0.083618 1.184289 0.079670
v 0.061796 1.198827 0.103257
v 0.028237 1.186157 0.116937
v 0.018344 1.151038 0.122774
v 0.024536 1.115247 0.113718
v 0.073331 1.149862 0.124763
v 0.061491 1.148825 -0.026325
v 0.089271 1.146136 0.037440
v 0.165840 1.271189 -0.011867
v 0.167262 1.266741 0.010506
v 0.180144 1.232314 0.026013
v 0.128711 1.289850 -0.010664
v 0.126535 1.259301 -0.035419
v 0.129785 1.282578 0.025359
v 0.047126 1.324769 -0.012241
v 0.176881 1.239734 -0.034460
v 0.231994 1.161703 0.007985
v 0.230473 1.168501 -0.040269
v 0.199315 1.151973 -0.058204
v 0.158534 1.208350 -0.048170
v 0.145764 1.179937 -0.025129
v 0.184209 1.125564 -0.028384
v 0.197095 1.131451 0.010929
v 0.278243 1.063714 0.003947
v 0.281394 1.066689 -0.033605
v 0.255258 1.046809 -0.059034
v 0.237353 1.037369 -0.032662
v 0.253062 1.046009 0.008070
v 0.321447 0.996890 0.016708
v 0.327021 0.997292 -0.020216
v 0.295757 0.983711 -0.049441
v 0.274938 0.972412 -0.018858
v 0.289864 0.979996 0.018983
v 0.349843 0.915180 0.016702
v 0.354333 0.913985 -0.009333
v 0.338917 0.916735 -0.024741
v 0.328764 0.908686 -0.010707
v 0.338583 0.907250 0.011816
v 0.221495 1.065361 -0.033681
v 0.265237 1.095884 -0.003705
v 0.266454 1.099617 -0.039687
v 0.235460 1.070420 0.001391
v 0.233602 1.088175 -0.061805
v 0.265643 1.072036 -0.050447
v 0.248534 1.059895 -0.065908
v 0.235466 1.049484 -0.042885
v 0.229094 1.061028 -0.043681
v 0.260437 1.084457 -0.052266
v 0.239974 1.076842 -0.068072
v 0.067591 1.191072 -0.030477
v 0.097010 1.199832 0.047075
v 0.157326 1.186617 0.021256
v 0.137771 1.247941 0.044255
v 0.112499 1.226398 -0.042900
v 0.105096 1.194630 -0.022828
v 0.120111 1.201819 0.036771
v 0.083695 1.227553 -0.044381
v 0.036038 1.369230 0.058418
v 0.034492 1.368547 0.003671
v 0.102194 0.000168 -0.012483
v 0.087272 -0.000663 -0.043970
v 0.043845 0.000628 -0.006951
v 0.058078 -0.000201 -0.040704
v 0.106092 0.080819 0.000985
v 0.090675 0.086196 -0.037851
v 0.050045 0.081481 0.003268
v 0.082227 0.084465 0.027371
v 0.065232 0.085901 -0.034900
v 0.124561 0.003524 0.119792
v 0.064265 0.006331 0.132341
v 0.122158 0.027525 0.113769
v 0.064098 0.030580 0.125225
v 0.099511 0.038996 0.122213
v 0.045596 0.005448 0.064071
v 0.048552 0.039225 0.066330
v 0.125928 0.034305 0.059377
v 0.127328 0.003152 0.053637
v 0.092570 0.050218 0.076728
v 0.104668 0.006680 0.130737
v 0.032333 1.508365 0.104174
v 0.029939 1.369715 0.111480
v 0.006317 1.406508 0.129984
v 0.014305 1.377522 0.120709
v 0.010021 1.392057 0.126572
v 0.013239 1.415932 0.133009
v 0.010392 1.384220 0.126638
v 0.005479 1.390919 0.129114
v 0.032313 1.396366 0.115503
v 0.044036 1.398046 0.109972
v 0.015369 1.441803 0.122577
v 0.050502 1.472571 0.107491
v 0.040750 1.534144 0.074728
v 0.058446 1.489210 0.084758
v 0.061743 1.446467 0.073673
v 0.041491 1.541007 0.036641
v 0.045326 1.497347 -0.024612
v 0.039124 1.405654 -0.011483
v 0.047139 1.455334 -0.025575
v 0.020165 1.478294 0.126555
v 0.021809 1.392872 0.122344
v 0.005600 1.391809 0.129265
v 0.007809 1.399444 0.130570
v 0.013534 1.392317 0.124314
v 0.053645 1.441018 0.100711
v 0.056792 1.410950 0.068982
v 0.060102 1.410192 0.043649
v 0.065590 1.454034 0.046859
v 0.051314 1.412865 0.011876
v 0.061476 1.454537 0.008599
v 0.073974 1.417825 0.006245
v 0.079123 1.449287 0.004962
v 0.071507 1.450746 0.000432
v 0.066167 1.417197 0.001611
v 0.063676 1.502678 0.019928
v 0.062709 1.500759 0.057257
v 0.030575 1.535910 0.002604
v 0.050713 1.390249 0.038842
v 0.046980 1.389205 0.018623
v 0.377181 0.823377 0.055297
v 0.388642 0.816489 0.013268
v 0.361599 0.822737 -0.033034
v 0.343737 0.810602 -0.015038
v 0.355938 0.826145 0.042723
v 0.339926 0.874170 0.017047
v 0.328622 0.880089 -0.013741
v 0.344186 0.887841 -0.032870
v 0.367046 0.887033 -0.000192
v 0.359474 0.891060 0.031291
v 0.084853 0.008208 0.078749
v 0.075440 0.002707 0.013405
v 0.391641 0.756571 0.050541
v 0.401135 0.757372 0.017409
v 0.382185 0.771191 -0.025384
v 0.362453 0.760652 -0.011231
v 0.368799 0.745648 0.022104
v 0.337052 0.850762 0.042085
v 0.350264 0.830214 0.050805
v 0.355518 0.835176 0.060739
v 0.344668 0.852678 0.058719
v 0.330637 0.823541 0.064710
v 0.349345 0.816559 0.064169
v 0.352607 0.818975 0.079718
v 0.339057 0.828342 0.082595
v 0.332134 0.796182 0.081616
v 0.345817 0.792937 0.079900
v 0.346346 0.795510 0.086108
v 0.335060 0.799036 0.088361
vn -0.0000 0.2528 0.9675
vn -0.6280 0.4188 0.6559
vn -0.4540 0.2785 0.8464
vn -0.0000 0.4121 0.9112
vn -0.1090 0.2795 -0.9539
vn -0.4970 0.6289 -0.5979
vn -0.0000 0.3648 -0.9311
vn -0.0000 0.0595 -0.9982
vn -0.5591 -0.0789 -0.8253
vn -0.0000 -0.1187 -0.9929
vn -0.0000 0.1022 -0.9948
vn -0.5334 0.1821 -0.8260
vn -0.0000 0.3018 -0.9534
vn -0.4634 0.3612 -0.8092
vn 0.3864 0.2930 -0.8745
vn -0.3314 0.5304 -0.7803
vn 0.6460 -0.1115 -0.7551
vn 0.6011 -0.1509 -0.7848
vn 0.4827 -0.0853 -0.8716
vn 0.3886 0.2590 -0.8843
vn -0.1675 0.4018 -0.9003
vn 0.5092 -0.3957 -0.7643
vn -0.0000 -0.7042 -0.7100
vn 0.4638 -0.3433 -0.8167
vn 0.2473 -0.5549 -0.7944
vn 0.1509 -0.4123 -0.8985
vn 0.7319 -0.3277 -0.5974
vn -0.3254 -0.3820 -0.8650
vn -0.4194 -0.1278 -0.8988
vn -0.2882 -0.3354 -0.8969
vn -0.7845 0.0832 -0.6146
vn -0.5548 0.0197 -0.8317
vn -0.9897 0.0860 -0.1145
vn -0.9512 0.3015 -0.0659
vn -0.7498 0.3271 -0.5751
vn -0.6124 0.3003 -0.7313
vn -0.0403 -0.0203 -0.9990
vn -0.5665 0.0819 0.8200
vn -0.6334 0.1859 0.7512
vn -0.9670 0.2369 -0.0938
vn -0.3866 0.0220 0.9220
vn -0.0000 0.0359 0.9994
vn -0.0000 0.1095 0.9940
vn 0.7627 -0.2967 0.5747
vn 0.0905 -0.2059 0.9744
vn -0.0000 -0.2805 0.9598
vn -0.0000 -0.5615 0.8275
vn 0.9217 -0.1037 0.3737
vn 0.7651 -0.0625 -0.6409
vn -0.2793 -0.1445 0.9493
vn 0.9389 -0.1126 0.3252
vn 0.6956 -0.0596 -0.7159
vn -0.2100 -0.2691 0.9399
vn -0.9967 -0.0732 -0.0343
vn -0.9756 -0.2140 -0.0495
vn -0.3432 -0.0596 -0.9374
vn -0.3925 -0.0828 -0.9160
vn 0.6746 0.0934 -0.7322
vn -0.4935 0.1323 -0.8596
vn -0.9844 -0.1621 0.0688
vn -0.0584 -0.2657 0.9623
vn -0.0465 -0.1460 0.9882
vn -0.9947 0.0075 0.1028
vn -0.9907 -0.0495 0.1265
vn -0.0148 -0.1003 0.9948
vn -0.5184 0.0876 -0.8506
vn -0.4914 -0.0292 -0.8705
vn -0.9854 -0.1189 0.1223
vn -0.0408 -0.1356 0.9899
vn 0.9797 -0.0547 0.1930
vn 0.9817 -0.0197 0.1895
vn 0.6334 0.0109 -0.7737
vn 0.6803 0.0682 -0.7298
vn 0.9873 0.0020 0.1591
vn 0.9805 -0.0486 0.1902
vn -0.0000 -0.1087 0.9941
vn -0.6484 -0.0657 0.7585
vn -0.9993 -0.0374 0.0045
vn -0.0191 -0.0207 0.9996
vn -0.0457 -0.4992 0.8653
vn -0.0969 -0.3048 0.9475
vn 0.1161 0.0218 0.9930
vn -0.5168 -0.5886 0.6216
vn -0.5059 -0.5192 0.6888
vn -0.8464 -0.4825 0.2253
vn -0.9178 -0.2904 0.2708
vn -0.9639 -0.0545 0.2606
vn -0.9876 -0.1117 0.1103
vn -0.9134 0.2786 0.2968
vn -0.9212 0.1499 0.3590
vn -0.5383 0.4244 0.7281
vn -0.4846 0.4491 0.7507
vn -0.0584 0.3593 0.9314
vn -0.0040 0.3760 0.9266
vn -0.5860 0.0204 0.8100
vn -0.0000 0.0238 0.9997
vn -0.9851 -0.1316 -0.1111
vn -0.5797 -0.1762 -0.7956
vn -0.0000 -0.1497 -0.9887
vn -0.8089 -0.4041 0.4271
vn -0.3574 -0.3934 -0.8470
vn -0.0684 -0.1911 -0.9792
vn -0.6060 0.5294 -0.5937
vn -0.7024 0.2834 0.6529
vn -0.7169 0.6203 0.3181
vn -0.6427 0.7147 -0.2758
vn -0.4455 0.7407 0.5029
vn -0.3865 0.8665 -0.3159
vn -0.4342 0.1636 0.8858
vn -0.1897 0.4272 -0.8841
vn -0.6145 0.3507 0.7067
vn -0.5428 0.3542 0.7615
vn 0.6873 -0.0957 0.7201
vn 0.4997 -0.2637 0.8251
vn -0.7043 0.3173 0.6350
vn 0.4021 -0.4168 0.8152
vn 0.1862 -0.5948 0.7820
vn 0.8295 -0.5292 -0.1788
vn 0.6049 -0.7263 -0.3265
vn 0.5103 -0.1340 0.8495
vn -0.5511 0.4549 0.6995
vn -0.7310 0.4899 -0.4750
vn 0.1726 -0.0380 -0.9843
vn 0.0920 -0.0183 -0.9956
vn -0.8118 0.4240 -0.4015
vn -0.5640 0.3452 -0.7501
vn -0.6947 0.1037 -0.7118
vn -0.8654 0.3672 -0.3411
vn 0.8344 -0.5406 -0.1076
vn 0.6889 -0.5070 -0.5180
vn 0.7839 -0.3652 -0.5022
vn 0.8787 -0.4675 -0.0969
vn 0.2794 0.0575 -0.9585
vn 0.2117 0.0521 -0.9760
vn -0.1723 -0.7486 0.6403
vn 0.0013 -0.3073 -0.9516
vn -0.7093 0.3455 0.6145
vn 0.9347 -0.3290 -0.1346
vn 0.8079 -0.5788 -0.1109
vn 0.5012 -0.2792 0.8191
vn -0.0185 -0.2319 -0.9726
vn -0.0102 -0.3367 -0.9416
vn -0.8705 0.3737 -0.3202
vn -0.1143 -0.0645 -0.9913
vn -0.9023 0.3215 -0.2872
vn 0.0791 -0.9065 -0.4148
vn -0.0265 -0.1388 -0.9900
vn -0.8998 -0.3650 0.2389
vn -0.8066 -0.0896 -0.5842
vn -0.0000 0.0347 -0.9994
vn -0.0000 -0.7307 0.6827
vn -0.2034 -0.5776 0.7906
vn 0.4724 -0.5519 0.6872
vn 0.5638 0.5443 0.6212
vn -0.1969 0.7684 0.6089
vn -0.9838 0.1790 -0.0018
vn -0.5294 0.0354 -0.8476
vn -0.4010 -0.6348 -0.6604
vn -0.6644 -0.7129 -0.2242
vn 0.6281 0.0915 -0.7727
vn 0.5150 -0.6099 -0.6023
vn 0.9637 0.2425 0.1120
vn -0.0831 0.5947 0.7997
vn 0.7636 -0.6358 -0.1124
vn 0.7447 -0.6535 0.1355
vn 0.8364 0.4662 0.2883
vn -0.1289 0.9280 0.3495
vn -0.9130 0.4074 0.0191
vn -0.7795 0.4752 0.4081
vn -0.7397 -0.6666 -0.0921
vn -0.6545 -0.5997 0.4604
vn -0.0000 0.6059 0.7955
vn -0.0000 0.8760 0.4823
vn -0.5795 0.7266 0.3692
vn -0.5207 0.5226 0.6751
vn -0.6403 -0.3218 -0.6975
vn -0.0000 -0.3433 -0.9392
vn -0.0000 -0.5345 0.8452
vn -0.4036 -0.4542 0.7943
vn -0.3900 -0.3391 0.8561
vn -0.0000 -0.4096 0.9122
vn -0.8864 0.2278 0.4031
vn -0.7521 0.0976 0.6518
vn -0.4411 0.1717 0.8809
vn -0.3542 -0.2571 0.8991
vn -0.2647 -0.7677 0.5836
vn -0.0000 -0.7580 0.6522
vn -0.0000 -0.2585 0.9660
vn -0.0727 -0.9972 0.0155
vn -0.0000 -0.9973 0.0736
vn -0.3790 0.0364 0.9247
vn -0.1066 0.5473 0.8301
vn -0.1483 0.7753 0.6140
vn -0.3057 -0.1137 0.9453
vn -0.0000 -0.2024 0.9793
vn -0.0000 0.4900 0.8717
vn -0.0000 0.9626 0.2710
vn -0.3606 -0.5382 0.7618
vn -0.3890 -0.2866 0.8755
vn -0.4319 -0.2629 0.8628
vn -0.5719 -0.1314 0.8097
vn -0.3667 0.1472 0.9186
vn -0.5891 0.8065 -0.0497
vn -0.0000 1.0000 -0.0000
vn -0.4581 0.7561 -0.4674
vn -0.0000 0.8363 -0.5482
vn -0.0000 0.2918 -0.9565
vn -0.6321 0.3088 -0.7107
vn -0.6679 -0.1241 -0.7339
vn -0.0000 -0.1588 -0.9873
vn -0.0000 -0.1967 0.9805
vn -0.0000 0.1571 0.9876
vn -0.7950 -0.2515 0.5521
vn -0.6391 -0.5919 0.4912
vn -0.9244 -0.3741 0.0742
vn -0.9428 -0.2910 0.1628
vn -0.9762 -0.0685 0.2055
vn -0.9917 0.0246 0.1261
vn -0.0000 -0.8264 0.5631
vn -0.0000 0.1686 0.9857
vn -0.4860 0.0599 0.8719
vn -0.0000 0.1096 0.9940
vn -0.5031 -0.0927 0.8592
vn -0.0000 -0.0932 0.9956
vn -0.8370 -0.0595 0.5440
vn -0.8757 0.4006 -0.2695
vn -0.7777 -0.5609 -0.2838
vn -0.6967 -0.5369 -0.4757
vn -0.7956 0.3541 -0.4916
vn -0.1006 0.5943 -0.7979
vn 0.0218 -0.5813 -0.8134
vn -0.9345 0.3021 -0.1883
vn -0.9477 0.2747 0.1621
vn -0.8957 -0.3849 -0.2227
vn -0.8926 -0.4496 -0.0332
vn 0.7957 -0.5336 0.2867
vn 0.9264 0.0590 0.3720
vn 0.9910 -0.0130 -0.1333
vn 0.2614 -0.8802 -0.3962
vn -0.0252 0.1312 -0.9910
vn 0.9772 -0.0926 -0.1912
vn 0.9114 -0.2740 -0.3071
vn -0.1764 -0.0134 -0.9842
vn -0.3345 0.6079 0.7201
vn -0.9287 0.3239 -0.1803
vn -0.9631 0.2481 -0.1045
vn -0.4968 0.0022 0.8679
vn 0.0076 -0.9977 0.0676
vn 0.0227 -0.9995 0.0233
vn -0.8714 -0.4691 -0.1437
vn -0.3952 -0.4848 0.7802
vn -0.4127 -0.3604 -0.8366
vn 0.4221 -0.8881 0.1817
vn 0.5838 -0.7113 -0.3915
vn -0.7036 0.0148 0.7105
vn -0.5132 -0.5812 -0.6315
vn -0.8720 0.0586 0.4859
vn 0.2762 0.6375 0.7192
vn 0.9466 -0.1235 -0.2979
vn 0.7656 -0.6390 -0.0745
vn -0.3734 -0.8838 -0.2818
vn 0.2846 0.5230 0.8034
vn 0.4578 -0.2639 0.8490
vn -0.5722 -0.5577 0.6013
vn 0.4540 0.2785 0.8464
vn 0.6280 0.4188 0.6559
vn 0.1090 0.2795 -0.9539
vn 0.4970 0.6289 -0.5979
vn 0.5591 -0.0789 -0.8253
vn 0.5334 0.1821 -0.8260
vn 0.4634 0.3611 -0.8092
vn 0.3314 0.5304 -0.7803
vn -0.3864 0.2930 -0.8745
vn -0.6460 -0.1115 -0.7551
vn -0.6011 -0.1509 -0.7848
vn -0.4827 -0.0853 -0.8716
vn -0.3886 0.2590 -0.8843
vn 0.1675 0.4018 -0.9003
vn -0.5092 -0.3957 -0.7643
vn -0.4638 -0.3433 -0.8167
vn -0.2473 -0.5549 -0.7944
vn -0.1509 -0.4123 -0.8985
vn -0.7319 -0.3277 -0.5974
vn 0.3254 -0.3820 -0.8650
vn 0.4194 -0.1278 -0.8988
vn 0.2882 -0.3354 -0.8969
vn 0.5548 0.0197 -0.8317
vn 0.7845 0.0832 -0.6146
vn 0.9897 0.0860 -0.1145
vn 0.7498 0.3271 -0.5751
vn 0.9512 0.3015 -0.0659
vn 0.6124 0.3003 -0.7313
vn 0.0403 -0.0203 -0.9990
vn 0.9670 0.2369 -0.0938
vn 0.6334 0.1859 0.7512
vn 0.5665 0.0819 0.8200
vn 0.3866 0.0220 0.9220
vn -0.0905 -0.2059 0.9744
vn -0.7627 -0.2967 0.5747
vn -0.9217 -0.1037 0.3737
vn -0.7651 -0.0625 -0.6409
vn 0.2793 -0.1445 0.9493
vn -0.6956 -0.0596 -0.7159
vn -0.9389 -0.1126 0.3252
vn 0.2100 -0.2691 0.9399
vn 0.9967 -0.0732 -0.0343
vn 0.9756 -0.2140 -0.0495
vn 0.3432 -0.0596 -0.9374
vn 0.3925 -0.0828 -0.9160
vn 0.4935 0.1323 -0.8596
vn -0.6746 0.0934 -0.7322
vn 0.9844 -0.1621 0.0688
vn 0.0584 -0.2657 0.9623
vn 0.0465 -0.1460 0.9882
vn 0.9947 0.0075 0.1028
vn 0.0148 -0.1003 0.9948
vn 0.9907 -0.0495 0.1265
vn 0.5184 0.0876 -0.8506
vn 0.9854 -0.1189 0.1223
vn 0.4914 -0.0292 -0.8705
vn 0.0408 -0.1356 0.9899
vn -0.9817 -0.0197 0.1895
vn -0.9797 -0.0547 0.1930
vn -0.6803 0.0682 -0.7298
vn -0.6334 0.0109 -0.7737
vn -0.9873 0.0020 0.1591
vn -0.9805 -0.0486 0.1902
vn 0.6484 -0.0657 0.7585
vn 0.9993 -0.0374 0.0045
vn 0.0191 -0.0207 0.9996
vn -0.1161 0.0218 0.9930
vn 0.0969 -0.3048 0.9475
vn 0.0457 -0.4992 0.8653
vn 0.5059 -0.5192 0.6888
vn 0.5168 -0.5886 0.6216
vn 0.9178 -0.2904 0.2708
vn 0.8464 -0.4825 0.2253
vn 0.9876 -0.1117 0.1103
vn 0.9639 -0.0545 0.2606
vn 0.9212 0.1499 0.3590
vn 0.9134 0.2786 0.2968
vn 0.4846 0.4491 0.7507
vn 0.5383 0.4244 0.7281
vn 0.0040 0.3760 0.9266
vn 0.0584 0.3593 0.9314
vn 0.5860 0.0204 0.8100
vn 0.9851 -0.1316 -0.1111
vn 0.5797 -0.1762 -0.7956
vn 0.8089 -0.4041 0.4271
vn 0.3574 -0.3934 -0.8470
vn 0.0684 -0.1911 -0.9792
vn 0.6060 0.5294 -0.5937
vn 0.6427 0.7147 -0.2758
vn 0.7169 0.6203 0.3181
vn 0.7024 0.2834 0.6529
vn 0.3865 0.8665 -0.3159
vn 0.4455 0.7407 0.5029
vn 0.4342 0.1636 0.8858
vn 0.1897 0.4272 -0.8841
vn 0.6145 0.3507 0.7067
vn -0.4997 -0.2637 0.8251
vn -0.6873 -0.0957 0.7201
vn 0.5428 0.3542 0.7615
vn 0.7043 0.3173 0.6350
vn -0.1862 -0.5948 0.7820
vn -0.4021 -0.4168 0.8152
vn -0.6049 -0.7263 -0.3265
vn -0.8295 -0.5292 -0.1788
vn 0.5511 0.4549 0.6995
vn -0.5103 -0.1340 0.8495
vn 0.7310 0.4899 -0.4750
vn -0.1726 -0.0380 -0.9843
vn -0.0920 -0.0183 -0.9956
vn 0.8118 0.4240 -0.4015
vn 0.8654 0.3672 -0.3411
vn 0.6947 0.1037 -0.7118
vn 0.5640 0.3452 -0.7501
vn -0.8344 -0.5406 -0.1076
vn -0.8787 -0.4675 -0.0969
vn -0.7839 -0.3652 -0.5022
vn -0.6889 -0.5070 -0.5180
vn -0.2794 0.0575 -0.9585
vn -0.2117 0.0521 -0.9760
vn 0.1723 -0.7486 0.6403
vn -0.0013 -0.3073 -0.9516
vn 0.7093 0.3455 0.6145
vn -0.8079 -0.5788 -0.1109
vn -0.9347 -0.3290 -0.1346
vn -0.5012 -0.2792 0.8191
vn 0.0102 -0.3367 -0.9416
vn 0.0185 -0.2319 -0.9726
vn 0.8705 0.3737 -0.3202
vn 0.1143 -0.0645 -0.9913
vn 0.9023 0.3215 -0.2872
vn -0.0791 -0.9065 -0.4148
vn 0.0265 -0.1388 -0.9900
vn 0.8066 -0.0896 -0.5842
vn 0.8998 -0.3650 0.2389
vn 0.2034 -0.5776 0.7906
vn 0.1969 0.7684 0.6089
vn -0.5638 0.5443 0.6212
vn -0.4724 -0.5519 0.6872
vn 0.9838 0.1790 -0.0018
vn 0.6644 -0.7129 -0.2242
vn 0.4010 -0.6348 -0.6604
vn 0.5294 0.0354 -0.8476
vn -0.5150 -0.6099 -0.6023
vn -0.6281 0.0915 -0.7727
vn -0.9637 0.2425 0.1120
vn 0.0831 0.5947 0.7997
vn -0.7636 -0.6358 -0.1124
vn -0.7447 -0.6535 0.1355
vn -0.8364 0.4662 0.2883
vn 0.1289 0.9280 0.3495
vn 0.7795 0.4752 0.4081
vn 0.9130 0.4074 0.0191
vn 0.7397 -0.6666 -0.0921
vn 0.6545 -0.5997 0.4604
vn 0.5207 0.5226 0.6751
vn 0.5795 0.7266 0.3692
vn 0.6403 -0.3218 -0.6975
vn 0.3900 -0.3391 0.8561
vn 0.4036 -0.4542 0.7943
vn 0.4411 0.1717 0.8809
vn 0.7521 0.0976 0.6518
vn 0.8864 0.2278 0.4031
vn 0.3542 -0.2571 0.8991
vn 0.2647 -0.7677 0.5836
vn 0.0727 -0.9972 0.0155
vn 0.3790 0.0364 0.9247
vn 0.1483 0.7753 0.6140
vn 0.1066 0.5473 0.8301
vn 0.3057 -0.1137 0.9453
vn 0.3606 -0.5382 0.7618
vn 0.3890 -0.2866 0.8755
vn 0.3667 0.1472 0.9186
vn 0.5719 -0.1314 0.8097
vn 0.4319 -0.2629 0.8628
vn 0.5891 0.8065 -0.0497
vn 0.4581 0.7561 -0.4674
vn 0.6321 0.3088 -0.7107
vn 0.6679 -0.1241 -0.7339
vn 0.6391 -0.5919 0.4912
vn 0.7950 -0.2515 0.5521
vn 0.9244 -0.3741 0.0742
vn 0.9917 0.0246 0.1261
vn 0.9762 -0.0685 0.2055
vn 0.9428 -0.2910 0.1628
vn 0.4860 0.0599 0.8719
vn 0.5031 -0.0927 0.8592
vn 0.8370 -0.0595 0.5440
vn 0.7777 -0.5609 -0.2838
vn 0.8757 0.4006 -0.2695
vn 0.7956 0.3541 -0.4916
vn 0.6968 -0.5369 -0.4757
vn 0.1006 0.5943 -0.7979
vn -0.0218 -0.5813 -0.8134
vn 0.9345 0.3021 -0.1883
vn 0.9477 0.2747 0.1621
vn 0.8926 -0.4496 -0.0332
vn 0.8957 -0.3849 -0.2227
vn -0.7957 -0.5336 0.2867
vn -0.2614 -0.8802 -0.3962
vn -0.9910 -0.0130 -0.1333
vn -0.9264 0.0590 0.3720
vn 0.0252 0.1312 -0.9910
vn 0.1764 -0.0134 -0.9842
vn -0.9114 -0.2740 -0.3071
vn -0.9772 -0.0926 -0.1912
vn 0.3345 0.6079 0.7201
vn 0.4968 0.0022 0.8679
vn 0.9631 0.2481 -0.1045
vn 0.9287 0.3239 -0.1803
vn -0.0227 -0.9995 0.0233
vn -0.0076 -0.9977 0.0676
vn 0.3952 -0.4848 0.7802
vn 0.8714 -0.4691 -0.1437
vn 0.4127 -0.3604 -0.8366
vn -0.4221 -0.8881 0.1817
vn -0.5838 -0.7113 -0.3915
vn 0.7036 0.0148 0.7105
vn 0.8720 0.0586 0.4859
vn 0.5132 -0.5812 -0.6315
vn -0.2762 0.6375 0.7192
vn 0.3734 -0.8838 -0.2818
vn -0.7656 -0.6390 -0.0745
vn -0.9466 -0.1235 -0.2979
vn -0.2846 0.5230 0.8034
vn 0.5722 -0.5577 0.6013
vn -0.4578 -0.2639 0.8490
vt 0.815153 0.388272
vt 0.792879 0.414159
vt 0.764813 0.377610
vt 0.804604 0.351390
vt 0.761731 0.773965
vt 0.744762 0.811412
vt 0.716549 0.794320
vt 0.716548 0.758209
vt 0.753553 0.655620
vt 0.716548 0.655917
vt 0.716548 0.620735
vt 0.757490 0.614070
vt 0.716550 0.544013
vt 0.759418 0.569331
vt 0.728831 0.531573
vt 0.756090 0.546495
vt 0.724308 0.507947
vt 0.716550 0.505552
vt 0.736460 0.509262
vt 0.737001 0.522818
vt 0.750999 0.526147
vt 0.728918 0.485799
vt 0.716551 0.473917
vt 0.737860 0.495912
vt 0.746767 0.469111
vt 0.750223 0.491969
vt 0.739438 0.446682
vt 0.774755 0.475831
vt 0.784832 0.461566
vt 0.765060 0.491053
vt 0.797997 0.495207
vt 0.768487 0.504158
vt 0.825432 0.481547
vt 0.814096 0.551179
vt 0.789660 0.533901
vt 0.766872 0.521463
vt 0.750702 0.509874
vt 0.651043 0.209587
vt 0.689285 0.167668
vt 0.727984 0.241052
vt 0.692982 0.261498
vt 0.789215 0.614482
vt 0.661990 0.119338
vt 0.607669 0.154859
vt 0.753622 0.173165
vt 0.772050 0.237586
vt 0.700758 0.084026
vt 0.706724 0.128972
vt 0.741475 0.130703
vt 0.731151 0.094614
vt 0.679893 0.034235
vt 0.710004 0.020693
vt 0.528167 0.367926
vt 0.575147 0.359307
vt 0.575147 0.451009
vt 0.516489 0.459956
vt 0.462190 0.465490
vt 0.471801 0.365433
vt 0.515942 0.264815
vt 0.543467 0.251996
vt 0.477720 0.268716
vt 0.421001 0.363005
vt 0.395240 0.461350
vt 0.439929 0.260849
vt 0.357500 0.436633
vt 0.374273 0.350141
vt 0.410374 0.245902
vt 0.311965 0.421000
vt 0.331597 0.333575
vt 0.388848 0.239065
vt 0.394337 0.208942
vt 0.420600 0.213515
vt 0.445075 0.242588
vt 0.480638 0.251297
vt 0.482478 0.220900
vt 0.447260 0.218811
vt 0.455494 0.156042
vt 0.488393 0.162969
vt 0.428795 0.156905
vt 0.444826 0.076456
vt 0.466959 0.079155
vt 0.491579 0.078553
vt 0.515008 0.080778
vt 0.522304 0.162694
vt 0.535446 0.081146
vt 0.546031 0.163124
vt 0.539054 0.221741
vt 0.520569 0.220739
vt 0.394174 0.148992
vt 0.429767 0.072617
vt 0.517846 0.244831
vt 0.783524 0.277698
vt 0.745248 0.281557
vt 0.715240 0.296000
vt 0.789626 0.655233
vt 0.770303 0.320661
vt 0.766235 0.311190
vt 0.774607 0.298793
vt 0.784601 0.316810
vt 0.756960 0.314848
vt 0.754717 0.300838
vt 0.748526 0.318630
vt 0.735895 0.312563
vt 0.751112 0.326290
vt 0.737477 0.329230
vt 0.753860 0.334817
vt 0.750399 0.347268
vt 0.763939 0.333012
vt 0.768974 0.347962
vt 0.773301 0.328768
vt 0.784883 0.335832
vt 0.761324 0.324456
vt 0.793622 0.312998
vt 0.722444 0.334770
vt 0.791805 0.694579
vt 0.754232 0.700941
vt 0.716548 0.718962
vt 0.737402 0.363063
vt 0.802725 0.725214
vt 0.757334 0.726389
vt 0.766969 0.749393
vt 0.133743 0.599651
vt 0.103630 0.588285
vt 0.121753 0.576062
vt 0.131939 0.579191
vt 0.124599 0.553325
vt 0.142448 0.560509
vt 0.102145 0.559645
vt 0.156384 0.578021
vt 0.134979 0.498012
vt 0.170127 0.514287
vt 0.089580 0.519313
vt 0.181647 0.557312
vt 0.056580 0.751926
vt 0.044443 0.798853
vt 0.035620 0.798879
vt 0.038110 0.748394
vt 0.088750 0.640135
vt 0.060749 0.637400
vt 0.068844 0.590730
vt 0.036772 0.634128
vt 0.039777 0.592645
vt 0.048264 0.704659
vt 0.067941 0.707488
vt 0.114321 0.646941
vt 0.135412 0.653985
vt 0.150995 0.614771
vt 0.097600 0.690357
vt 0.104914 0.699462
vt 0.102351 0.706945
vt 0.089344 0.711252
vt 0.130474 0.728859
vt 0.127827 0.719846
vt 0.130694 0.712354
vt 0.138092 0.710511
vt 0.121487 0.695570
vt 0.118146 0.703149
vt 0.154771 0.668925
vt 0.168463 0.630028
vt 0.069804 0.559404
vt 0.115127 0.711931
vt 0.077120 0.686071
vt 0.022183 0.794987
vt 0.016261 0.743722
vt 0.023666 0.697038
vt 0.050484 0.684390
vt 0.028247 0.677755
vt 0.113416 0.772659
vt 0.095686 0.760921
vt 0.112420 0.720754
vt 0.073533 0.756213
vt 0.070924 0.801750
vt 0.078630 0.809605
vt 0.058366 0.803447
vt 0.031878 0.567491
vt 0.173213 0.592552
vt 0.188060 0.611198
vt 0.065824 0.543451
vt 0.016261 0.548150
vt 0.189191 0.583493
vt 0.209654 0.600236
vt 0.494979 0.686462
vt 0.505585 0.721687
vt 0.470169 0.727565
vt 0.468091 0.697453
vt 0.497292 0.498012
vt 0.526005 0.513642
vt 0.520108 0.541780
vt 0.497192 0.539085
vt 0.521596 0.752862
vt 0.480243 0.752862
vt 0.865256 0.461820
vt 0.884573 0.446681
vt 0.890422 0.458736
vt 0.881104 0.471334
vt 0.919483 0.528879
vt 0.930082 0.551561
vt 0.877760 0.572044
vt 0.872161 0.552026
vt 0.935422 0.567178
vt 0.884365 0.589786
vt 0.517785 0.019266
vt 0.540669 0.024092
vt 0.434192 0.016261
vt 0.450201 0.018456
vt 0.473646 0.017880
vt 0.493805 0.020951
vt 0.972061 0.506664
vt 0.948970 0.499352
vt 0.962553 0.449200
vt 0.983739 0.452811
vt 0.921828 0.446681
vt 0.918096 0.467402
vt 0.897722 0.486618
vt 0.881059 0.504378
vt 0.871743 0.479232
vt 0.925988 0.508224
vt 0.862672 0.511566
vt 0.857954 0.475192
vt 0.925184 0.231966
vt 0.925520 0.207853
vt 0.950801 0.204684
vt 0.946597 0.228585
vt 0.522095 0.566413
vt 0.497121 0.568117
vt 0.660181 0.877084
vt 0.655590 0.877851
vt 0.653319 0.874246
vt 0.659863 0.872232
vt 0.639894 0.953119
vt 0.615987 0.940299
vt 0.629773 0.927391
vt 0.651364 0.930301
vt 0.565201 0.711283
vt 0.560721 0.709289
vt 0.561101 0.706039
vt 0.564381 0.706039
vt 0.558791 0.714492
vt 0.558815 0.706039
vt 0.558527 0.752241
vt 0.561203 0.762597
vt 0.559966 0.759784
vt 0.565027 0.759145
vt 0.566328 0.765765
vt 0.561541 0.765765
vt 0.559746 0.765765
vt 0.558527 0.719719
vt 0.657567 0.888206
vt 0.643481 0.882581
vt 0.649781 0.881415
vt 0.657049 0.884764
vt 0.951413 0.182702
vt 0.925874 0.182383
vt 0.516667 0.652428
vt 0.496912 0.653940
vt 0.496994 0.620414
vt 0.524330 0.624014
vt 0.526005 0.598273
vt 0.497055 0.595506
vt 0.660842 0.887193
vt 0.660600 0.883493
vt 0.636359 0.882876
vt 0.645722 0.869130
vt 0.272932 0.876281
vt 0.286517 0.879793
vt 0.282919 0.902035
vt 0.267088 0.901950
vt 0.659424 0.865509
vt 0.663572 0.928919
vt 0.652355 0.908160
vt 0.662276 0.909113
vt 0.654818 0.893454
vt 0.661287 0.893994
vt 0.625930 0.907184
vt 0.607669 0.909623
vt 0.609722 0.882819
vt 0.622683 0.849515
vt 0.665155 0.953119
vt 0.658012 0.843935
vt 0.900337 0.354091
vt 0.927249 0.354091
vt 0.923894 0.378538
vt 0.904620 0.376430
vt 0.243490 0.861338
vt 0.255542 0.871281
vt 0.247024 0.895662
vt 0.227224 0.889197
vt 0.563542 0.639206
vt 0.571209 0.637219
vt 0.574730 0.641225
vt 0.558527 0.659837
vt 0.923532 0.383859
vt 0.903001 0.381583
vt 0.558729 0.595186
vt 0.572950 0.612937
vt 0.569050 0.616675
vt 0.558527 0.613560
vt 0.219169 0.914459
vt 0.244347 0.924178
vt 0.263110 0.930138
vt 0.280167 0.929555
vt 0.264922 0.956296
vt 0.288206 0.951199
vt 0.242897 0.952386
vt 0.926205 0.158584
vt 0.945796 0.162815
vt 0.222880 0.945000
vt 0.263453 0.858457
vt 0.273835 0.862974
vt 0.258929 0.842127
vt 0.288206 0.850637
vt 0.917940 0.072849
vt 0.927271 0.099857
vt 0.918750 0.087467
vt 0.915143 0.079080
vt 0.042886 0.940375
vt 0.026799 0.943187
vt 0.016261 0.895950
vt 0.034035 0.899784
vt 0.945398 0.107892
vt 0.951205 0.062937
vt 0.085193 0.931370
vt 0.065139 0.931545
vt 0.060845 0.885249
vt 0.085193 0.881603
vt 0.080007 0.951425
vt 0.062925 0.952625
vt 0.939709 0.126062
vt 0.925241 0.121930
vt 0.049411 0.959353
vt 0.036467 0.961266
vt 0.916395 0.125930
vt 0.909375 0.107676
vt 0.468091 0.906521
vt 0.482043 0.869475
vt 0.498849 0.883218
vt 0.494470 0.919525
vt 0.483452 0.948543
vt 0.518024 0.910533
vt 0.508060 0.948543
vt 0.470991 0.942925
vt 0.517654 0.871233
vt 0.490487 0.851784
vt 0.508303 0.852949
vt 0.048376 0.857254
vt 0.061842 0.845014
vt 0.035144 0.871306
vt 0.900336 0.069948
vt 0.900336 0.021169
vt 0.924364 0.016261
vt 0.023352 0.861127
vt 0.907528 0.290891
vt 0.908356 0.281770
vt 0.920355 0.285290
vt 0.921920 0.292344
vt 0.913830 0.086799
vt 0.910416 0.080458
vt 0.924400 0.273606
vt 0.937194 0.290125
vt 0.928197 0.289827
vt 0.900337 0.264489
vt 0.900337 0.321569
vt 0.901034 0.307153
vt 0.921736 0.299716
vt 0.928348 0.312512
vt 0.931033 0.293378
vt 0.927861 0.291253
vt 0.945486 0.025454
vt 0.037043 0.842127
vt 0.852242 0.352603
vt 0.847748 0.398466
vt 0.671367 0.773965
vt 0.688335 0.811412
vt 0.679545 0.655620
vt 0.675609 0.614070
vt 0.673682 0.569331
vt 0.677010 0.546494
vt 0.704270 0.531573
vt 0.708792 0.507947
vt 0.696641 0.509262
vt 0.696100 0.522818
vt 0.682101 0.526146
vt 0.704183 0.485798
vt 0.695241 0.495911
vt 0.686334 0.469110
vt 0.682878 0.491968
vt 0.693664 0.446681
vt 0.658346 0.475830
vt 0.648269 0.461564
vt 0.668041 0.491052
vt 0.664613 0.504157
vt 0.635103 0.495205
vt 0.607669 0.481545
vt 0.643440 0.533899
vt 0.619003 0.551177
vt 0.666228 0.521462
vt 0.682398 0.509873
vt 0.859945 0.149829
vt 0.851803 0.216066
vt 0.811283 0.217223
vt 0.805319 0.134475
vt 0.643884 0.614481
vt 0.802926 0.079021
vt 0.867814 0.080441
vt 0.770053 0.110856
vt 0.751347 0.069554
vt 0.742722 0.016261
vt 0.063241 0.367926
vt 0.074918 0.459956
vt 0.016261 0.451009
vt 0.016261 0.359307
vt 0.129218 0.465490
vt 0.119607 0.365433
vt 0.047941 0.251996
vt 0.075466 0.264815
vt 0.113688 0.268716
vt 0.170406 0.363005
vt 0.196168 0.461350
vt 0.151479 0.260849
vt 0.233908 0.436633
vt 0.217135 0.350141
vt 0.181034 0.245902
vt 0.259810 0.333575
vt 0.279443 0.421000
vt 0.202559 0.239065
vt 0.170808 0.213515
vt 0.197071 0.208942
vt 0.146332 0.242588
vt 0.110770 0.251297
vt 0.108930 0.220900
vt 0.144148 0.218811
vt 0.103014 0.162969
vt 0.135914 0.156042
vt 0.162613 0.156905
vt 0.124449 0.079155
vt 0.146582 0.076456
vt 0.099829 0.078553
vt 0.069104 0.162694
vt 0.076400 0.080778
vt 0.045377 0.163124
vt 0.055962 0.081146
vt 0.052354 0.221741
vt 0.070839 0.220739
vt 0.197234 0.148992
vt 0.161640 0.072617
vt 0.073562 0.244831
vt 0.818052 0.260731
vt 0.851159 0.257120
vt 0.643472 0.655232
vt 0.817466 0.307171
vt 0.803294 0.311463
vt 0.802248 0.290886
vt 0.815910 0.296981
vt 0.820212 0.282103
vt 0.825717 0.295180
vt 0.842387 0.282101
vt 0.834876 0.293930
vt 0.849859 0.297084
vt 0.836731 0.301798
vt 0.848430 0.319227
vt 0.838908 0.310490
vt 0.833032 0.329639
vt 0.829398 0.314287
vt 0.813114 0.327756
vt 0.819209 0.315636
vt 0.827094 0.305643
vt 0.865548 0.293836
vt 0.678866 0.700941
vt 0.641293 0.694578
vt 0.867814 0.325760
vt 0.675763 0.726389
vt 0.630373 0.725213
vt 0.666128 0.749393
vt 0.359657 0.707966
vt 0.357854 0.728426
vt 0.347668 0.731555
vt 0.329544 0.719332
vt 0.368363 0.747108
vt 0.350514 0.754292
vt 0.328060 0.747972
vt 0.382299 0.729596
vt 0.396042 0.793331
vt 0.360894 0.809605
vt 0.315495 0.788304
vt 0.407562 0.750305
vt 0.282495 0.555691
vt 0.264024 0.559223
vt 0.261535 0.508738
vt 0.270358 0.508764
vt 0.314665 0.667483
vt 0.294759 0.716887
vt 0.286663 0.670218
vt 0.265692 0.714972
vt 0.262687 0.673489
vt 0.293856 0.600129
vt 0.274179 0.602958
vt 0.340236 0.660676
vt 0.361327 0.653633
vt 0.376910 0.692846
vt 0.323515 0.617261
vt 0.315259 0.596365
vt 0.328266 0.600672
vt 0.330829 0.608155
vt 0.356389 0.578759
vt 0.364007 0.597107
vt 0.356609 0.595263
vt 0.353742 0.587772
vt 0.347402 0.612047
vt 0.344061 0.604468
vt 0.380686 0.638693
vt 0.394378 0.677589
vt 0.295719 0.748213
vt 0.341042 0.595686
vt 0.303035 0.621546
vt 0.242176 0.563895
vt 0.248098 0.512631
vt 0.249581 0.610579
vt 0.276399 0.623227
vt 0.254162 0.629862
vt 0.338335 0.586863
vt 0.321601 0.546696
vt 0.339331 0.534958
vt 0.299448 0.551404
vt 0.296839 0.505867
vt 0.304545 0.498012
vt 0.284281 0.504170
vt 0.257793 0.740126
vt 0.413975 0.696419
vt 0.399128 0.715065
vt 0.291739 0.764166
vt 0.242176 0.759467
vt 0.415106 0.724125
vt 0.435569 0.707381
vt 0.494979 0.819262
vt 0.468091 0.808271
vt 0.470169 0.778159
vt 0.505585 0.784037
vt 0.474263 0.541668
vt 0.468504 0.513501
vt 0.865256 0.750273
vt 0.881104 0.740759
vt 0.890422 0.753357
vt 0.884573 0.765412
vt 0.919483 0.683214
vt 0.872161 0.660067
vt 0.877760 0.640049
vt 0.930082 0.660532
vt 0.884365 0.622308
vt 0.935422 0.644915
vt 0.050739 0.024092
vt 0.073623 0.019266
vt 0.141207 0.018456
vt 0.157216 0.016261
vt 0.097603 0.020951
vt 0.117762 0.017880
vt 0.972061 0.705429
vt 0.983739 0.759282
vt 0.962553 0.762893
vt 0.948970 0.712742
vt 0.921828 0.765412
vt 0.918096 0.744692
vt 0.897722 0.725475
vt 0.871744 0.732862
vt 0.881059 0.707715
vt 0.925988 0.703870
vt 0.862673 0.700527
vt 0.857954 0.736901
vt 0.903874 0.227991
vt 0.900337 0.203982
vt 0.472156 0.566291
vt 0.666614 0.873376
vt 0.664832 0.877246
vt 0.690201 0.949828
vt 0.675856 0.928699
vt 0.696884 0.923000
vt 0.712234 0.934002
vt 0.565201 0.700795
vt 0.560721 0.702789
vt 0.558791 0.697586
vt 0.558527 0.779288
vt 0.559966 0.771746
vt 0.561203 0.768933
vt 0.565027 0.772385
vt 0.558527 0.692359
vt 0.664221 0.887771
vt 0.664286 0.884290
vt 0.671056 0.880023
vt 0.677455 0.880358
vt 0.900337 0.181992
vt 0.477165 0.652332
vt 0.469640 0.623880
vt 0.468091 0.598131
vt 0.673480 0.867314
vt 0.684555 0.879723
vt 0.336003 0.876281
vt 0.341847 0.901950
vt 0.326016 0.902035
vt 0.322417 0.879793
vt 0.671989 0.906875
vt 0.667631 0.892616
vt 0.698061 0.902465
vt 0.716485 0.902504
vt 0.710956 0.876197
vt 0.693768 0.844865
vt 0.948670 0.827702
vt 0.952953 0.805364
vt 0.972228 0.803255
vt 0.975582 0.827702
vt 0.365445 0.861338
vt 0.381711 0.889197
vt 0.361911 0.895662
vt 0.353393 0.871281
vt 0.569715 0.542033
vt 0.574730 0.562663
vt 0.558527 0.544052
vt 0.562048 0.540046
vt 0.951334 0.800211
vt 0.971865 0.797934
vt 0.574529 0.498012
vt 0.574730 0.516387
vt 0.564207 0.519501
vt 0.560308 0.515764
vt 0.389766 0.914459
vt 0.364588 0.924177
vt 0.345825 0.930138
vt 0.328768 0.929555
vt 0.344013 0.956296
vt 0.320728 0.951199
vt 0.366038 0.952386
vt 0.906505 0.162268
vt 0.386055 0.944999
vt 0.335099 0.862974
vt 0.345482 0.858457
vt 0.350006 0.842127
vt 0.320728 0.850637
vt 0.894937 0.862842
vt 0.897600 0.869681
vt 0.893942 0.878699
vt 0.883997 0.892449
vt 0.160022 0.940375
vt 0.168873 0.899784
vt 0.186647 0.895950
vt 0.176109 0.943187
vt 0.864128 0.900495
vt 0.857954 0.851154
vt 0.117715 0.931370
vt 0.117715 0.881603
vt 0.142063 0.885249
vt 0.137769 0.931545
vt 0.122901 0.951425
vt 0.139983 0.952625
vt 0.869731 0.919760
vt 0.885062 0.915717
vt 0.153497 0.959353
vt 0.166441 0.961266
vt 0.901819 0.901458
vt 0.894077 0.920158
vt 0.749007 0.885956
vt 0.775386 0.872952
vt 0.779765 0.909259
vt 0.762959 0.923002
vt 0.764368 0.843935
vt 0.788975 0.843935
vt 0.798940 0.881944
vt 0.751907 0.849552
vt 0.798570 0.921245
vt 0.789219 0.939528
vt 0.771403 0.940693
vt 0.141066 0.845013
vt 0.154532 0.857253
vt 0.167764 0.871306
vt 0.888635 0.797934
vt 0.916148 0.803671
vt 0.916148 0.859593
vt 0.179556 0.861127
vt 0.904006 0.872669
vt 0.898623 0.874718
vt 0.898676 0.874655
vt 0.899359 0.879044
vt 0.898615 0.874687
vt 0.898610 0.874676
vt 0.898607 0.874517
vt 0.898546 0.874771
vt 0.898615 0.874692
vt 0.898613 0.874698
vt 0.864494 0.808419
vt 0.165864 0.842127
s 1
f 5/1/1 3/2/2 2/3/3 1/4/4
f 4/5/5 105/6/6 6/7/7 7/8/8
f 77/9/9 9/10/10 8/11/11 10/12/12
f 11/13/13 12/14/14 10/12/12 8/11/11
f 12/14/14 11/13/13 14/15/15 16/16/16
f 17/17/17 14/15/15 11/13/13 13/18/18
f 18/19/19 15/20/20 14/15/15 17/17/17
f 14/15/15 15/20/20 34/21/21 16/16/16
f 19/22/22 17/17/17 13/18/18 21/23/23
f 20/24/24 18/19/19 17/17/17 19/22/22
f 22/25/25 24/26/26 20/24/24 19/22/22
f 21/23/23 23/27/27 22/25/25 19/22/22
f 25/28/28 22/25/25 23/27/27 27/29/29
f 26/30/30 24/26/26 22/25/25 25/28/28
f 26/30/30 25/28/28 28/31/31 30/32/32
f 25/28/28 27/29/29 29/33/33 28/31/31
f 29/33/33 32/34/34 31/35/35 28/31/31
f 28/31/31 31/35/35 33/36/36 30/32/32
f 12/14/14 16/16/16 31/35/35 32/34/34
f 16/16/16 34/21/21 33/36/36 31/35/35
f 34/21/21 35/37/37 30/32/32 33/36/36
f 34/21/21 15/20/20 18/19/19 35/37/37
f 24/26/26 26/30/30 30/32/32 35/37/37
f 18/19/19 20/24/24 24/26/26 35/37/37
f 32/38/34 37/39/38 38/40/39 36/41/40
f 12/14/14 32/34/34 36/42/40 10/12/12
f 39/43/41 37/39/38 32/38/34 29/44/33
f 41/45/42 42/46/43 38/40/39 37/39/38
f 39/43/41 45/47/44 40/48/45 37/39/38
f 43/49/46 41/45/42 37/39/38 40/48/45
f 43/49/46 40/48/45 45/47/44 44/50/47
f 23/51/27 21/52/23 44/50/47 45/47/44
f 46/53/48 47/54/49 23/55/27 45/56/44
f 39/57/41 49/58/50 46/53/48 45/56/44
f 46/53/48 48/59/51 55/60/52 47/54/49
f 46/53/48 49/58/50 50/61/53 48/59/51
f 51/62/54 49/58/50 39/57/41 29/63/33
f 50/61/53 49/58/50 51/62/54 52/64/55
f 27/65/29 53/66/56 51/62/54 29/63/33
f 51/62/54 53/66/56 54/67/57 52/64/55
f 27/65/29 23/68/27 47/69/49 53/66/56
f 47/69/49 55/70/52 54/67/57 53/66/56
f 55/70/52 72/71/58 56/72/59 54/67/57
f 52/64/55 54/67/57 57/73/60
f 56/72/59 57/73/60 54/67/57
f 50/61/53 52/64/55 57/73/60 58/74/61
f 60/75/62 58/74/61 57/73/60 59/76/63
f 59/76/63 57/73/60 56/72/59
f 59/76/63 61/77/64 63/78/65 60/75/62
f 62/79/66 61/77/64 59/76/63 56/72/59
f 62/79/66 65/80/67 64/81/68 61/77/64
f 64/81/68 66/82/69 63/78/65 61/77/64
f 63/78/65 66/82/69 67/83/70 69/84/71
f 69/84/71 67/83/70 68/85/72 71/86/73
f 72/87/58 70/88/74 69/84/71 71/86/73
f 63/78/65 69/84/71 70/88/74 60/75/62
f 62/79/66 56/72/59 72/71/58 71/89/73
f 65/80/67 62/79/66 71/89/73 68/90/72
f 70/88/74 72/87/58 73/91/75
f 73/91/75 72/87/58 55/60/52
f 70/88/74 73/91/75 58/74/61 60/75/62
f 48/59/51 50/61/53 58/74/61 73/91/75
f 55/60/52 48/59/51 73/91/75
f 74/92/76 75/93/77 38/40/39 42/46/43
f 38/40/39 75/93/77 76/94/78 36/41/40
f 10/12/12 36/42/40 76/95/78 77/9/9
f 84/96/79 85/97/80 93/98/81 92/99/82
f 85/97/80 78/100/83 86/101/84 93/98/81
f 78/100/83 79/102/85 87/103/86 86/101/84
f 79/102/85 80/104/87 88/105/88 87/103/86
f 80/104/87 81/106/89 89/107/90 88/105/88
f 81/106/89 82/108/91 90/109/92 89/107/90
f 82/108/91 83/110/93 91/111/94 90/109/92
f 83/110/93 84/96/79 92/99/82 91/111/94
f 84/96/79 94/112/95 78/100/83 85/97/80
f 82/108/91 94/112/95 84/96/79 83/110/93
f 81/106/89 80/104/87 94/112/95 82/108/91
f 78/100/83 94/112/95 80/104/87 79/102/85
f 74/92/76 93/98/81 86/101/84 75/93/77
f 75/93/77 86/101/84 87/103/86 76/94/78
f 92/99/82 93/98/81 74/92/76 95/113/96
f 91/111/94 92/99/82 95/113/96 1/4/4
f 88/105/88 97/114/97 76/94/78 87/103/86
f 77/9/9 76/95/78 97/115/97 96/116/98
f 9/10/10 77/9/9 96/116/98 98/117/99
f 2/3/3 90/109/92 91/111/94 1/4/4
f 89/107/90 90/109/92 2/3/3 141/118/100
f 89/107/90 141/118/100 97/114/97 88/105/88
f 96/116/98 97/115/97 141/119/100 140/120/101
f 98/117/99 96/116/98 140/120/101 7/8/8
f 7/8/8 140/120/101 147/121/102 4/5/5
f 106/122/103 101/123/104 100/124/105 99/125/106
f 100/124/105 104/126/107 102/127/108 99/125/106
f 101/123/104 143/128/109 104/126/107 100/124/105
f 99/125/106 102/127/108 103/129/110 106/122/103
f 102/127/108 104/126/107 3/130/2 105/131/6
f 104/126/107 143/128/109 2/132/3 3/130/2
f 103/129/110 102/127/108 105/131/6 4/133/5
f 119/134/111 124/135/112 128/136/113 123/137/114
f 107/138/115 113/139/116 142/140/117 101/123/104
f 113/139/116 112/141/118 111/142/119 142/140/117
f 119/134/111 123/137/114 118/143/120 114/144/121
f 106/122/103 108/145/122 107/138/115 101/123/104
f 109/146/123 108/145/122 106/122/103 110/147/124
f 131/148/125 138/149/126 134/150/127 115/151/128
f 117/152/129 136/153/130 137/154/131 129/155/132
f 133/156/133 139/157/134 138/149/126 131/148/125
f 112/158/118 109/146/123 110/147/124 111/159/119
f 143/128/109 101/123/104 142/140/117 146/160/135
f 129/155/132 137/154/131 139/157/134 133/156/133
f 131/148/125 108/145/122 109/146/123 133/156/133
f 139/157/134 135/161/136 134/150/127 138/149/126
f 131/148/125 115/151/128 114/144/121 130/162/137
f 123/137/114 128/136/113 127/163/138 122/164/139
f 123/137/114 122/164/139 117/165/129 118/143/120
f 132/166/140 118/143/120 117/165/129 129/167/132
f 117/152/129 122/168/139 121/169/141 116/170/142
f 115/151/128 120/171/143 119/134/111 114/144/121
f 116/170/142 121/169/141 120/171/143 115/151/128
f 126/172/144 121/169/141 122/168/139 127/173/138
f 125/174/145 124/135/112 119/134/111 120/171/143
f 130/162/137 114/144/121 118/143/120 132/166/140
f 130/162/137 107/138/115 108/145/122 131/148/125
f 132/166/140 113/139/116 107/138/115 130/162/137
f 133/156/133 109/146/123 112/158/118 129/155/132
f 129/167/132 112/141/118 113/139/116 132/166/140
f 137/154/131 136/153/130 135/161/136 139/157/134
f 116/170/142 135/161/136 136/153/130 117/152/129
f 135/161/136 116/170/142 115/151/128 134/150/127
f 125/174/145 120/171/143 121/169/141 126/172/144
f 111/142/119 145/175/146 146/160/135 142/140/117
f 110/147/124 144/176/147 145/177/146 111/159/119
f 106/122/103 103/129/110 144/176/147 110/147/124
f 2/132/3 143/128/109 146/160/135 141/178/100
f 141/178/100 146/160/135 145/175/146 140/179/101
f 147/180/102 140/181/101 145/177/146 144/176/147
f 103/129/110 4/133/5 147/180/102 144/176/147
f 105/182/6 3/183/2 148/184/148 151/185/149
f 6/186/7 105/187/6 151/188/149 150/189/150
f 3/183/2 5/190/1 149/191/151 148/184/148
f 171/192/152 162/193/153 164/194/154 165/195/155
f 156/196/156 157/197/157 153/198/158 152/199/159
f 157/197/157 160/200/160 155/201/161 153/198/158
f 68/85/72 67/83/70 158/202/162 160/203/160
f 65/80/67 68/90/72 160/204/160 157/205/157
f 66/82/69 64/81/68 156/206/156 159/207/163
f 67/83/70 66/82/69 159/207/163 158/202/162
f 64/81/68 65/80/67 157/205/157 156/206/156
f 160/208/160 158/209/162 154/210/164 155/211/161
f 166/212/165 167/213/166 164/194/154 162/193/153
f 170/214/167 168/215/168 163/216/169 165/195/155
f 170/214/167 165/195/155 164/194/154 167/213/166
f 159/217/163 170/214/167 167/213/166 158/209/162
f 159/217/163 156/196/156 168/215/168 170/214/167
f 156/196/156 152/199/159 169/218/170 168/215/168
f 171/192/152 165/195/155 163/216/169 161/219/171
f 154/210/164 158/209/162 167/213/166 166/212/165
f 168/215/168 169/218/170 161/219/171 163/216/169
f 198/220/172 208/221/173 184/222/174 172/223/175
f 150/189/150 151/188/149 189/224/176 203/225/177
f 207/226/178 178/227/179 175/228/180 201/229/181
f 172/230/175 185/231/182 183/232/183 193/233/184
f 211/234/185 210/235/186 200/236/187 204/237/188
f 200/236/187 210/235/186 212/238/189 205/239/190
f 195/240/191 179/241/192 176/242/193
f 178/243/194 207/244/195 199/245/196 179/241/192
f 176/242/193 179/241/192 199/245/196 205/246/197
f 210/235/186 211/234/185 195/247/198
f 195/240/191 178/243/194 179/241/192
f 174/248/199 180/249/200 195/250/201 211/251/202
f 187/252/203 184/222/174 208/221/173 196/253/204
f 225/254/205 226/255/206 197/256/207 188/257/208
f 189/224/176 190/258/209 209/259/210 203/225/177
f 206/260/211 174/248/199 211/251/202 204/261/212
f 212/238/189 210/235/186 195/247/198
f 190/258/209 188/257/208 197/256/207 209/259/210
f 175/228/180 180/249/200 181/262/213 173/263/214
f 215/264/215 214/265/216 186/266/217 216/267/218
f 202/268/219 201/229/181 175/228/180 173/263/214
f 194/269/220 193/233/184 182/270/221 191/271/222
f 177/272/223 181/262/213 180/249/200 174/248/199
f 206/260/211 192/273/224 177/272/223 174/248/199
f 183/232/183 213/274/225 182/270/221 193/233/184
f 181/262/213 177/272/223 182/270/221 213/274/225
f 191/271/222 182/270/221 177/272/223 192/273/224
f 195/250/201 180/249/200 175/228/180 178/227/179
f 186/275/217 213/274/225 183/232/183 185/231/182
f 186/275/217 214/276/216 181/262/213 213/274/225
f 148/277/148 173/263/214 181/262/213 214/276/216
f 194/269/220 198/278/172 172/230/175 193/233/184
f 202/268/219 173/263/214 148/277/148 149/279/151
f 215/280/215 216/281/218 220/282/226 219/283/227
f 189/284/176 217/285/228 218/286/229 190/287/209
f 218/288/229 221/289/230 220/290/226 216/291/218
f 220/282/226 221/292/230 222/293/231 219/283/227
f 215/294/215 219/295/227 222/296/231 217/297/228
f 221/289/230 218/288/229 217/297/228 222/296/231
f 188/298/208 190/287/209 218/286/229 223/299/232
f 224/300/233 216/267/218 186/266/217 185/301/182
f 184/302/174 224/300/233 185/301/182 172/303/175
f 216/267/218 224/300/233 223/299/232 218/286/229
f 184/302/174 187/304/203 223/299/232 224/300/233
f 187/252/203 196/253/204 226/305/206 225/306/205
f 187/304/203 225/307/205 188/298/208 223/299/232
f 215/264/215 217/285/228 228/308/234 227/309/235
f 151/310/149 148/311/148 227/309/235 228/308/234
f 215/264/215 227/309/235 148/311/148 214/265/216
f 151/310/149 228/308/234 217/285/228 189/284/176
f 233/312/236 234/313/237 246/314/238 247/315/239
f 236/316/240 235/317/241 232/318/242 231/319/243
f 235/320/241 234/313/237 233/312/236 232/321/242
f 238/322/244 237/323/245 230/324/246 229/325/247
f 237/323/245 236/316/240 231/319/243 230/324/246
f 124/326/112 125/327/145 237/323/245 238/322/244
f 127/328/138 128/329/113 234/313/237 235/320/241
f 125/327/145 126/330/144 236/316/240 237/323/245
f 126/330/144 127/331/138 235/317/241 236/316/240
f 128/329/113 124/332/112 238/333/244 234/313/237
f 169/334/170 152/335/159 240/336/248 239/337/249
f 171/338/152 239/337/249 166/339/165 162/340/153
f 239/337/249 171/338/152 161/341/171 169/334/170
f 166/339/165 239/337/249 240/336/248 154/342/164
f 152/335/159 153/343/158 155/344/161 154/342/164 240/336/248
f 229/325/247 230/324/246 242/345/250 241/346/251
f 230/324/246 231/319/243 243/347/252 242/345/250
f 233/312/236 229/348/247 241/349/251 245/350/253
f 231/319/243 232/318/242 244/351/254 243/347/252
f 248/352/255 247/353/239 251/354/256 252/355/257
f 234/313/237 238/333/244 249/356/258 246/314/238
f 229/348/247 233/312/236 247/315/239 248/357/255
f 238/333/244 229/348/247 248/357/255 249/356/258
f 251/354/256 250/358/259 254/359/260 255/360/261
f 247/353/239 246/361/238 250/358/259 251/354/256
f 246/362/238 249/363/258 253/364/262 250/365/259
f 249/363/258 248/352/255 252/355/257 253/364/262
f 254/359/260 257/366/263 256/367/264 255/360/261
f 250/365/259 253/364/262 257/366/263 254/359/260
f 253/364/262 252/355/257 256/367/264 257/366/263
f 252/355/257 251/354/256 255/360/261 256/367/264
f 233/312/236 245/350/253 244/368/254 232/321/242
f 242/345/250 243/347/252 244/351/254 245/369/253
f 241/346/251 242/345/250 245/369/253
f 5/1/1 1/4/4 258/370/265 259/371/266
f 260/372/267 7/8/8 6/7/7 346/373/268
f 320/374/269 261/375/270 8/11/11 9/10/10
f 11/13/13 8/11/11 261/375/270 262/376/271
f 262/376/271 265/377/272 263/378/273 11/13/13
f 266/379/274 13/18/275 11/13/13 263/378/273
f 267/380/276 266/379/274 263/378/273 264/381/277
f 263/378/273 265/377/272 282/382/278 264/381/277
f 268/383/279 21/23/23 13/18/275 266/379/274
f 269/384/280 268/383/279 266/379/274 267/380/276
f 270/385/281 268/383/279 269/384/280 272/386/282
f 21/23/23 268/383/279 270/385/281 271/387/283
f 273/388/284 275/389/285 271/387/283 270/385/281
f 274/390/286 273/388/284 270/385/281 272/386/282
f 274/390/286 278/391/287 276/392/288 273/388/284
f 273/388/284 276/392/288 277/393/289 275/389/285
f 277/393/289 276/392/288 279/394/290 280/395/291
f 276/392/288 278/391/287 281/396/292 279/394/290
f 262/376/271 280/395/291 279/394/290 265/377/272
f 265/377/272 279/394/290 281/396/292 282/382/278
f 282/382/278 281/396/292 278/391/287 283/397/293
f 282/382/278 283/397/293 267/380/276 264/381/277
f 272/386/282 283/397/293 278/391/287 274/390/286
f 267/380/276 283/397/293 272/386/282 269/384/280
f 280/398/291 284/399/294 286/400/295 285/401/296
f 262/376/271 261/375/270 284/402/294 280/395/291
f 287/403/297 277/404/289 280/398/291 285/401/296
f 41/45/42 285/401/296 286/400/295 42/46/43
f 287/403/297 285/401/296 288/405/298 289/406/299
f 43/49/46 288/405/298 285/401/296 41/45/42
f 43/49/46 44/50/47 289/406/299 288/405/298
f 271/407/283 289/406/299 44/50/47 21/52/23
f 290/408/300 289/409/299 271/410/283 291/411/301
f 287/412/297 289/409/299 290/408/300 293/413/302
f 290/408/300 291/411/301 299/414/303 292/415/304
f 290/408/300 292/415/304 294/416/305 293/413/302
f 295/417/306 277/418/289 287/412/297 293/413/302
f 294/416/305 296/419/307 295/417/306 293/413/302
f 275/420/285 277/418/289 295/417/306 297/421/308
f 295/417/306 296/419/307 298/422/309 297/421/308
f 275/420/285 297/421/308 291/423/301 271/424/283
f 291/423/301 297/421/308 298/422/309 299/425/303
f 299/425/303 298/422/309 300/426/310 316/427/311
f 296/419/307 301/428/312 298/422/309
f 300/426/310 298/422/309 301/428/312
f 294/416/305 302/429/313 301/428/312 296/419/307
f 304/430/314 303/431/315 301/428/312 302/429/313
f 303/431/315 300/426/310 301/428/312
f 303/431/315 304/430/314 307/432/316 305/433/317
f 306/434/318 300/426/310 303/431/315 305/433/317
f 306/434/318 305/433/317 308/435/319 309/436/320
f 308/435/319 305/433/317 307/432/316 310/437/321
f 307/432/316 313/438/322 311/439/323 310/437/321
f 313/438/322 315/440/324 312/441/325 311/439/323
f 316/442/311 315/440/324 313/438/322 314/443/326
f 307/432/316 304/430/314 314/443/326 313/438/322
f 306/434/318 315/444/324 316/427/311 300/426/310
f 309/436/320 312/445/325 315/444/324 306/434/318
f 314/443/326 317/446/327 316/442/311
f 317/446/327 299/414/303 316/442/311
f 314/443/326 304/430/314 302/429/313 317/446/327
f 292/415/304 317/446/327 302/429/313 294/416/305
f 299/414/303 317/446/327 292/415/304
f 74/92/76 42/46/43 286/400/295 318/447/328
f 286/400/295 284/399/294 319/448/329 318/447/328
f 261/375/270 320/374/269 319/449/329 284/402/294
f 327/450/330 335/451/331 336/452/332 328/453/333
f 328/453/333 336/452/332 329/454/334 321/455/335
f 321/455/335 329/454/334 330/456/336 322/457/337
f 322/457/337 330/456/336 331/458/338 323/459/339
f 323/459/339 331/458/338 332/460/340 324/461/341
f 324/461/341 332/460/340 333/462/342 325/463/343
f 325/463/343 333/462/342 334/464/344 326/465/345
f 326/465/345 334/464/344 335/451/331 327/450/330
f 327/450/330 328/453/333 321/455/335 337/466/346
f 325/463/343 326/465/345 327/450/330 337/466/346
f 324/461/341 325/463/343 337/466/346 323/459/339
f 321/455/335 322/457/337 323/459/339 337/466/346
f 74/92/76 318/447/328 329/454/334 336/452/332
f 318/447/328 319/448/329 330/456/336 329/454/334
f 335/451/331 95/113/96 74/92/76 336/452/332
f 334/464/344 1/4/4 95/113/96 335/451/331
f 331/458/338 330/456/336 319/448/329 339/467/347
f 320/374/269 338/468/348 339/469/347 319/449/329
f 9/10/10 98/117/99 338/468/348 320/374/269
f 258/370/265 1/4/4 334/464/344 333/462/342
f 332/460/340 382/470/349 258/370/265 333/462/342
f 332/460/340 331/458/338 339/467/347 382/470/349
f 338/468/348 381/471/350 382/472/349 339/469/347
f 98/117/99 7/8/8 381/471/350 338/468/348
f 7/8/8 260/372/267 388/473/351 381/471/350
f 347/474/352 340/475/353 341/476/354 342/477/355
f 341/476/354 340/475/353 343/478/356 345/479/357
f 342/477/355 341/476/354 345/479/357 384/480/358
f 340/475/353 347/474/352 344/481/359 343/478/356
f 343/478/356 346/482/268 259/483/266 345/479/357
f 345/479/357 259/483/266 258/484/265 384/480/358
f 344/481/359 260/485/267 346/482/268 343/478/356
f 360/486/360 364/487/361 369/488/362 365/489/363
f 348/490/364 342/477/355 383/491/365 354/492/366
f 354/492/366 383/491/365 352/493/367 353/494/368
f 360/486/360 355/495/369 359/496/370 364/487/361
f 347/474/352 342/477/355 348/490/364 349/497/371
f 350/498/372 351/499/373 347/474/352 349/497/371
f 372/500/374 356/501/375 375/502/376 379/503/377
f 358/504/378 370/505/379 378/506/380 377/507/381
f 374/508/382 372/500/374 379/503/377 380/509/383
f 353/510/368 352/511/367 351/499/373 350/498/372
f 384/480/358 387/512/384 383/491/365 342/477/355
f 370/505/379 374/508/382 380/509/383 378/506/380
f 372/500/374 374/508/382 350/498/372 349/497/371
f 380/509/383 379/503/377 375/502/376 376/513/385
f 372/500/374 371/514/386 355/495/369 356/501/375
f 364/487/361 363/515/387 368/516/388 369/488/362
f 364/487/361 359/496/370 358/517/378 363/515/387
f 373/518/389 370/519/379 358/517/378 359/496/370
f 358/504/378 357/520/390 362/521/391 363/522/387
f 356/501/375 355/495/369 360/486/360 361/523/392
f 357/520/390 356/501/375 361/523/392 362/521/391
f 367/524/393 368/525/388 363/522/387 362/521/391
f 366/526/394 361/523/392 360/486/360 365/489/363
f 371/514/386 373/518/389 359/496/370 355/495/369
f 371/514/386 372/500/374 349/497/371 348/490/364
f 373/518/389 371/514/386 348/490/364 354/492/366
f 374/508/382 370/505/379 353/510/368 350/498/372
f 370/519/379 373/518/389 354/492/366 353/494/368
f 378/506/380 380/509/383 376/513/385 377/507/381
f 357/520/390 358/504/378 377/507/381 376/513/385
f 376/513/385 375/502/376 356/501/375 357/520/390
f 366/526/394 367/524/393 362/521/391 361/523/392
f 352/493/367 383/491/365 387/512/384 386/527/395
f 351/499/373 352/511/367 386/528/395 385/529/396
f 347/474/352 351/499/373 385/529/396 344/481/359
f 258/484/265 382/530/349 387/512/384 384/480/358
f 382/530/349 381/531/350 386/527/395 387/512/384
f 388/532/351 385/529/396 386/528/395 381/533/350
f 344/481/359 385/529/396 388/532/351 260/485/267
f 346/534/268 390/535/397 389/536/398 259/537/266
f 6/186/7 150/189/150 390/538/397 346/539/268
f 259/537/266 389/536/398 149/191/151 5/190/1
f 410/540/399 404/541/400 403/542/401 401/543/402
f 395/544/403 391/545/404 392/546/405 396/547/406
f 396/547/406 392/546/405 394/548/407 399/549/408
f 312/441/325 399/550/408 397/551/409 311/439/323
f 309/436/320 396/552/406 399/553/408 312/445/325
f 310/437/321 398/554/410 395/555/403 308/435/319
f 311/439/323 397/551/409 398/554/410 310/437/321
f 308/435/319 395/555/403 396/552/406 309/436/320
f 399/556/408 394/557/407 393/558/411 397/559/409
f 405/560/412 401/543/402 403/542/401 406/561/413
f 409/562/414 404/541/400 402/563/415 407/564/416
f 409/562/414 406/561/413 403/542/401 404/541/400
f 398/565/410 397/559/409 406/561/413 409/562/414
f 398/565/410 409/562/414 407/564/416 395/544/403
f 395/544/403 407/564/416 408/566/417 391/545/404
f 410/540/399 400/567/418 402/563/415 404/541/400
f 393/558/411 405/560/412 406/561/413 397/559/409
f 407/564/416 402/563/415 400/567/418 408/566/417
f 198/220/172 411/568/419 423/569/420 208/221/173
f 150/189/150 203/225/177 428/570/421 390/538/397
f 207/226/178 201/229/181 414/571/422 417/572/423
f 411/573/419 430/574/424 422/575/425 424/576/426
f 433/577/427 204/237/188 200/236/187 432/578/428
f 200/236/187 205/239/190 434/579/429 432/578/428
f 431/580/430 415/581/431 418/582/432
f 417/583/433 418/582/432 199/245/196 207/244/195
f 415/581/431 205/246/197 199/245/196 418/582/432
f 432/578/428 431/584/434 433/577/427
f 431/580/430 418/582/432 417/583/433
f 413/585/435 433/586/436 431/587/437 419/588/438
f 426/589/439 196/253/204 208/221/173 423/569/420
f 447/590/440 427/591/441 197/256/207 226/255/206
f 428/570/421 203/225/177 209/259/210 429/592/442
f 206/260/211 204/261/212 433/586/436 413/585/435
f 434/579/429 431/584/434 432/578/428
f 429/592/442 209/259/210 197/256/207 427/591/441
f 414/571/422 412/593/443 420/594/444 419/588/438
f 437/595/445 438/596/446 425/597/447 436/598/448
f 202/268/219 412/593/443 414/571/422 201/229/181
f 194/269/220 191/271/222 421/599/449 430/574/424
f 416/600/450 413/585/435 419/588/438 420/594/444
f 206/260/211 413/585/435 416/600/450 192/273/224
f 422/575/425 430/574/424 421/599/449 435/601/451
f 420/594/444 435/601/451 421/599/449 416/600/450
f 191/271/222 192/273/224 416/600/450 421/599/449
f 431/587/437 417/572/423 414/571/422 419/588/438
f 425/602/447 424/576/426 422/575/425 435/601/451
f 425/602/447 435/601/451 420/594/444 436/603/448
f 389/604/398 436/603/448 420/594/444 412/593/443
f 194/269/220 430/574/424 411/573/419 198/278/172
f 202/268/219 149/279/151 389/604/398 412/593/443
f 437/605/445 441/606/452 442/607/453 438/608/446
f 428/609/421 429/610/442 440/611/454 439/612/455
f 440/613/454 438/614/446 442/615/453 443/616/456
f 442/607/453 441/606/452 444/617/457 443/618/456
f 437/619/445 439/620/455 444/621/457 441/622/452
f 443/616/456 444/621/457 439/620/455 440/613/454
f 427/623/441 445/624/458 440/611/454 429/610/442
f 446/625/459 424/626/426 425/597/447 438/596/446
f 423/627/420 411/628/419 424/626/426 446/625/459
f 438/596/446 440/611/454 445/624/458 446/625/459
f 423/627/420 446/625/459 445/624/458 426/629/439
f 426/589/439 447/630/440 226/305/206 196/253/204
f 426/629/439 445/624/458 427/623/441 447/631/440
f 437/595/445 448/632/460 449/633/461 439/612/455
f 390/634/397 449/633/461 448/632/460 389/635/398
f 437/595/445 436/598/448 389/635/398 448/632/460
f 390/634/397 428/609/421 439/612/455 449/633/461
f 454/636/462 468/637/463 467/638/464 455/639/465
f 457/640/466 452/641/467 453/642/468 456/643/469
f 456/644/469 453/645/468 454/636/462 455/639/465
f 459/646/470 450/647/471 451/648/472 458/649/473
f 458/649/473 451/648/472 452/641/467 457/640/466
f 365/650/363 459/646/470 458/649/473 366/651/394
f 368/652/388 456/644/469 455/639/465 369/653/362
f 366/651/394 458/649/473 457/640/466 367/654/393
f 367/654/393 457/640/466 456/643/469 368/655/388
f 369/653/362 455/639/465 459/656/470 365/657/363
f 408/658/417 460/659/474 461/660/475 391/661/404
f 410/662/399 401/663/402 405/664/412 460/659/474
f 460/659/474 408/658/417 400/665/418 410/662/399
f 405/664/412 393/666/411 461/660/475 460/659/474
f 391/661/404 461/660/475 393/666/411 394/667/407 392/668/405
f 450/647/471 462/669/476 463/670/477 451/648/472
f 451/648/472 463/670/477 464/671/478 452/641/467
f 454/636/462 466/672/479 462/673/476 450/674/471
f 452/641/467 464/671/478 465/675/480 453/642/468
f 469/676/481 473/677/482 472/678/483 468/637/463
f 455/639/465 467/638/464 470/679/484 459/656/470
f 450/674/471 469/676/481 468/637/463 454/636/462
f 459/656/470 470/679/484 469/676/481 450/674/471
f 472/678/483 476/680/485 475/681/486 471/682/487
f 468/637/463 472/678/483 471/682/487 467/638/464
f 467/638/464 471/682/487 474/683/488 470/679/484
f 470/679/484 474/683/488 473/677/482 469/676/481
f 475/681/486 476/680/485 477/684/489 478/685/490
f 471/682/487 475/681/486 478/685/490 474/683/488
f 474/683/488 478/685/490 477/684/489 473/677/482
f 473/677/482 477/684/489 476/680/485 472/678/483
f 454/636/462 453/645/468 465/686/480 466/672/479
f 463/670/477 466/687/479 465/675/480 464/671/478
f 462/669/476 466/687/479 463/670/477
