# Blender 4.2.1 LTS
# www.blender.org
o Body
v 0.000000 1.221313 0.104252
v -0.074671 1.241856 0.071833
v -0.046400 1.320684 0.050937
v -0.074898 1.267501 -0.044891
v 0.000000 1.300114 0.077703
v 0.000000 1.316808 -0.027538
v 0.000000 1.264412 -0.047216
v 0.000000 1.028743 -0.018807
v 0.000000 1.082983 -0.022331
v -0.060413 1.017881 -0.008010
v 0.000000 0.916380 -0.043651
v -0.065411 0.952606 -0.024365
v 0.000000 0.854677 -0.039994
v -0.017820 0.897310 -0.054214
v -0.029422 0.878012 -0.067079
v -0.061849 0.920990 -0.044519
v -0.012923 0.854273 -0.049046
v -0.029493 0.854900 -0.066475
v -0.017303 0.819421 -0.042734
v -0.032688 0.829942 -0.060568
v 0.000000 0.805635 -0.025528
v -0.044554 0.791673 -0.037023
v -0.034761 0.761409 -0.013577
v -0.055114 0.822927 -0.064235
v -0.093800 0.795775 -0.046055
v -0.079751 0.824313 -0.062749
v -0.107898 0.772422 -0.034207
v -0.123082 0.828455 -0.019147
v -0.153593 0.801040 0.016254
v -0.088121 0.850375 -0.060057
v -0.107100 0.896929 -0.014206
v -0.132307 0.913522 0.029194
v -0.082062 0.879117 -0.056306
v -0.058333 0.889300 -0.067869
v -0.056124 0.857709 -0.070633
v -0.092142 1.014870 0.034139
v -0.093904 0.882185 0.118404
v -0.061636 1.007686 0.095224
v -0.100888 0.791782 0.119829
v -0.049711 0.836642 0.102801
v 0.000000 0.921277 0.137015
v 0.000000 1.022347 0.112050
v 0.000000 0.856358 0.114713
v 0.000000 0.808315 0.099962
v -0.024269 0.774658 0.085455
v -0.015761 0.619907 0.068828
v -0.029702 0.617628 -0.021758
v -0.051168 0.455342 0.041120
v -0.110507 0.612088 0.125683
v -0.096095 0.458114 0.077885
v -0.162779 0.622573 0.033267
v -0.126885 0.454691 0.024529
v -0.105367 0.622381 -0.041410
v -0.096126 0.446195 -0.016349
v -0.062167 0.444687 -0.008834
v -0.101558 0.397635 -0.016928
v -0.120843 0.427258 0.027428
v -0.090684 0.430616 0.075244
v -0.117215 0.394863 0.020779
v -0.088644 0.391362 0.059055
v -0.133366 0.296212 0.012746
v -0.112314 0.308515 -0.035125
v -0.087183 0.297752 0.069416
v -0.107238 0.172756 -0.001834
v -0.093322 0.176138 -0.033509
v -0.083520 0.168965 0.024683
v -0.058382 0.172894 0.001226
v -0.070017 0.175143 -0.029970
v -0.038323 0.301483 0.017083
v -0.051745 0.391096 0.020151
v -0.053345 0.305880 -0.024642
v -0.062590 0.395765 -0.009260
v -0.046625 0.427508 0.032046
v 0.000000 1.086902 0.110951
v -0.055165 1.075117 0.094074
v -0.083001 1.080260 0.042998
v -0.054035 1.078738 -0.011012
v -0.071393 1.132217 0.116177
v -0.084422 1.135867 0.097578
v -0.087346 1.153962 0.100096
v -0.084842 1.172241 0.095173
v -0.070039 1.178818 0.114388
v -0.047405 1.174693 0.121264
v -0.049345 1.156476 0.127881
v -0.050006 1.134590 0.121947
v -0.056993 1.112716 0.101528
v -0.079122 1.121332 0.069342
v -0.081706 1.150185 0.066506
v -0.084120 1.188049 0.075242
v -0.063335 1.203626 0.097967
v -0.029536 1.190329 0.113447
v -0.019277 1.156346 0.121207
v -0.025705 1.119880 0.112824
v -0.073263 1.158007 0.122460
v 0.000000 1.155069 0.121608
v -0.056456 1.150228 -0.026164
v -0.084985 1.145665 0.038011
v 0.000000 1.178772 -0.041772
v -0.165910 1.271624 -0.012380
v -0.167525 1.266837 0.010804
v -0.179599 1.231982 0.025157
v -0.128872 1.290219 -0.010801
v -0.126584 1.258818 -0.034994
v -0.130148 1.282856 0.026648
v -0.045696 1.333438 -0.013316
v -0.176959 1.239816 -0.034477
v -0.231873 1.161661 0.008238
v -0.230489 1.168654 -0.040645
v -0.199650 1.151960 -0.057371
v -0.158369 1.208427 -0.047625
v -0.145702 1.179743 -0.025009
v -0.184129 1.125553 -0.028862
v -0.196946 1.131364 0.010697
v -0.278409 1.063883 0.004889
v -0.281202 1.066534 -0.033467
v -0.255408 1.047036 -0.059108
v -0.237530 1.037454 -0.032892
v -0.252774 1.045705 0.007321
v -0.321447 0.996751 0.018172
v -0.326633 0.997203 -0.019851
v -0.296407 0.984054 -0.049366
v -0.275297 0.972585 -0.019688
v -0.289244 0.979708 0.017910
v -0.349161 0.915497 0.015728
v -0.353956 0.913828 -0.009285
v -0.339296 0.916447 -0.024950
v -0.328754 0.908596 -0.010488
v -0.339271 0.907467 0.012733
v -0.221449 1.065354 -0.034159
v -0.265489 1.095894 -0.002995
v -0.266620 1.099535 -0.040309
v -0.235051 1.070281 0.000821
v -0.233596 1.088409 -0.060573
v -0.265557 1.072138 -0.050478
v -0.248638 1.059853 -0.065833
v -0.235397 1.049430 -0.042958
v -0.228883 1.060995 -0.043835
v -0.260407 1.084796 -0.052494
v -0.240167 1.076618 -0.067783
v -0.065717 1.191206 -0.030134
v -0.097353 1.200542 0.046945
v -0.157889 1.186646 0.021846
v -0.137298 1.247402 0.042772
v -0.111869 1.227104 -0.042244
v -0.105439 1.194313 -0.023635
v -0.120297 1.201803 0.036828
v -0.084485 1.227471 -0.043379
v -0.037972 1.370477 0.058939
v 0.000000 1.353336 0.081269
v 0.000000 1.369673 -0.007673
v -0.036390 1.375773 0.001373
v -0.102646 0.000248 -0.012607
v -0.088113 -0.000972 -0.044459
v -0.043963 0.001110 -0.006802
v -0.057616 -0.000559 -0.040841
v -0.105888 0.080655 0.000909
v -0.089701 0.086203 -0.037600
v -0.050370 0.082414 0.003131
v -0.082106 0.083466 0.027576
v -0.065304 0.085873 -0.034626
v -0.123906 0.004172 0.120115
v -0.064328 0.005611 0.131931
v -0.122968 0.027621 0.113466
v -0.064424 0.029398 0.125229
v -0.099307 0.039847 0.122494
v -0.045781 0.006062 0.064073
v -0.048707 0.038953 0.065533
v -0.126419 0.034360 0.058946
v -0.126872 0.003273 0.054111
v -0.092149 0.050455 0.077434
v -0.104464 0.006696 0.130745
v -0.032308 1.508810 0.106882
v -0.026501 1.365623 0.108734
v -0.007084 1.403259 0.133643
v -0.016142 1.376990 0.119801
v -0.009818 1.386000 0.124899
v -0.016810 1.415339 0.131136
v -0.011035 1.380775 0.128616
v -0.005338 1.388441 0.131273
v -0.031448 1.395682 0.115078
v -0.051306 1.413272 0.105411
v -0.008830 1.438085 0.125012
v -0.051351 1.464058 0.109753
v -0.040787 1.535244 0.071914
v -0.061127 1.488080 0.090925
v -0.063575 1.445295 0.075946
v -0.041031 1.541108 0.021299
v -0.047330 1.498962 -0.027714
v -0.040759 1.403850 -0.013900
v -0.049068 1.455477 -0.027996
v 0.000000 1.440930 0.131229
v -0.018068 1.466386 0.124273
v -0.000000 1.470555 0.133360
v -0.021302 1.392176 0.124146
v 0.000000 1.553295 0.023175
v 0.000000 1.496492 -0.042307
v 0.000000 1.513488 0.116219
v 0.000000 1.387627 0.132370
v 0.000000 1.388473 0.131783
v 0.000000 1.368651 0.127166
v 0.000000 1.353802 0.124539
v 0.000000 1.404048 -0.027266
v 0.000000 1.392348 0.125547
v 0.000000 1.378341 0.131300
v 0.000000 1.547162 0.078443
v 0.000000 1.450300 -0.042290
v -0.005795 1.389214 0.133215
v -0.006328 1.396169 0.135938
v -0.008819 1.392887 0.124292
v -0.057933 1.439542 0.097211
v -0.057813 1.411788 0.069703
v -0.058449 1.407692 0.043331
v -0.066094 1.449712 0.046300
v -0.053448 1.411745 0.010580
v -0.064020 1.454893 0.006694
v -0.070653 1.422914 0.004845
v -0.077107 1.454981 0.004049
v -0.069452 1.455678 -0.000952
v -0.063293 1.420495 -0.000220
v -0.064333 1.504436 0.013625
v -0.066119 1.502873 0.060433
v -0.031339 1.530634 -0.015798
v 0.000000 1.535883 -0.023000
v -0.050630 1.392137 0.038299
v -0.047983 1.393146 0.015586
v -0.376537 0.823682 0.056058
v -0.388606 0.816421 0.013197
v -0.361669 0.822936 -0.032699
v -0.345111 0.810827 -0.015542
v -0.356246 0.826168 0.042813
v -0.339045 0.873288 0.017028
v -0.328416 0.880076 -0.013918
v -0.344634 0.887996 -0.032604
v -0.366899 0.887076 -0.000094
v -0.359487 0.891181 0.030502
v -0.088204 0.006858 0.067792
v -0.075458 0.002682 0.013392
v -0.394402 0.757560 0.047932
v -0.402676 0.757242 0.015812
v -0.379411 0.770827 -0.025226
v -0.360614 0.759847 -0.009547
v -0.370029 0.746287 0.023599
v -0.337446 0.851248 0.042327
v -0.350421 0.830521 0.050176
v -0.355052 0.834942 0.061793
v -0.344584 0.852118 0.058052
v -0.330773 0.824118 0.065413
v -0.348862 0.816228 0.063611
v -0.352522 0.818574 0.079450
v -0.339489 0.828498 0.082718
v -0.331977 0.796382 0.081853
v -0.345283 0.792910 0.079848
v -0.346731 0.795395 0.085597
v -0.335364 0.798977 0.088687
v 0.074671 1.241856 0.071833
v 0.046400 1.320684 0.050937
v 0.074898 1.267501 -0.044891
v 0.060413 1.017881 -0.008010
v 0.065411 0.952606 -0.024365
v 0.017820 0.897310 -0.054214
v 0.029422 0.878012 -0.067079
v 0.061849 0.920990 -0.044519
v 0.012923 0.854273 -0.049046
v 0.029493 0.854900 -0.066475
v 0.017303 0.819421 -0.042734
v 0.032688 0.829942 -0.060568
v 0.044554 0.791673 -0.037023
v 0.034761 0.761409 -0.013577
v 0.055114 0.822927 -0.064235
v 0.093800 0.795775 -0.046055
v 0.079751 0.824313 -0.062749
v 0.107898 0.772422 -0.034207
v 0.123082 0.828455 -0.019147
v 0.153593 0.801040 0.016254
v 0.088121 0.850375 -0.060057
v 0.107100 0.896929 -0.014206
v 0.132307 0.913522 0.029194
v 0.082062 0.879117 -0.056306
v 0.058333 0.889300 -0.067869
v 0.056124 0.857709 -0.070633
v 0.092142 1.014870 0.034139
v 0.093904 0.882185 0.118404
v 0.061636 1.007686 0.095224
v 0.100888 0.791782 0.119829
v 0.049711 0.836642 0.102801
v 0.024269 0.774658 0.085455
v 0.015761 0.619907 0.068828
v 0.029702 0.617628 -0.021758
v 0.051168 0.455342 0.041120
v 0.110507 0.612088 0.125683
v 0.096095 0.458114 0.077885
v 0.162779 0.622573 0.033267
v 0.126885 0.454691 0.024529
v 0.105367 0.622381 -0.041410
v 0.096126 0.446195 -0.016349
v 0.062167 0.444687 -0.008834
v 0.101558 0.397635 -0.016928
v 0.120843 0.427258 0.027428
v 0.090684 0.430616 0.075244
v 0.117215 0.394863 0.020779
v 0.088644 0.391362 0.059055
v 0.133366 0.296212 0.012746
v 0.112314 0.308515 -0.035125
v 0.087183 0.297752 0.069416
v 0.107238 0.172756 -0.001834
v 0.093322 0.176138 -0.033509
v 0.083520 0.168965 0.024683
v -0.028623 1.432513 0.114374
v -0.036724 1.432852 0.111824
v -0.039833 1.437934 0.111263
v -0.036610 1.443019 0.113157
v -0.029789 1.443550 0.115157
v -0.025307 1.437801 0.115797
v 0.058382 0.172894 0.001226
v 0.070017 0.175143 -0.029970
v 0.038323 0.301483 0.017083
v 0.051745 0.391096 0.020151
v 0.053345 0.305880 -0.024642
v 0.062590 0.395765 -0.009260
v 0.046625 0.427508 0.032046
v 0.055165 1.075117 0.094074
v 0.083001 1.080260 0.042998
v 0.054035 1.078738 -0.011012
v 0.071393 1.132217 0.116177
v 0.084422 1.135867 0.097578
v 0.087346 1.153962 0.100096
v -0.019560 1.438617 0.115993
v -0.026593 1.451095 0.118280
v 0.084842 1.172241 0.095173
v 0.070039 1.178818 0.114388
v 0.047405 1.174693 0.121264
v 0.049345 1.156476 0.127881
v 0.050006 1.134590 0.121947
v 0.056993 1.112716 0.101528
v 0.079122 1.121332 0.069342
v 0.081706 1.150185 0.066506
v 0.084120 1.188049 0.075242
v 0.063335 1.203626 0.097967
v 0.029536 1.190329 0.113447
v 0.019277 1.156346 0.121207
v 0.025705 1.119880 0.112824
v 0.073263 1.158007 0.122460
v 0.056456 1.150228 -0.026164
v 0.084985 1.145665 0.038011
v 0.165910 1.271624 -0.012380
v 0.167525 1.266837 0.010804
v 0.179599 1.231982 0.025157
v 0.128872 1.290219 -0.010801
v 0.126584 1.258818 -0.034994
v 0.130148 1.282856 0.026648
v 0.045696 1.333438 -0.013316
v 0.176959 1.239816 -0.034477
v 0.231873 1.161661 0.008238
v 0.230489 1.168654 -0.040645
v 0.199650 1.151960 -0.057371
v 0.158369 1.208427 -0.047625
v 0.145702 1.179743 -0.025009
v 0.184129 1.125553 -0.028862
v 0.196946 1.131364 0.010697
v 0.278409 1.063883 0.004889
v 0.281202 1.066534 -0.033467
v 0.255408 1.047036 -0.059108
v 0.237530 1.037454 -0.032892
v 0.252774 1.045705 0.007321
v 0.321447 0.996751 0.018172
v 0.326633 0.997203 -0.019851
v 0.296407 0.984054 -0.049366
v 0.275297 0.972585 -0.019688
v 0.289244 0.979708 0.017910
v 0.349161 0.915497 0.015728
v 0.353956 0.913828 -0.009285
v 0.339296 0.916447 -0.024950
v 0.328754 0.908596 -0.010488
v 0.339271 0.907467 0.012733
v 0.221449 1.065354 -0.034159
v 0.265489 1.095894 -0.002995
v 0.266620 1.099535 -0.040309
v 0.235051 1.070281 0.000821
v 0.233596 1.088409 -0.060573
v 0.265557 1.072138 -0.050478
v 0.248638 1.059853 -0.065833
v 0.235397 1.049430 -0.042958
v 0.228883 1.060995 -0.043835
v 0.260407 1.084796 -0.052494
v 0.240167 1.076618 -0.067783
v 0.065717 1.191206 -0.030134
v 0.097353 1.200542 0.046945
v 0.000000 1.394564 0.134423
v 0.157889 1.186646 0.021846
v 0.137298 1.247402 0.042772
v 0.111869 1.227104 -0.042244
v 0.105439 1.194313 -0.023635
v 0.120297 1.201803 0.036828
v 0.084485 1.227471 -0.043379
v 0.037972 1.370477 0.058939
v 0.036390 1.375773 0.001373
v 0.102646 0.000248 -0.012607
v 0.088113 -0.000972 -0.044459
v 0.043963 0.001110 -0.006802
v 0.057616 -0.000559 -0.040841
v 0.105888 0.080655 0.000909
v 0.089701 0.086203 -0.037600
v 0.050370 0.082414 0.003131
v 0.082106 0.083466 0.027576
v 0.065304 0.085873 -0.034626
v 0.123906 0.004172 0.120115
v 0.064328 0.005611 0.131931
v 0.122968 0.027621 0.113466
v 0.064424 0.029398 0.125229
v 0.099307 0.039847 0.122494
v 0.045781 0.006062 0.064073
v 0.048707 0.038953 0.065533
v 0.126419 0.034360 0.058946
v 0.126872 0.003273 0.054111
v 0.092149 0.050455 0.077434
v 0.104464 0.006696 0.130745
v 0.032308 1.508810 0.106882
v 0.026501 1.365623 0.108734
v 0.007084 1.403259 0.133643
v 0.016142 1.376990 0.119801
v 0.000000 1.399831 0.133550
v 0.009818 1.386000 0.124899
v 0.016809 1.415339 0.131136
v 0.011035 1.380775 0.128616
v 0.005338 1.388441 0.131273
v 0.031448 1.395682 0.115078
v 0.051306 1.413272 0.105411
v 0.008830 1.438085 0.125012
v 0.051351 1.464058 0.109753
v 0.040787 1.535244 0.071914
v 0.061127 1.488080 0.090925
v 0.063575 1.445295 0.075946
v 0.041031 1.541108 0.021299
v 0.047330 1.498962 -0.027714
v 0.040759 1.403850 -0.013900
v 0.049068 1.455477 -0.027996
v 0.018068 1.466386 0.124273
v 0.021302 1.392176 0.124146
v 0.005795 1.389214 0.133215
v 0.006328 1.396169 0.135938
v 0.008819 1.392887 0.124292
v 0.057933 1.439542 0.097211
v 0.057813 1.411788 0.069703
v 0.058449 1.407692 0.043331
v 0.066094 1.449712 0.046300
v 0.053448 1.411745 0.010580
v 0.064020 1.454893 0.006694
v 0.070653 1.422914 0.004845
v 0.077107 1.454981 0.004049
v 0.069452 1.455678 -0.000952
v 0.063293 1.420495 -0.000220
v 0.064333 1.504436 0.013625
v 0.066119 1.502873 0.060433
v 0.031339 1.530634 -0.015798
v 0.050630 1.392137 0.038299
v 0.047983 1.393146 0.015586
v 0.376537 0.823682 0.056058
v 0.388606 0.816421 0.013197
v 0.361669 0.822936 -0.032699
v 0.345111 0.810827 -0.015542
v 0.356246 0.826168 0.042813
v 0.339045 0.873288 0.017028
v 0.328416 0.880076 -0.013918
v 0.344634 0.887996 -0.032604
v 0.366899 0.887076 -0.000094
v 0.359487 0.891181 0.030502
v 0.088204 0.006858 0.067792
v 0.075458 0.002682 0.013392
v 0.394402 0.757560 0.047932
v 0.402676 0.757242 0.015812
v -0.000000 1.416894 0.148099
v 0.379411 0.770827 -0.025226
v 0.360614 0.759847 -0.009547
v 0.370029 0.746287 0.023599
v 0.337446 0.851248 0.042327
v 0.350421 0.830521 0.050176
v 0.355052 0.834942 0.061793
v 0.344584 0.852118 0.058052
v 0.330773 0.824118 0.065413
v 0.348862 0.816228 0.063611
v 0.352522 0.818574 0.079450
v 0.339489 0.828498 0.082718
v 0.331977 0.796382 0.081853
v 0.345283 0.792910 0.079848
v 0.346731 0.795395 0.085597
v 0.335364 0.798977 0.088687
v 0.024768 1.430616 0.114728
v 0.037878 1.428568 0.106568
v 0.038998 1.447072 0.108785
v 0.026334 1.447472 0.114122
v 0.028623 1.432513 0.114374
v 0.036724 1.432852 0.111824
v 0.039833 1.437934 0.111263
v 0.036610 1.443019 0.113157
v 0.029789 1.443550 0.115157
v 0.025307 1.437801 0.115797
v 0.045334 1.437983 0.102212
v 0.050755 1.439355 0.105005
v 0.024555 1.429598 0.116781
v 0.040089 1.427481 0.107154
v -0.024768 1.430616 0.114728
v -0.037878 1.428568 0.106568
v -0.038998 1.447072 0.108785
v -0.026334 1.447472 0.114122
v -0.045334 1.437983 0.102212
v -0.050755 1.439355 0.105005
v -0.041562 1.450441 0.111890
v -0.024555 1.429598 0.116781
v -0.040089 1.427481 0.107154
v 0.019560 1.438617 0.115993
v 0.041562 1.450441 0.111890
v 0.026593 1.451095 0.118280
v -0.020481 1.386872 0.110889
v 0.000000 1.387220 0.121333
v -0.020481 1.399460 0.110864
v 0.020481 1.386872 0.110889
v 0.020481 1.399460 0.110864
v 0.000000 1.399808 0.121308
v -0.020481 1.374862 0.110889
v 0.000000 1.375210 0.121333
v -0.020481 1.385915 0.110864
v 0.020481 1.374862 0.110889
v 0.020481 1.385915 0.110864
v 0.000000 1.386263 0.121308
v 0.000000 1.385062 0.126888
v -0.000002 1.370309 0.113742
v 0.023487 1.412251 0.066917
v -0.016624 1.408240 0.110229
v 0.027588 1.371860 0.065486
v 0.029815 1.398851 0.109769
v -0.000087 1.417067 0.070054
v -0.019881 1.375835 0.109411
v -0.029779 1.398845 0.109800
v -0.036714 1.400336 0.076103
v -0.028066 1.371765 0.065313
v 0.036939 1.400373 0.076017
v -0.000000 1.411129 0.112136
v -0.023971 1.412206 0.066853
v 0.019861 1.375836 0.109433
v 0.016606 1.408235 0.110244
v -0.000089 1.363757 0.072172
v 0.012866 1.389951 0.051506
v -0.000567 1.390639 0.051388
v -0.014167 1.389716 0.051360
v -0.026593 1.451095 0.118280
v 0.050755 1.439355 0.105005
v 0.024555 1.429598 0.116781
v 0.040089 1.427481 0.107154
v -0.050755 1.439355 0.105005
v -0.041562 1.450441 0.111890
v -0.024555 1.429598 0.116781
v -0.040089 1.427481 0.107154
v 0.041562 1.450441 0.111890
v 0.026593 1.451095 0.118280
vn -0.0000 0.2058 0.9786
vn -0.6675 0.3985 0.6290
vn -0.4685 0.2556 0.8456
vn -0.0000 0.3830 0.9238
vn -0.1290 0.2337 -0.9637
vn -0.5185 0.6004 -0.6088
vn -0.0000 0.3898 -0.9209
vn -0.0000 0.1333 -0.9911
vn -0.5939 -0.0577 -0.8025
vn -0.0000 -0.1312 -0.9914
vn -0.0000 0.0792 -0.9969
vn -0.5482 0.1727 -0.8183
vn -0.0000 0.3014 -0.9535
vn -0.4701 0.3473 -0.8114
vn 0.3745 0.2834 -0.8828
vn -0.3146 0.5196 -0.7944
vn 0.6414 -0.1301 -0.7561
vn 0.5718 -0.1381 -0.8087
vn 0.4610 -0.1060 -0.8811
vn 0.4113 0.1845 -0.8926
vn -0.2004 0.3817 -0.9023
vn 0.5034 -0.3857 -0.7732
vn -0.0000 -0.6969 -0.7171
vn 0.4332 -0.3561 -0.8280
vn 0.2333 -0.5522 -0.8004
vn 0.0950 -0.4042 -0.9097
vn 0.7214 -0.3285 -0.6096
vn -0.3515 -0.3599 -0.8642
vn -0.4277 -0.1198 -0.8960
vn -0.3424 -0.2814 -0.8964
vn -0.7740 0.0980 -0.6256
vn -0.5950 0.0593 -0.8015
vn -0.9882 0.0904 -0.1234
vn -0.9537 0.2940 -0.0636
vn -0.7397 0.3259 -0.5888
vn -0.6240 0.2939 -0.7241
vn -0.0898 -0.0208 -0.9957
vn -0.5542 0.0659 0.8298
vn -0.6282 0.1933 0.7537
vn -0.9673 0.2400 -0.0816
vn -0.3596 0.0338 0.9325
vn -0.0000 0.0215 0.9998
vn -0.0000 0.1280 0.9918
vn 0.7626 -0.2962 0.5751
vn 0.1140 -0.2130 0.9704
vn -0.0000 -0.3307 0.9437
vn -0.0000 -0.5511 0.8344
vn 0.9135 -0.1046 0.3932
vn 0.7686 -0.0615 -0.6368
vn -0.2964 -0.1432 0.9443
vn 0.9260 -0.0965 0.3649
vn 0.7018 -0.0575 -0.7100
vn -0.2346 -0.2577 0.9373
vn -0.9960 -0.0727 -0.0520
vn -0.9732 -0.2192 -0.0694
vn -0.3313 -0.0563 -0.9418
vn -0.3782 -0.0781 -0.9224
vn 0.6685 0.0903 -0.7382
vn -0.4977 0.1357 -0.8567
vn -0.9835 -0.1657 0.0723
vn -0.0847 -0.2579 0.9624
vn -0.0789 -0.1521 0.9852
vn -0.9944 -0.0006 0.1056
vn -0.9911 -0.0495 0.1234
vn -0.0414 -0.0999 0.9941
vn -0.5227 0.0870 -0.8481
vn -0.4892 -0.0318 -0.8716
vn -0.9861 -0.1200 0.1148
vn -0.0573 -0.1343 0.9893
vn 0.9788 -0.0584 0.1962
vn 0.9805 -0.0217 0.1952
vn 0.6315 0.0103 -0.7753
vn 0.6755 0.0678 -0.7342
vn 0.9858 -0.0037 0.1680
vn 0.9759 -0.0397 0.2145
vn -0.0000 -0.1081 0.9941
vn -0.6339 -0.0712 0.7701
vn -0.9999 -0.0114 -0.0071
vn -0.0129 0.0352 0.9993
vn -0.0432 -0.4233 0.9050
vn -0.0992 -0.2870 0.9528
vn 0.0704 0.0318 0.9970
vn -0.5361 -0.5074 0.6746
vn -0.5216 -0.4927 0.6966
vn -0.8998 -0.3800 0.2143
vn -0.9491 -0.2179 0.2274
vn -0.9708 -0.0084 0.2399
vn -0.9935 -0.0991 0.0559
vn -0.9399 0.2538 0.2283
vn -0.9335 0.1212 0.3373
vn -0.5305 0.4732 0.7033
vn -0.5053 0.4698 0.7239
vn -0.0298 0.4169 0.9085
vn -0.0537 0.3996 0.9151
vn -0.5759 0.0761 0.8140
vn -0.0000 0.0288 0.9996
vn -0.9826 -0.1304 -0.1320
vn -0.6001 -0.1692 -0.7819
vn -0.0000 -0.1289 -0.9917
vn -0.7827 -0.4390 0.4412
vn -0.3847 -0.3981 -0.8328
vn -0.0689 -0.2034 -0.9767
vn -0.6062 0.5251 -0.5973
vn -0.7012 0.2801 0.6557
vn -0.7250 0.6028 0.3330
vn -0.6425 0.7107 -0.2865
vn -0.4771 0.7066 0.5226
vn -0.4186 0.8427 -0.3386
vn -0.4310 0.1437 0.8909
vn -0.1926 0.4055 -0.8936
vn -0.6061 0.3414 0.7184
vn -0.5538 0.3476 0.7566
vn 0.6778 -0.0827 0.7306
vn 0.5185 -0.2765 0.8091
vn -0.7004 0.3178 0.6391
vn 0.4071 -0.4175 0.8124
vn 0.1808 -0.5811 0.7935
vn 0.8276 -0.5272 -0.1929
vn 0.6030 -0.7256 -0.3314
vn 0.5325 -0.1511 0.8328
vn -0.5393 0.4492 0.7124
vn -0.7259 0.4892 -0.4834
vn 0.1726 -0.0384 -0.9842
vn 0.0941 -0.0171 -0.9954
vn -0.8074 0.4210 -0.4134
vn -0.5507 0.3489 -0.7583
vn -0.6962 0.0982 -0.7111
vn -0.8670 0.3629 -0.3414
vn 0.8301 -0.5458 -0.1142
vn 0.6837 -0.5135 -0.5185
vn 0.7842 -0.3589 -0.5062
vn 0.8798 -0.4631 -0.1073
vn 0.2892 0.0690 -0.9548
vn 0.2194 0.0645 -0.9735
vn -0.1656 -0.7397 0.6522
vn -0.0032 -0.3086 -0.9512
vn -0.7047 0.3418 0.6217
vn 0.9358 -0.3235 -0.1402
vn 0.8054 -0.5795 -0.1244
vn 0.5151 -0.2886 0.8071
vn -0.0361 -0.2219 -0.9744
vn -0.0245 -0.3343 -0.9422
vn -0.8722 0.3744 -0.3148
vn -0.1307 -0.0511 -0.9901
vn -0.9030 0.3266 -0.2792
vn 0.0925 -0.8983 -0.4296
vn -0.0304 -0.1339 -0.9905
vn -0.9051 -0.3552 0.2338
vn -0.7974 -0.1673 -0.5798
vn -0.0000 -0.0404 -0.9992
vn -0.0000 -0.7823 0.6229
vn -0.2012 -0.5794 0.7898
vn 0.4853 -0.5548 0.6758
vn 0.5732 0.5270 0.6274
vn -0.1813 0.7707 0.6109
vn -0.9834 0.1812 -0.0057
vn -0.5192 0.0398 -0.8537
vn -0.4015 -0.6309 -0.6639
vn -0.6678 -0.7096 -0.2247
vn 0.6305 0.0932 -0.7705
vn 0.5206 -0.6110 -0.5964
vn 0.9641 0.2385 0.1166
vn -0.0831 0.6064 0.7908
vn 0.7691 -0.6302 -0.1067
vn 0.7549 -0.6421 0.1333
vn 0.8400 0.4606 0.2867
vn -0.1125 0.9309 0.3475
vn -0.9172 0.3982 0.0148
vn -0.7923 0.4595 0.4014
vn -0.7339 -0.6730 -0.0923
vn -0.6531 -0.5935 0.4703
vn -0.0000 0.5585 0.8295
vn -0.0000 0.9170 0.3988
vn -0.5681 0.7575 0.3216
vn -0.4908 0.4928 0.7185
vn -0.6366 -0.3724 -0.6754
vn -0.0000 -0.4023 -0.9155
vn -0.0000 -0.5808 0.8140
vn -0.5590 -0.4765 0.6785
vn -0.5901 -0.3304 0.7367
vn -0.0000 -0.3937 0.9193
vn -0.8541 0.2246 0.4692
vn -0.6687 -0.0255 0.7431
vn -0.4650 0.0375 0.8845
vn 0.1307 -0.0511 -0.9901
vn -0.9358 -0.3235 -0.1402
vn -0.8054 -0.5795 -0.1244
vn 0.0361 -0.2219 -0.9744
vn -0.0000 -0.9744 0.2248
vn -0.1572 -0.8864 0.4354
vn 0.0050 -0.9120 -0.4101
vn -0.0000 -0.9018 -0.4322
vn -0.1410 0.7114 0.6885
vn -0.0604 0.8511 0.5214
vn 0.3546 0.7671 -0.5346
vn -0.3412 -0.0623 0.9379
vn -0.0000 -0.1322 0.9912
vn -0.0000 0.7828 0.6223
vn -0.2064 -0.3808 0.9013
vn -0.2657 -0.9534 0.1430
vn -0.4929 -0.1755 0.8522
vn -0.5974 -0.2340 0.7670
vn -0.6931 -0.1242 0.7101
vn -0.1989 0.2350 0.9514
vn -0.5729 0.8085 -0.1346
vn -0.0000 0.9943 -0.1069
vn -0.4562 0.6859 -0.5669
vn -0.0000 0.7508 -0.6605
vn -0.0000 0.2237 -0.9747
vn -0.6543 0.2671 -0.7075
vn -0.6768 -0.1244 -0.7256
vn -0.0000 -0.1593 -0.9872
vn -0.0000 -0.0275 0.9996
vn -0.0000 0.2605 0.9655
vn -0.8119 -0.1391 0.5670
vn -0.6631 -0.6353 0.3957
vn -0.9267 -0.3747 0.0286
vn -0.9407 -0.3163 0.1225
vn -0.9794 -0.0978 0.1768
vn -0.9943 -0.0412 0.0978
vn -0.0000 -0.7914 0.6113
vn -0.0000 0.1327 0.9912
vn -0.6147 0.1663 0.7710
vn -0.0000 0.1927 0.9813
vn -0.6282 0.0593 0.7758
vn -0.0000 0.0182 0.9998
vn -0.8252 -0.1185 0.5522
vn -0.8139 0.5334 -0.2302
vn -0.8396 -0.4478 -0.3075
vn -0.7589 -0.5272 -0.3823
vn -0.7019 0.5352 -0.4700
vn 0.0632 0.6761 -0.7341
vn 0.0689 -0.4946 -0.8664
vn -0.9297 0.3110 -0.1976
vn -0.9351 0.3176 0.1575
vn -0.8877 -0.4141 -0.2011
vn -0.8876 -0.4582 -0.0481
vn 0.7879 -0.5410 0.2943
vn 0.9278 0.0494 0.3697
vn 0.9953 0.0008 -0.0973
vn 0.3253 -0.8639 -0.3845
vn -0.0411 0.1348 -0.9900
vn 0.9750 -0.0928 -0.2020
vn 0.9113 -0.2716 -0.3096
vn -0.1722 -0.0114 -0.9850
vn -0.3517 0.6033 0.7157
vn -0.9284 0.3279 -0.1746
vn -0.9601 0.2526 -0.1197
vn -0.4870 -0.0104 0.8733
vn 0.0144 -0.9976 0.0680
vn 0.0275 -0.9991 0.0325
vn -0.8660 -0.4717 -0.1663
vn -0.4468 -0.4721 0.7600
vn -0.3468 -0.3754 -0.8595
vn 0.4241 -0.8825 0.2032
vn 0.6185 -0.7008 -0.3555
vn -0.7177 0.0389 0.6952
vn -0.4750 -0.5844 -0.6579
vn -0.8862 0.0471 0.4609
vn 0.2749 0.6435 0.7144
vn 0.9603 -0.0897 -0.2640
vn 0.7899 -0.6109 -0.0530
vn -0.3155 -0.9065 -0.2804
vn 0.2529 0.5326 0.8077
vn 0.4195 -0.2702 0.8666
vn -0.6180 -0.5552 0.5566
vn 0.6282 0.1933 0.7537
vn 0.6339 -0.0712 0.7701
vn 0.7004 0.3178 0.6391
vn 0.7012 0.2801 0.6557
vn -0.1808 -0.5811 0.7935
vn -0.4071 -0.4175 0.8124
vn 0.9944 -0.0006 0.1056
vn 0.4977 0.1357 -0.8567
vn 0.9835 -0.1657 0.0723
vn 0.7827 -0.4390 0.4412
vn 0.3847 -0.3981 -0.8328
vn -0.0925 -0.8983 -0.4296
vn 0.1656 -0.7397 0.6522
vn 0.2346 -0.2577 0.9373
vn 0.0847 -0.2579 0.9624
vn 0.9732 -0.2192 -0.0694
vn 0.0245 -0.3343 -0.9422
vn -0.8301 -0.5458 -0.1142
vn -0.6837 -0.5135 -0.5185
vn 0.0032 -0.3086 -0.9512
vn 0.0414 -0.0999 0.9941
vn 0.0789 -0.1521 0.9852
vn -0.9858 -0.0037 0.1680
vn -0.9805 -0.0217 0.1952
vn 0.9673 0.2400 -0.0816
vn 0.9999 -0.0114 -0.0071
vn -0.6030 -0.7256 -0.3314
vn -0.6685 0.0903 -0.7382
vn -0.6755 0.0678 -0.7342
vn 0.8670 0.3629 -0.3414
vn 0.5393 0.4492 0.7124
vn 0.6061 0.3414 0.7184
vn 0.8722 0.3744 -0.3148
vn -0.5034 -0.3857 -0.7732
vn -0.5718 -0.1381 -0.8087
vn -0.6414 -0.1301 -0.7561
vn 0.7047 0.3418 0.6217
vn 0.8074 0.4210 -0.4134
vn 0.7259 0.4892 -0.4834
vn -0.9260 -0.0965 0.3649
vn -0.9759 -0.0397 0.2145
vn -0.5325 -0.1511 0.8328
vn -0.5185 -0.2765 0.8091
vn -0.2333 -0.5522 -0.8004
vn -0.7214 -0.3285 -0.6096
vn 0.4701 0.3473 -0.8114
vn 0.3146 0.5196 -0.7944
vn -0.3745 0.2834 -0.8828
vn 0.4310 0.1437 0.8909
vn -0.4332 -0.3561 -0.8280
vn -0.4610 -0.1060 -0.8811
vn -0.0950 -0.4042 -0.9097
vn 0.0898 -0.0208 -0.9957
vn 0.5950 0.0593 -0.8015
vn 0.3424 -0.2814 -0.8964
vn 0.3515 -0.3599 -0.8642
vn 0.6001 -0.1692 -0.7819
vn 0.9826 -0.1304 -0.1320
vn 0.9882 0.0904 -0.1234
vn 0.7740 0.0980 -0.6256
vn 0.7397 0.3259 -0.5888
vn 0.9537 0.2940 -0.0636
vn 0.5482 0.1727 -0.8183
vn 0.5939 -0.0577 -0.8025
vn 0.0129 0.0352 0.9993
vn -0.0704 0.0318 0.9970
vn 0.0992 -0.2870 0.9528
vn 0.0432 -0.4233 0.9050
vn 0.2004 0.3817 -0.9023
vn -0.4113 0.1845 -0.8926
vn 0.6240 0.2939 -0.7241
vn 0.4277 -0.1198 -0.8960
vn 0.5542 0.0659 0.8298
vn 0.3596 0.0338 0.9325
vn -0.1140 -0.2130 0.9704
vn -0.7626 -0.2962 0.5751
vn 0.9960 -0.0727 -0.0520
vn 0.3313 -0.0563 -0.9418
vn 0.2964 -0.1432 0.9443
vn 0.5227 0.0870 -0.8481
vn 0.9911 -0.0495 0.1234
vn -0.7686 -0.0615 -0.6368
vn 0.3782 -0.0781 -0.9224
vn -0.7018 -0.0575 -0.7100
vn -0.9135 -0.1046 0.3932
vn -0.6315 0.0103 -0.7753
vn -0.9788 -0.0584 0.1962
vn 0.4892 -0.0318 -0.8716
vn 0.9861 -0.1200 0.1148
vn 0.0573 -0.1343 0.9893
vn 0.9935 -0.0991 0.0559
vn 0.9491 -0.2179 0.2274
vn 0.5216 -0.4927 0.6966
vn 0.8998 -0.3800 0.2143
vn 0.9708 -0.0084 0.2399
vn -0.5151 -0.2886 0.8071
vn 0.4685 0.2556 0.8456
vn 0.0537 0.3996 0.9151
vn 0.5053 0.4698 0.7239
vn 0.0298 0.4169 0.9085
vn 0.5305 0.4732 0.7033
vn 0.5361 -0.5074 0.6746
vn 0.5759 0.0761 0.8140
vn 0.9335 0.1212 0.3373
vn 0.9399 0.2538 0.2283
vn -0.8276 -0.5272 -0.1929
vn -0.0941 -0.0171 -0.9954
vn -0.1726 -0.0384 -0.9842
vn -0.8798 -0.4631 -0.1073
vn -0.2892 0.0690 -0.9548
vn -0.2194 0.0645 -0.9735
vn -0.7842 -0.3589 -0.5062
vn 0.5507 0.3489 -0.7583
vn 0.1926 0.4055 -0.8936
vn 0.1290 0.2337 -0.9637
vn 0.5185 0.6004 -0.6088
vn 0.4186 0.8427 -0.3386
vn 0.6962 0.0982 -0.7111
vn 0.6675 0.3985 0.6290
vn 0.9051 -0.3552 0.2338
vn 0.9834 0.1812 -0.0057
vn 0.6678 -0.7096 -0.2247
vn 0.4015 -0.6309 -0.6639
vn 0.5192 0.0398 -0.8537
vn 0.0304 -0.1339 -0.9905
vn 0.7250 0.6028 0.3330
vn 0.4771 0.7066 0.5226
vn 0.6062 0.5251 -0.5973
vn 0.6425 0.7107 -0.2865
vn 0.0689 -0.2034 -0.9767
vn -0.6778 -0.0827 0.7306
vn -0.5206 -0.6110 -0.5964
vn -0.6305 0.0932 -0.7705
vn 0.9030 0.3266 -0.2792
vn 0.5538 0.3476 0.7566
vn 0.4908 0.4928 0.7185
vn 0.5681 0.7575 0.3216
vn 0.7974 -0.1673 -0.5798
vn 0.2012 -0.5794 0.7898
vn 0.1813 0.7707 0.6109
vn -0.5732 0.5270 0.6274
vn -0.4853 -0.5548 0.6758
vn 0.5729 0.8085 -0.1346
vn 0.1125 0.9309 0.3475
vn 0.7923 0.4595 0.4014
vn 0.9172 0.3982 0.0148
vn 0.1989 0.2350 0.9514
vn 0.4929 -0.1755 0.8522
vn -0.7691 -0.6302 -0.1067
vn -0.9641 0.2385 0.1166
vn 0.0831 0.6064 0.7908
vn 0.4562 0.6859 -0.5669
vn 0.6543 0.2671 -0.7075
vn -0.7549 -0.6421 0.1333
vn -0.8400 0.4606 0.2867
vn 0.5901 -0.3304 0.7367
vn 0.6631 -0.6353 0.3957
vn 0.8119 -0.1391 0.5670
vn 0.5974 -0.2340 0.7670
vn -0.7879 -0.5410 0.2943
vn -0.3253 -0.8639 -0.3845
vn -0.9953 0.0008 -0.0973
vn -0.9278 0.0494 0.3697
vn 0.7339 -0.6730 -0.0923
vn 0.6531 -0.5935 0.4703
vn 0.6366 -0.3724 -0.6754
vn 0.6768 -0.1244 -0.7256
vn -0.9750 -0.0928 -0.2020
vn 0.1410 0.7114 0.6885
vn 0.0604 0.8511 0.5214
vn 0.3412 -0.0623 0.9379
vn 0.9267 -0.3747 0.0286
vn 0.7589 -0.5272 -0.3823
vn -0.0689 -0.4946 -0.8664
vn 0.8396 -0.4478 -0.3075
vn 0.4650 0.0375 0.8845
vn 0.6687 -0.0255 0.7431
vn 0.8541 0.2246 0.4692
vn 0.6282 0.0593 0.7758
vn 0.4750 -0.5844 -0.6579
vn -0.9603 -0.0897 -0.2640
vn 0.6931 -0.1242 0.7101
vn 0.5590 -0.4765 0.6785
vn 0.0411 0.1348 -0.9900
vn 0.1722 -0.0114 -0.9850
vn -0.9113 -0.2716 -0.3096
vn -0.0050 -0.9120 -0.4101
vn 0.2657 -0.9534 0.1430
vn 0.1572 -0.8864 0.4354
vn 0.9351 0.3176 0.1575
vn 0.9297 0.3110 -0.1976
vn 0.3517 0.6033 0.7157
vn 0.4870 -0.0104 0.8733
vn 0.9601 0.2526 -0.1197
vn 0.9284 0.3279 -0.1746
vn 0.2064 -0.3808 0.9013
vn 0.8139 0.5334 -0.2302
vn -0.0632 0.6761 -0.7341
vn -0.3546 0.7671 -0.5346
vn -0.7899 -0.6109 -0.0530
vn -0.4195 -0.2702 0.8666
vn -0.2529 0.5326 0.8077
vn 0.9794 -0.0978 0.1768
vn 0.8252 -0.1185 0.5522
vn 0.6147 0.1663 0.7710
vn -0.4607 0.3522 0.8147
vn -0.3686 -0.0584 0.9277
vn 0.4940 0.2266 0.8394
vn 0.2302 0.2215 0.9476
vn 0.1175 -0.0308 0.9926
vn 0.6958 -0.0966 0.7117
vn 0.8877 -0.4141 -0.2011
vn 0.8876 -0.4582 -0.0481
vn 0.7019 0.5352 -0.4700
vn 0.9943 -0.0412 0.0978
vn 0.9407 -0.3163 0.1225
vn -0.0275 -0.9991 0.0325
vn -0.2749 0.6435 0.7144
vn 0.7177 0.0389 0.6952
vn 0.3155 -0.9065 -0.2804
vn 0.6180 -0.5552 0.5566
vn -0.4241 -0.8825 0.2032
vn 0.4468 -0.4721 0.7600
vn -0.0144 -0.9976 0.0680
vn 0.8862 0.0471 0.4609
vn 0.6337 0.0822 0.7692
vn 0.4781 -0.2611 0.8386
vn -0.6185 -0.7008 -0.3555
vn 0.8660 -0.4717 -0.1663
vn 0.3468 -0.3754 -0.8595
vn 0.6136 -0.5300 0.5853
vn 0.4968 -0.4061 0.7670
vn 0.2588 -0.3739 0.8906
vn 0.1474 -0.3263 0.9337
vn 0.0323 0.0271 0.9991
vn 0.1383 0.3502 0.9264
vn 0.6593 0.3645 0.6576
vn 0.3686 -0.0584 0.9277
vn 0.4607 0.3522 0.8147
vn -0.3746 -0.3248 0.8684
vn -0.4781 -0.2611 0.8386
vn -0.6337 0.0822 0.7692
vn -0.5801 0.4158 0.7004
vn 0.5801 0.4158 0.7004
vn -0.1765 -0.6366 0.7507
vn 0.0460 -0.7121 0.7006
vn 0.0190 -0.7051 0.7089
vn -0.1474 -0.3263 0.9337
vn -0.0323 0.0271 0.9991
vn -0.1175 -0.0308 0.9926
vn -0.2588 -0.3738 0.8906
vn 0.8157 0.4800 0.3229
vn 0.6218 0.6881 0.3741
vn 0.6052 0.7014 0.3767
vn 0.8351 -0.1159 0.5378
vn 0.3746 -0.3248 0.8684
vn -0.4940 0.2266 0.8394
vn -0.6958 -0.0966 0.7117
vn -0.2302 0.2215 0.9476
vn -0.1383 0.3502 0.9264
vn -0.6593 0.3645 0.6576
vn -0.6136 -0.5300 0.5853
vn -0.4968 -0.4061 0.7670
vn -0.8351 -0.1159 0.5378
vn 0.1101 0.8043 0.5839
vn -0.1444 0.6911 0.7082
vn -0.3580 0.5379 0.7632
vn -0.0190 -0.7051 0.7089
vn -0.5508 -0.6481 0.5259
vn -0.4551 -0.6881 0.5651
vn -0.0460 -0.7121 0.7006
vn -0.7687 -0.5052 0.3923
vn -0.8157 0.4800 0.3229
vn -0.6052 0.7014 0.3767
vn -0.6218 0.6880 0.3741
vn -0.0000 -0.3749 0.9271
vn 0.1765 -0.6366 0.7507
vn -0.1101 0.8043 0.5839
vn 0.3580 0.5379 0.7632
vn 0.1444 0.6911 0.7082
vn 0.4551 -0.6881 0.5651
vn 0.5508 -0.6481 0.5259
vn 0.7687 -0.5052 0.3923
vn -0.4543 0.0018 0.8908
vn 0.4543 0.0018 0.8908
vn -0.4543 0.0020 0.8908
vn 0.4543 0.0020 0.8908
vn -0.0000 0.8927 -0.4506
vn 0.6529 -0.0592 -0.7551
vn 0.4623 0.6245 -0.6295
vn 0.6087 0.7060 -0.3620
vn 0.8445 -0.2685 -0.4633
vn 0.2020 -0.6291 -0.7506
vn 0.3302 -0.8382 -0.4341
vn 0.0001 -0.6053 -0.7960
vn -0.0002 -0.8708 -0.4917
vn -0.4622 0.6245 -0.6296
vn -0.6530 -0.0590 -0.7551
vn -0.8449 -0.2689 -0.4625
vn -0.6081 0.7076 -0.3599
vn 0.0001 0.6989 -0.7153
vn -0.0009 0.8900 -0.4559
vn -0.2020 -0.6291 -0.7506
vn -0.3283 -0.8392 -0.4335
vn 0.6518 0.6422 0.4034
vn 0.9605 -0.2435 0.1345
vn -0.9586 -0.2433 0.1480
vn -0.6490 0.6414 0.4093
vn -0.0001 -0.9438 0.3306
vn -0.4877 -0.7579 0.4333
vn 0.4939 -0.7575 0.4269
vn -0.0027 0.9628 0.2701
vn 0.2615 0.0266 0.9648
vn -0.0031 0.0070 1.0000
vn -0.2490 0.0232 0.9682
vn 0.1765 0.6366 -0.7507
vn -0.0190 0.7051 -0.7089
vn -0.0460 0.7121 -0.7006
vn -0.8157 -0.4800 -0.3229
vn -0.6052 -0.7014 -0.3767
vn -0.6218 -0.6880 -0.3741
vn -0.1101 -0.8043 -0.5839
vn 0.3580 -0.5379 -0.7632
vn 0.1444 -0.6911 -0.7082
vn 0.0190 0.7051 -0.7089
vn 0.0460 0.7121 -0.7006
vn 0.4551 0.6881 -0.5651
vn 0.5508 0.6481 -0.5259
vn 0.7687 0.5052 -0.3923
vn 0.8157 -0.4800 -0.3229
vn 0.6218 -0.6880 -0.3741
vn 0.6052 -0.7013 -0.3767
vn -0.1765 0.6366 -0.7507
vn 0.1101 -0.8043 -0.5839
vn -0.1444 -0.6911 -0.7082
vn -0.3580 -0.5379 -0.7632
vn -0.5508 0.6481 -0.5259
vn -0.4551 0.6881 -0.5651
vn -0.7687 0.5052 -0.3923
vt 0.662400 0.419173
vt 0.627411 0.426220
vt 0.625300 0.371788
vt 0.676326 0.370344
vt 0.773102 0.810893
vt 0.754352 0.857188
vt 0.724759 0.844028
vt 0.724760 0.808308
vt 0.764397 0.682976
vt 0.724761 0.685747
vt 0.724761 0.646498
vt 0.769507 0.638722
vt 0.724762 0.563597
vt 0.771025 0.590683
vt 0.737942 0.549985
vt 0.766465 0.566214
vt 0.734368 0.522938
vt 0.724762 0.522375
vt 0.747707 0.524681
vt 0.747195 0.537269
vt 0.762495 0.543876
vt 0.737858 0.501047
vt 0.724762 0.489090
vt 0.749394 0.510385
vt 0.755618 0.483663
vt 0.762575 0.507386
vt 0.749319 0.459287
vt 0.786986 0.490666
vt 0.798118 0.474677
vt 0.776373 0.508958
vt 0.811365 0.511567
vt 0.780658 0.523699
vt 0.841563 0.495300
vt 0.830521 0.571255
vt 0.802006 0.555362
vt 0.777244 0.539867
vt 0.762224 0.526832
vt 0.617038 0.152478
vt 0.677157 0.135600
vt 0.669993 0.225388
vt 0.625934 0.224112
vt 0.804184 0.639801
vt 0.678856 0.075520
vt 0.607962 0.077575
vt 0.731381 0.177321
vt 0.711653 0.246486
vt 0.734259 0.066254
vt 0.712978 0.109360
vt 0.744420 0.131605
vt 0.755704 0.092045
vt 0.741775 0.007836
vt 0.778424 0.012394
vt 0.240386 0.387267
vt 0.292228 0.378237
vt 0.292228 0.477180
vt 0.228564 0.487051
vt 0.170066 0.492788
vt 0.179799 0.383656
vt 0.227615 0.274568
vt 0.258772 0.261532
vt 0.187336 0.279143
vt 0.124702 0.380337
vt 0.096348 0.487205
vt 0.146996 0.270156
vt 0.056641 0.460642
vt 0.074374 0.366019
vt 0.115458 0.253461
vt 0.007836 0.442588
vt 0.028203 0.347810
vt 0.091809 0.245357
vt 0.099389 0.213164
vt 0.127079 0.218556
vt 0.153324 0.250492
vt 0.190736 0.259924
vt 0.192740 0.227048
vt 0.155804 0.225150
vt 0.165108 0.157462
vt 0.199783 0.165229
vt 0.136845 0.158146
vt 0.154938 0.072553
vt 0.178293 0.075708
vt 0.204157 0.075347
vt 0.229125 0.077917
vt 0.236427 0.165032
vt 0.251035 0.078189
vt 0.262237 0.165662
vt 0.254665 0.228763
vt 0.233796 0.227446
vt 0.099960 0.149243
vt 0.139098 0.068111
vt 0.230367 0.253682
vt 0.699119 0.290428
vt 0.662149 0.272798
vt 0.625817 0.268110
vt 0.803280 0.683362
vt 0.661084 0.326193
vt 0.662674 0.315303
vt 0.677561 0.307426
vt 0.676492 0.329864
vt 0.652208 0.313265
vt 0.657500 0.298398
vt 0.642390 0.311937
vt 0.633139 0.297937
vt 0.640670 0.320330
vt 0.625646 0.314431
vt 0.637194 0.328948
vt 0.626687 0.337433
vt 0.647923 0.333806
vt 0.643010 0.349416
vt 0.659457 0.335434
vt 0.665574 0.347095
vt 0.650685 0.324479
vt 0.687273 0.331964
vt 0.610899 0.307705
vt 0.804454 0.725383
vt 0.763022 0.733521
vt 0.724760 0.752554
vt 0.607962 0.343354
vt 0.817432 0.759521
vt 0.767788 0.760617
vt 0.779642 0.785249
vt 0.090689 0.735207
vt 0.123130 0.747449
vt 0.103707 0.761047
vt 0.092221 0.757566
vt 0.101182 0.786043
vt 0.080596 0.778207
vt 0.125227 0.778480
vt 0.065525 0.758224
vt 0.085785 0.846569
vt 0.048307 0.830839
vt 0.140016 0.822282
vt 0.036899 0.778807
vt 0.174321 0.570988
vt 0.186743 0.520785
vt 0.195265 0.520133
vt 0.194424 0.574808
vt 0.139469 0.691254
vt 0.169659 0.694362
vt 0.160079 0.744318
vt 0.195612 0.698004
vt 0.191881 0.742502
vt 0.183576 0.621922
vt 0.161991 0.618750
vt 0.111495 0.683941
vt 0.089204 0.676388
vt 0.072109 0.718818
vt 0.129224 0.637004
vt 0.121541 0.627440
vt 0.124522 0.619240
vt 0.138538 0.614574
vt 0.094480 0.595815
vt 0.097275 0.605408
vt 0.094311 0.613511
vt 0.086620 0.615645
vt 0.104089 0.631496
vt 0.107990 0.622939
vt 0.068773 0.660469
vt 0.053462 0.702027
vt 0.159634 0.778136
vt 0.110840 0.613642
vt 0.152120 0.641758
vt 0.210376 0.524286
vt 0.217674 0.579548
vt 0.209701 0.629994
vt 0.181168 0.643897
vt 0.204974 0.650945
vt 0.113170 0.548679
vt 0.132131 0.561185
vt 0.113820 0.604391
vt 0.155649 0.566317
vt 0.159127 0.516997
vt 0.150476 0.508460
vt 0.172440 0.515456
vt 0.200851 0.769121
vt 0.047676 0.742773
vt 0.032519 0.722165
vt 0.163812 0.795129
vt 0.217674 0.791669
vt 0.030951 0.751438
vt 0.007836 0.734025
vt 0.486887 0.508460
vt 0.496823 0.546305
vt 0.463923 0.552485
vt 0.458854 0.518427
vt 0.557625 0.508460
vt 0.587586 0.520288
vt 0.583443 0.549322
vt 0.557625 0.546441
vt 0.509329 0.581033
vt 0.474345 0.581033
vt 0.863505 0.651387
vt 0.883262 0.633531
vt 0.890161 0.646136
vt 0.881522 0.660637
vt 0.926362 0.719792
vt 0.939527 0.743513
vt 0.884238 0.769271
vt 0.876998 0.747890
vt 0.946391 0.759207
vt 0.893335 0.788647
vt 0.233360 0.014008
vt 0.257018 0.018646
vt 0.145355 0.007836
vt 0.161754 0.010550
vt 0.187004 0.010346
vt 0.208623 0.013595
vt 0.981446 0.692989
vt 0.956233 0.687227
vt 0.967606 0.631803
vt 0.990820 0.633766
vt 0.923482 0.631803
vt 0.921337 0.653891
vt 0.900258 0.675341
vt 0.883460 0.696281
vt 0.871805 0.670145
vt 0.931586 0.696919
vt 0.864173 0.704768
vt 0.857234 0.666133
vt 0.007836 0.920535
vt 0.039677 0.917580
vt 0.044717 0.941898
vt 0.014674 0.946338
vt 0.585416 0.570346
vt 0.557625 0.572602
vt 0.514156 0.848865
vt 0.508864 0.850146
vt 0.505149 0.847372
vt 0.513733 0.844353
vt 0.496266 0.933248
vt 0.469842 0.919211
vt 0.482385 0.900673
vt 0.506304 0.900870
vt 0.291892 0.516997
vt 0.300543 0.508459
vt 0.337849 0.548679
vt 0.318888 0.561184
vt 0.951809 0.897359
vt 0.951317 0.893627
vt 0.956689 0.890823
vt 0.956396 0.897359
vt 0.827580 0.923830
vt 0.829790 0.935764
vt 0.825618 0.932708
vt 0.835311 0.931699
vt 0.836821 0.939581
vt 0.830195 0.939581
vt 0.946314 0.892384
vt 0.954585 0.881913
vt 0.511465 0.861377
vt 0.496275 0.856696
vt 0.502870 0.855613
vt 0.511787 0.857989
vt 0.071179 0.937968
vt 0.066981 0.915046
vt 0.091144 0.931341
vt 0.090826 0.912833
vt 0.119368 0.910184
vt 0.110829 0.946794
vt 0.590249 0.605541
vt 0.557625 0.603213
vt 0.515167 0.859432
vt 0.514923 0.856962
vt 0.589687 0.633909
vt 0.557625 0.632847
vt 0.482251 0.866133
vt 0.498771 0.839608
vt 0.256447 0.889123
vt 0.271852 0.892876
vt 0.273143 0.915732
vt 0.255228 0.916760
vt 0.513185 0.838806
vt 0.519266 0.901627
vt 0.510101 0.883912
vt 0.517593 0.884285
vt 0.506515 0.867782
vt 0.516028 0.868190
vt 0.458854 0.886447
vt 0.474381 0.883244
vt 0.459548 0.858961
vt 0.469805 0.821850
vt 0.522305 0.933248
vt 0.510733 0.813585
vt 0.904519 0.385041
vt 0.932402 0.388346
vt 0.932402 0.414724
vt 0.911384 0.410356
vt 0.221724 0.879775
vt 0.236838 0.888785
vt 0.231698 0.917063
vt 0.209223 0.913193
vt 0.583120 0.775381
vt 0.588884 0.774725
vt 0.590249 0.780419
vt 0.567072 0.793012
vt 0.930748 0.420341
vt 0.907896 0.415125
vt 0.567072 0.729132
vt 0.585286 0.748004
vt 0.581448 0.752496
vt 0.571415 0.748587
vt 0.204107 0.941951
vt 0.230990 0.949807
vt 0.259160 0.952523
vt 0.278893 0.944995
vt 0.051175 0.971728
vt 0.025329 0.976567
vt 0.084066 0.964555
vt 0.241000 0.876476
vt 0.254505 0.877666
vt 0.233369 0.862240
vt 0.268004 0.862240
vt 0.660580 0.905490
vt 0.642107 0.936750
vt 0.642821 0.915865
vt 0.654339 0.903759
vt 0.886208 0.910299
vt 0.868783 0.913712
vt 0.857234 0.863065
vt 0.875343 0.866908
vt 0.948839 0.101620
vt 0.930358 0.093510
vt 0.918388 0.059230
vt 0.955049 0.055287
vt 0.930642 0.899661
vt 0.909628 0.900167
vt 0.903654 0.850200
vt 0.930642 0.845871
vt 0.925517 0.921740
vt 0.907751 0.922844
vt 0.943406 0.119643
vt 0.928385 0.115995
vt 0.893653 0.930244
vt 0.879527 0.932953
vt 0.921194 0.120612
vt 0.913214 0.102892
vt 0.904519 0.324138
vt 0.919294 0.283962
vt 0.937582 0.298990
vt 0.930167 0.331677
vt 0.920495 0.369370
vt 0.957916 0.328665
vt 0.946872 0.369370
vt 0.907470 0.363357
vt 0.957902 0.286346
vt 0.928294 0.264731
vt 0.948364 0.266328
vt 0.889046 0.820633
vt 0.902614 0.807758
vt 0.874695 0.835938
vt 0.904519 0.052185
vt 0.913418 0.007872
vt 0.936220 0.007836
vt 0.861434 0.824676
vt 0.975566 0.851721
vt 0.975842 0.862670
vt 0.964201 0.863665
vt 0.959805 0.858592
vt 0.969206 0.804318
vt 0.990380 0.806465
vt 0.969674 0.835822
vt 0.963434 0.826331
vt 0.992164 0.860904
vt 0.980465 0.866242
vt 0.655006 0.891413
vt 0.642107 0.892972
vt 0.646895 0.872860
vt 0.655990 0.873195
vt 0.957461 0.851853
vt 0.949956 0.845016
vt 0.946314 0.860225
vt 0.949821 0.859793
vt 0.952366 0.862787
vt 0.951265 0.866242
vt 0.955049 0.020144
vt 0.876712 0.804318
vt 0.758174 0.250539
vt 0.739828 0.294954
vt 0.311550 0.691253
vt 0.327889 0.747449
vt 0.290940 0.744318
vt 0.281360 0.694362
vt 0.444322 0.225150
vt 0.473048 0.218556
vt 0.446803 0.250492
vt 0.287207 0.795129
vt 0.233345 0.791669
vt 0.250168 0.769121
vt 0.291385 0.778136
vt 0.412791 0.279143
vt 0.409391 0.259924
vt 0.453131 0.270156
vt 0.337199 0.604391
vt 0.356538 0.595815
vt 0.353744 0.605408
vt 0.340179 0.613642
vt 0.400344 0.165229
vt 0.407386 0.227048
vt 0.366330 0.227446
vt 0.363700 0.165032
vt 0.796277 0.272698
vt 0.773165 0.310137
vt 0.259138 0.742501
vt 0.345462 0.228763
vt 0.337889 0.165662
vt 0.312481 0.614574
vt 0.289028 0.618749
vt 0.276698 0.570988
vt 0.295370 0.566317
vt 0.711666 0.501047
vt 0.715156 0.522937
vt 0.298899 0.641757
vt 0.321795 0.637004
vt 0.339523 0.683941
vt 0.372512 0.274568
vt 0.369759 0.253682
vt 0.267443 0.621922
vt 0.256595 0.574808
vt 0.693906 0.483663
vt 0.700206 0.459287
vt 0.678499 0.590682
vt 0.683059 0.566214
vt 0.711582 0.549984
vt 0.325791 0.778480
vt 0.700130 0.510385
vt 0.701818 0.524681
vt 0.686950 0.507385
vt 0.687301 0.526832
vt 0.668866 0.523699
vt 0.673151 0.508957
vt 0.662539 0.490665
vt 0.686499 0.733521
vt 0.681732 0.760617
vt 0.632089 0.759519
vt 0.645068 0.725381
vt 0.607962 0.495298
vt 0.638159 0.511566
vt 0.647518 0.555361
vt 0.619002 0.571253
vt 0.680015 0.638722
vt 0.685125 0.682976
vt 0.646242 0.683360
vt 0.645339 0.639800
vt 0.712566 0.340876
vt 0.697539 0.335867
vt 0.708467 0.316241
vt 0.716959 0.330786
vt 0.687029 0.543875
vt 0.702329 0.537269
vt 0.672280 0.539866
vt 0.651407 0.474676
vt 0.799454 0.170483
vt 0.829706 0.118548
vt 0.782867 0.129295
vt 0.787529 0.081448
vt 0.841623 0.216536
vt 0.543486 0.460642
vt 0.503779 0.487205
vt 0.475425 0.380337
vt 0.525753 0.366019
vt 0.430061 0.492788
vt 0.420328 0.383657
vt 0.463282 0.158146
vt 0.435019 0.157462
vt 0.888848 0.157693
vt 0.571923 0.347810
vt 0.592291 0.442588
vt 0.484669 0.253461
vt 0.508318 0.245357
vt 0.500738 0.213165
vt 0.371562 0.487051
vt 0.359740 0.387267
vt 0.307899 0.378237
vt 0.341354 0.261532
vt 0.307899 0.477180
vt 0.349092 0.078189
vt 0.371002 0.077917
vt 0.445189 0.072553
vt 0.461029 0.068111
vt 0.500167 0.149243
vt 0.421834 0.075708
vt 0.395970 0.075347
vt 0.748876 0.349578
vt 0.751211 0.331613
vt 0.764952 0.351643
vt 0.730273 0.319154
vt 0.735967 0.338627
vt 0.733001 0.346664
vt 0.269851 0.643897
vt 0.718914 0.398487
vt 0.697725 0.356265
vt 0.715669 0.370139
vt 0.709073 0.349585
vt 0.719730 0.354287
vt 0.726925 0.334576
vt 0.722304 0.344906
vt 0.735858 0.368569
vt 0.731408 0.355819
vt 0.382246 0.660469
vt 0.397557 0.702027
vt 0.378910 0.718818
vt 0.361815 0.676388
vt 0.364399 0.615645
vt 0.346930 0.631496
vt 0.343028 0.622939
vt 0.356708 0.613511
vt 0.748642 0.383477
vt 0.329477 0.627440
vt 0.385494 0.758224
vt 0.414119 0.778807
vt 0.402712 0.830839
vt 0.370423 0.778207
vt 0.326497 0.619240
vt 0.496823 0.615762
vt 0.463923 0.609582
vt 0.926362 0.528143
vt 0.876998 0.500045
vt 0.884238 0.478663
vt 0.939527 0.504421
vt 0.418500 0.722165
vt 0.403343 0.742773
vt 0.347312 0.761047
vt 0.349837 0.786042
vt 0.360330 0.735207
vt 0.358798 0.757566
vt 0.676417 0.810892
vt 0.669878 0.785248
vt 0.255407 0.698004
vt 0.365233 0.846569
vt 0.311002 0.822282
vt 0.420068 0.751438
vt 0.443183 0.734025
vt 0.233345 0.579547
vt 0.240643 0.524286
vt 0.255754 0.520133
vt 0.893335 0.459287
vt 0.946391 0.488728
vt 0.278579 0.515456
vt 0.264276 0.520785
vt 0.009809 0.893913
vt 0.040155 0.892749
vt 0.241318 0.629994
vt 0.486887 0.653607
vt 0.458854 0.643640
vt 0.246045 0.650945
vt 0.863505 0.596547
vt 0.881522 0.587297
vt 0.890161 0.601798
vt 0.883262 0.614403
vt 0.531806 0.549322
vt 0.527663 0.520288
vt 0.066889 0.891742
vt 0.900258 0.572593
vt 0.871805 0.577789
vt 0.883460 0.551653
vt 0.518171 0.857312
vt 0.519174 0.860592
vt 0.413123 0.010346
vt 0.438373 0.010550
vt 0.981446 0.554945
vt 0.990820 0.614168
vt 0.967606 0.616131
vt 0.956233 0.560707
vt 0.931586 0.551015
vt 0.454771 0.007836
vt 0.391504 0.013594
vt 0.087732 0.894582
vt 0.104238 0.875771
vt 0.923482 0.616131
vt 0.921337 0.594043
vt 0.522804 0.845632
vt 0.527555 0.836772
vt 0.548844 0.859684
vt 0.533269 0.853089
vt 0.343109 0.018646
vt 0.366767 0.014008
vt 0.607962 0.905490
vt 0.614203 0.903759
vt 0.625721 0.915865
vt 0.626435 0.936750
vt 0.864173 0.543166
vt 0.857234 0.581801
vt 0.529833 0.570346
vt 0.525000 0.605541
vt 0.916162 0.248091
vt 0.910729 0.230068
vt 0.929210 0.221958
vt 0.931183 0.244443
vt 0.827580 0.955332
vt 0.829790 0.943398
vt 0.835311 0.947463
vt 0.567072 0.713461
vt 0.571415 0.694005
vt 0.581448 0.690096
vt 0.585287 0.694588
vt 0.547875 0.928294
vt 0.531848 0.898408
vt 0.555305 0.893653
vt 0.571160 0.909478
vt 0.525562 0.633909
vt 0.525295 0.865944
vt 0.613536 0.891413
vt 0.626435 0.892972
vt 0.526580 0.853268
vt 0.519735 0.849063
vt 0.503289 0.775259
vt 0.514154 0.731868
vt 0.532263 0.728025
vt 0.520714 0.778672
vt 0.956689 0.903896
vt 0.954585 0.912806
vt 0.951317 0.901092
vt 0.041014 0.862240
vt 0.074663 0.863238
vt 0.458854 0.764621
vt 0.458854 0.710831
vt 0.485843 0.715161
vt 0.479868 0.765128
vt 0.946314 0.902335
vt 0.014719 0.862240
vt 0.836821 0.878476
vt 0.815803 0.882845
vt 0.812315 0.878075
vt 0.835166 0.872860
vt 0.825618 0.946453
vt 0.751058 0.894085
vt 0.747415 0.878877
vt 0.750923 0.879309
vt 0.758563 0.887248
vt 0.575723 0.875186
vt 0.559848 0.874999
vt 0.904519 0.183734
vt 0.941180 0.187678
vt 0.524876 0.882483
vt 0.489378 0.876623
vt 0.483680 0.882306
vt 0.436169 0.948870
vt 0.433570 0.952443
vt 0.428698 0.952099
vt 0.435444 0.945121
vt 0.340087 0.862240
vt 0.332456 0.876475
vt 0.318951 0.877666
vt 0.305452 0.862240
vt 0.552577 0.813738
vt 0.317009 0.889123
vt 0.336618 0.888785
vt 0.369349 0.941950
vt 0.342466 0.949807
vt 0.341758 0.917062
vt 0.364234 0.913193
vt 0.588884 0.667867
vt 0.583120 0.667212
vt 0.351732 0.879775
vt 0.314296 0.952523
vt 0.294564 0.944995
vt 0.300313 0.915732
vt 0.318228 0.916760
vt 0.301604 0.892876
vt 0.567072 0.649580
vt 0.590249 0.662174
vt 0.481746 0.787805
vt 0.495843 0.795205
vt 0.160687 0.899934
vt 0.135039 0.907473
vt 0.137990 0.868253
vt 0.151016 0.862240
vt 0.509969 0.797913
vt 0.791482 0.932637
vt 0.770776 0.903279
vt 0.776668 0.887380
vt 0.793266 0.878197
vt 0.752367 0.872860
vt 0.753467 0.876314
vt 0.946355 0.231340
vt 0.938375 0.249060
vt 0.923348 0.136283
vt 0.946150 0.136320
vt 0.955049 0.180633
vt 0.188436 0.902945
vt 0.188423 0.945264
vt 0.168102 0.932620
vt 0.760907 0.880510
vt 0.765303 0.875436
vt 0.532714 0.879607
vt 0.537730 0.884612
vt 0.904519 0.148592
vt 0.486883 0.672718
vt 0.500451 0.685593
vt 0.776944 0.876432
vt 0.781567 0.872860
vt 0.177392 0.862240
vt 0.463980 0.786700
vt 0.149815 0.947648
vt 0.612552 0.873195
vt 0.621647 0.872860
vt 0.514801 0.700898
vt 0.512784 0.669279
vt 0.528063 0.689637
vt 0.178885 0.965282
vt 0.158815 0.966879
vt 0.430695 0.940157
vt 0.431838 0.944391
vt 0.427829 0.947902
vt 0.424979 0.948741
vt 0.426341 0.955349
vt 0.434224 0.956014
vt 0.440325 0.949054
vt 0.770308 0.934783
vt 0.764535 0.912771
vt 0.550529 0.875852
vt 0.543843 0.871355
vt 0.489066 0.888609
vt 0.497900 0.888457
vt 0.501863 0.882591
vt 0.498452 0.877930
vt 0.535172 0.874374
vt 0.875297 0.969939
vt 0.876465 0.973794
vt 0.866217 0.974811
vt 0.867218 0.971629
vt 0.514159 0.957504
vt 0.512798 0.964112
vt 0.510441 0.960862
vt 0.511309 0.956665
vt 0.876150 0.948624
vt 0.881522 0.952762
vt 0.880276 0.953397
vt 0.439665 0.940157
vt 0.546439 0.883073
vt 0.502969 0.957632
vt 0.503694 0.953883
vt 0.505568 0.961206
vt 0.504914 0.964777
vt 0.498814 0.957816
vt 0.508443 0.948920
vt 0.507300 0.953154
vt 0.499473 0.948920
vt 0.880355 0.963365
vt 0.881522 0.964535
vt 0.569795 0.848282
vt 0.911498 0.971629
vt 0.919031 0.966891
vt 0.921482 0.969297
vt 0.912499 0.974811
vt 0.921165 0.959806
vt 0.902565 0.948624
vt 0.898440 0.953397
vt 0.897193 0.952762
vt 0.947226 0.897359
vt 0.808938 0.908159
vt 0.836821 0.904854
vt 0.811963 0.027857
vt 0.688408 0.443616
vt 0.695167 0.857188
vt 0.903419 0.969939
vt 0.902251 0.973794
vt 0.898361 0.963365
vt 0.897193 0.964535
vt 0.857234 0.969297
vt 0.859685 0.966891
vt 0.857550 0.959806
vt 0.948073 0.414651
vt 0.948290 0.399846
vt 0.956550 0.399846
vt 0.956333 0.414651
vt 0.948073 0.385041
vt 0.956333 0.385041
vt 0.946314 0.958087
vt 0.946529 0.943282
vt 0.953781 0.943282
vt 0.953566 0.958087
vt 0.946314 0.928477
vt 0.953566 0.928477
vt 0.826431 0.939581
vt 0.702364 0.882894
vt 0.714460 0.878101
vt 0.715738 0.893781
vt 0.699917 0.895144
vt 0.691653 0.877216
vt 0.689507 0.893902
vt 0.684379 0.872860
vt 0.676251 0.890964
vt 0.423126 0.919274
vt 0.411036 0.914501
vt 0.408590 0.902252
vt 0.424380 0.903640
vt 0.722955 0.872860
vt 0.731744 0.888266
vt 0.400335 0.920161
vt 0.393080 0.924486
vt 0.385020 0.906433
vt 0.398183 0.903537
vt 0.431619 0.924486
vt 0.440361 0.909085
vt 0.711263 0.914410
vt 0.701059 0.909772
vt 0.409714 0.887714
vt 0.419947 0.883029
vt 0.386901 0.873208
vt 0.403209 0.882718
vt 0.694700 0.914709
vt 0.678195 0.924450
vt 0.439612 0.874032
vt 0.730957 0.923362
vt 0.704364 0.924222
vt 0.703896 0.934580
vt 0.412465 0.862240
vt 0.412825 0.872706
vt 0.391246 0.961472
vt 0.399325 0.963162
vt 0.400325 0.966344
vt 0.390078 0.965327
vt 0.390392 0.940157
vt 0.386266 0.944930
vt 0.385020 0.944295
vt 0.386188 0.954897
vt 0.385020 0.956068
vt 0.473159 0.952102
vt 0.474160 0.948920
vt 0.483143 0.954434
vt 0.480691 0.956839
vt 0.482826 0.963924
vt 0.464226 0.975106
vt 0.458854 0.970969
vt 0.460101 0.970333
vt 0.465080 0.953791
vt 0.463912 0.949936
vt 0.460022 0.960366
vt 0.458854 0.959195
vt 0.406857 0.958424
vt 0.409308 0.960829
vt 0.408992 0.951339
s 1
f 5/1/1 3/2/2 2/3/3 1/4/4
f 4/5/5 105/6/6 6/7/7 7/8/8
f 77/9/9 9/10/10 8/11/11 10/12/12
f 11/13/13 12/14/14 10/12/12 8/11/11
f 12/14/14 11/13/13 14/15/15 16/16/16
f 17/17/17 14/15/15 11/13/13 13/18/18
f 18/19/19 15/20/20 14/15/15 17/17/17
f 14/15/15 15/20/20 34/21/21 16/16/16
f 19/22/22 17/17/17 13/18/18 21/23/23
f 20/24/24 18/19/19 17/17/17 19/22/22
f 22/25/25 24/26/26 20/24/24 19/22/22
f 21/23/23 23/27/27 22/25/25 19/22/22
f 25/28/28 22/25/25 23/27/27 27/29/29
f 26/30/30 24/26/26 22/25/25 25/28/28
f 26/30/30 25/28/28 28/31/31 30/32/32
f 25/28/28 27/29/29 29/33/33 28/31/31
f 29/33/33 32/34/34 31/35/35 28/31/31
f 28/31/31 31/35/35 33/36/36 30/32/32
f 12/14/14 16/16/16 31/35/35 32/34/34
f 16/16/16 34/21/21 33/36/36 31/35/35
f 34/21/21 35/37/37 30/32/32 33/36/36
f 34/21/21 15/20/20 18/19/19 35/37/37
f 24/26/26 26/30/30 30/32/32 35/37/37
f 18/19/19 20/24/24 24/26/26 35/37/37
f 32/38/34 37/39/38 38/40/39 36/41/40
f 12/14/14 32/34/34 36/42/40 10/12/12
f 39/43/41 37/39/38 32/38/34 29/44/33
f 41/45/42 42/46/43 38/40/39 37/39/38
f 39/43/41 45/47/44 40/48/45 37/39/38
f 43/49/46 41/45/42 37/39/38 40/48/45
f 43/49/46 40/48/45 45/47/44 44/50/47
f 23/51/27 21/52/23 44/50/47 45/47/44
f 46/53/48 47/54/49 23/55/27 45/56/44
f 39/57/41 49/58/50 46/53/48 45/56/44
f 46/53/48 48/59/51 55/60/52 47/54/49
f 46/53/48 49/58/50 50/61/53 48/59/51
f 51/62/54 49/58/50 39/57/41 29/63/33
f 50/61/53 49/58/50 51/62/54 52/64/55
f 27/65/29 53/66/56 51/62/54 29/63/33
f 51/62/54 53/66/56 54/67/57 52/64/55
f 27/65/29 23/68/27 47/69/49 53/66/56
f 47/69/49 55/70/52 54/67/57 53/66/56
f 55/70/52 72/71/58 56/72/59 54/67/57
f 52/64/55 54/67/57 57/73/60
f 56/72/59 57/73/60 54/67/57
f 50/61/53 52/64/55 57/73/60 58/74/61
f 60/75/62 58/74/61 57/73/60 59/76/63
f 59/76/63 57/73/60 56/72/59
f 59/76/63 61/77/64 63/78/65 60/75/62
f 62/79/66 61/77/64 59/76/63 56/72/59
f 62/79/66 65/80/67 64/81/68 61/77/64
f 64/81/68 66/82/69 63/78/65 61/77/64
f 63/78/65 66/82/69 67/83/70 69/84/71
f 69/84/71 67/83/70 68/85/72 71/86/73
f 72/87/58 70/88/74 69/84/71 71/86/73
f 63/78/65 69/84/71 70/88/74 60/75/62
f 62/79/66 56/72/59 72/71/58 71/89/73
f 65/80/67 62/79/66 71/89/73 68/90/72
f 70/88/74 72/87/58 73/91/75
f 73/91/75 72/87/58 55/60/52
f 70/88/74 73/91/75 58/74/61 60/75/62
f 48/59/51 50/61/53 58/74/61 73/91/75
f 55/60/52 48/59/51 73/91/75
f 74/92/76 75/93/77 38/40/39 42/46/43
f 38/40/39 75/93/77 76/94/78 36/41/40
f 10/12/12 36/42/40 76/95/78 77/9/9
f 84/96/79 85/97/80 93/98/81 92/99/82
f 85/97/80 78/100/83 86/101/84 93/98/81
f 78/100/83 79/102/85 87/103/86 86/101/84
f 79/102/85 80/104/87 88/105/88 87/103/86
f 80/104/87 81/106/89 89/107/90 88/105/88
f 81/106/89 82/108/91 90/109/92 89/107/90
f 82/108/91 83/110/93 91/111/94 90/109/92
f 83/110/93 84/96/79 92/99/82 91/111/94
f 84/96/79 94/112/95 78/100/83 85/97/80
f 82/108/91 94/112/95 84/96/79 83/110/93
f 81/106/89 80/104/87 94/112/95 82/108/91
f 78/100/83 94/112/95 80/104/87 79/102/85
f 74/92/76 93/98/81 86/101/84 75/93/77
f 75/93/77 86/101/84 87/103/86 76/94/78
f 92/99/82 93/98/81 74/92/76 95/113/96
f 91/111/94 92/99/82 95/113/96 1/4/4
f 88/105/88 97/114/97 76/94/78 87/103/86
f 77/9/9 76/95/78 97/115/97 96/116/98
f 9/10/10 77/9/9 96/116/98 98/117/99
f 2/3/3 90/109/92 91/111/94 1/4/4
f 89/107/90 90/109/92 2/3/3 141/118/100
f 89/107/90 141/118/100 97/114/97 88/105/88
f 96/116/98 97/115/97 141/119/100 140/120/101
f 98/117/99 96/116/98 140/120/101 7/8/8
f 7/8/8 140/120/101 147/121/102 4/5/5
f 106/122/103 101/123/104 100/124/105 99/125/106
f 100/124/105 104/126/107 102/127/108 99/125/106
f 101/123/104 143/128/109 104/126/107 100/124/105
f 99/125/106 102/127/108 103/129/110 106/122/103
f 102/127/108 104/126/107 3/130/2 105/131/6
f 104/126/107 143/128/109 2/132/3 3/130/2
f 103/129/110 102/127/108 105/131/6 4/133/5
f 119/134/111 124/135/112 128/136/113 123/137/114
f 107/138/115 113/139/116 142/140/117 101/123/104
f 113/139/116 112/141/118 111/142/119 142/140/117
f 119/134/111 123/137/114 118/143/120 114/144/121
f 106/122/103 108/145/122 107/138/115 101/123/104
f 109/146/123 108/145/122 106/122/103 110/147/124
f 131/148/125 138/149/126 134/150/127 115/151/128
f 117/152/129 136/153/130 137/154/131 129/155/132
f 133/156/133 139/157/134 138/149/126 131/148/125
f 112/158/118 109/146/123 110/147/124 111/159/119
f 143/128/109 101/123/104 142/140/117 146/160/135
f 129/155/132 137/154/131 139/157/134 133/156/133
f 131/148/125 108/145/122 109/146/123 133/156/133
f 139/157/134 135/161/136 134/150/127 138/149/126
f 131/148/125 115/151/128 114/144/121 130/162/137
f 123/137/114 128/136/113 127/163/138 122/164/139
f 123/137/114 122/164/139 117/165/129 118/143/120
f 132/166/140 118/143/120 117/165/129 129/167/132
f 117/152/129 122/168/139 121/169/141 116/170/142
f 115/151/128 120/171/143 119/134/111 114/144/121
f 116/170/142 121/169/141 120/171/143 115/151/128
f 126/172/144 121/169/141 122/168/139 127/173/138
f 125/174/145 124/135/112 119/134/111 120/171/143
f 130/162/137 114/144/121 118/143/120 132/166/140
f 130/162/137 107/138/115 108/145/122 131/148/125
f 132/166/140 113/139/116 107/138/115 130/162/137
f 133/156/133 109/146/123 112/158/118 129/155/132
f 129/167/132 112/141/118 113/139/116 132/166/140
f 137/154/131 136/153/130 135/161/136 139/157/134
f 116/170/142 135/161/136 136/153/130 117/152/129
f 135/161/136 116/170/142 115/151/128 134/150/127
f 125/174/145 120/171/143 121/169/141 126/172/144
f 111/142/119 145/175/146 146/160/135 142/140/117
f 110/147/124 144/176/147 145/177/146 111/159/119
f 106/122/103 103/129/110 144/176/147 110/147/124
f 2/132/3 143/128/109 146/160/135 141/178/100
f 141/178/100 146/160/135 145/175/146 140/179/101
f 147/180/102 140/181/101 145/177/146 144/176/147
f 103/129/110 4/133/5 147/180/102 144/176/147
f 105/182/6 3/183/2 148/184/148 151/185/149
f 6/186/7 105/187/6 151/188/149 150/189/150
f 3/183/2 5/190/1 149/191/151 148/184/148
f 171/192/152 162/193/153 164/194/154 165/195/155
f 156/196/156 157/197/157 153/198/158 152/199/159
f 157/197/157 160/200/160 155/201/161 153/198/158
f 68/85/72 67/83/70 158/202/162 160/203/160
f 65/80/67 68/90/72 160/204/160 157/205/157
f 66/82/69 64/81/68 156/206/156 159/207/163
f 67/83/70 66/82/69 159/207/163 158/202/162
f 64/81/68 65/80/67 157/205/157 156/206/156
f 160/208/160 158/209/162 154/210/164 155/211/161
f 166/212/165 167/213/166 164/194/154 162/193/153
f 170/214/167 168/215/168 163/216/169 165/195/155
f 170/214/167 165/195/155 164/194/154 167/213/166
f 159/217/163 170/214/167 167/213/166 158/209/162
f 159/217/163 156/196/156 168/215/168 170/214/167
f 156/196/156 152/199/159 169/218/170 168/215/168
f 171/192/152 165/195/155 163/216/169 161/219/171
f 154/210/164 158/209/162 167/213/166 166/212/165
f 168/215/168 169/218/170 161/219/171 163/216/169
f 197/220/172 205/221/173 184/222/174 172/223/175
f 150/189/150 151/188/149 189/224/176 202/225/177
f 204/226/178 178/227/179 175/228/180 200/229/181
f 172/230/175 185/231/182 183/232/183 192/233/184
f 372/234/185 373/235/186 368/236/187 367/237/188
f 199/238/189 207/239/190 209/240/191 203/241/192
f 194/242/193 179/243/194 176/244/195
f 178/245/196 204/246/197 198/247/198 179/243/194
f 207/239/190 208/248/199 194/249/200
f 194/242/193 178/245/196 179/243/194
f 174/250/201 180/251/202 194/252/203 208/253/204
f 187/254/205 184/222/174 205/221/173 195/255/206
f 222/256/207 223/257/208 196/258/209 188/259/210
f 189/224/176 190/260/211 206/261/212 202/225/177
f 421/262/213 174/250/201 208/253/204 388/263/214
f 209/240/191 207/239/190 194/249/200
f 190/260/211 188/264/210 196/265/209 206/261/212
f 175/228/180 180/251/202 181/266/215 173/267/216
f 212/268/217 211/269/218 186/270/219 213/271/220
f 201/272/221 200/229/181 175/228/180 173/267/216
f 193/273/222 192/233/184 182/274/223 191/275/224
f 177/276/225 181/266/215 180/251/202 174/250/201
f 471/277/226 177/276/225 174/250/201 421/262/213
f 191/275/224 182/274/223 177/276/225 471/277/226
f 194/252/203 180/251/202 175/228/180 178/227/179
f 186/278/219 210/279/227 183/232/183 185/231/182
f 186/278/219 211/280/218 181/266/215 210/279/227
f 148/281/148 173/267/216 181/266/215 211/280/218
f 193/273/222 197/282/172 172/230/175 192/233/184
f 201/272/221 173/267/216 148/281/148 149/283/151
f 212/284/217 213/285/220 217/286/228 216/287/229
f 189/288/176 214/289/230 215/290/231 190/291/211
f 215/292/231 218/293/232 217/294/228 213/295/220
f 217/286/228 218/296/232 219/297/233 216/287/229
f 212/298/217 216/299/229 219/300/233 214/301/230
f 218/293/232 215/292/231 214/301/230 219/300/233
f 188/302/210 190/291/211 215/290/231 220/303/234
f 221/304/235 213/271/220 186/270/219 185/305/182
f 184/222/174 221/306/235 185/307/182 172/223/175
f 213/271/220 221/304/235 220/303/234 215/290/231
f 184/222/174 187/254/205 220/308/234 221/306/235
f 187/254/205 195/255/206 223/257/208 222/256/207
f 187/254/205 222/256/207 188/259/210 220/308/234
f 212/268/217 214/289/230 225/309/236 224/310/237
f 151/311/149 148/312/148 224/310/237 225/309/236
f 212/268/217 224/310/237 148/312/148 211/269/218
f 151/311/149 225/309/236 214/289/230 189/288/176
f 230/313/238 231/314/239 243/315/240 244/316/241
f 233/317/242 232/318/243 229/319/244 228/320/245
f 232/321/243 231/322/239 230/323/238 229/324/244
f 235/325/246 234/326/247 227/327/248 226/328/249
f 234/326/247 233/317/242 228/320/245 227/327/248
f 124/329/112 125/330/145 234/326/247 235/325/246
f 127/331/138 128/332/113 231/322/239 232/321/243
f 125/330/145 126/333/144 233/317/242 234/326/247
f 126/333/144 127/334/138 232/318/243 233/317/242
f 128/332/113 124/335/112 235/336/246 231/322/239
f 169/337/170 152/338/159 237/339/250 236/340/251
f 171/341/152 236/340/251 166/342/165 162/343/153
f 236/340/251 171/341/152 161/344/171 169/337/170
f 166/342/165 236/340/251 237/339/250 154/345/164
f 152/338/159 153/346/158 155/347/161 154/345/164 237/339/250
f 226/328/249 227/327/248 239/348/252 238/349/253
f 227/327/248 228/320/245 240/350/254 239/348/252
f 230/323/238 226/351/249 238/352/253 242/353/255
f 228/320/245 229/319/244 241/354/256 240/350/254
f 245/355/257 244/356/241 248/357/258 249/358/259
f 231/359/239 235/360/246 246/361/260 243/362/240
f 226/363/249 230/364/238 244/356/241 245/355/257
f 235/360/246 226/363/249 245/355/257 246/361/260
f 248/365/258 247/366/261 251/367/262 252/368/263
f 244/316/241 243/315/240 247/366/261 248/365/258
f 243/362/240 246/361/260 250/369/264 247/370/261
f 246/361/260 245/355/257 249/358/259 250/369/264
f 251/371/262 254/372/265 253/373/266 252/374/263
f 247/370/261 250/369/264 254/372/265 251/371/262
f 250/369/264 249/358/259 253/373/266 254/372/265
f 249/358/259 248/357/258 252/374/263 253/373/266
f 230/323/238 242/353/255 241/375/256 229/324/244
f 239/348/252 240/350/254 241/354/256 242/376/255
f 238/349/253 239/348/252 242/376/255
f 74/92/76 42/46/43 283/377/267 321/378/268
f 353/379/269 347/380/270 389/381/271 359/382/272
f 300/383/273 297/384/274 298/385/275
f 387/386/276 386/387/277 392/388/278 393/389/279
f 291/390/280 299/391/281 298/385/275 293/392/282
f 362/393/283 363/394/284 382/395/285 381/396/286
f 304/397/287 301/398/288 317/399/289 316/400/290
f 283/377/267 281/401/291 322/402/292 321/378/268
f 357/403/293 389/381/271 393/389/279 392/388/278
f 319/404/294 318/405/295 316/400/290 317/399/289
f 361/406/296 360/407/297 365/408/298 366/409/299
f 265/410/300 21/23/23 13/18/301 263/411/302
f 376/412/303 377/413/304 354/414/305 353/379/269
f 289/415/306 320/416/307 299/391/281 291/390/280
f 365/408/298 360/407/297 364/417/308 369/418/309
f 21/23/23 265/410/300 267/419/310 268/420/311
f 317/399/289 320/416/307 319/404/294
f 259/421/312 262/422/313 260/423/314 11/13/13
f 390/424/315 393/389/279 389/381/271 347/380/270
f 263/411/302 13/18/301 11/13/13 260/423/314
f 266/425/316 265/410/300 263/411/302 264/426/317
f 269/427/318 280/428/319 275/429/320 271/430/321
f 271/430/321 270/431/322 267/419/310 269/427/318
f 343/432/323 386/433/277 387/434/276 344/435/324
f 274/436/325 273/437/326 276/438/327 277/439/328
f 258/440/329 323/441/330 322/442/292 281/443/291
f 332/444/331 340/445/332 341/446/333 333/447/334
f 260/423/314 262/422/313 279/448/335 261/449/336
f 267/419/310 265/410/300 266/425/316 269/427/318
f 11/13/13 8/11/11 258/440/329 259/421/312
f 259/421/312 277/439/328 276/438/327 262/422/313
f 271/430/321 275/429/320 273/437/326 270/431/322
f 279/448/335 278/450/337 275/429/320 280/428/319
f 264/426/317 263/411/302 260/423/314 261/449/336
f 262/422/313 276/438/327 278/450/337 279/448/335
f 273/437/326 275/429/320 278/450/337 276/438/327
f 270/431/322 272/451/338 268/420/311 267/419/310
f 41/45/42 282/452/339 283/377/267 42/46/43
f 270/431/322 273/437/326 274/436/325 272/451/338
f 284/453/340 282/452/339 285/454/341 286/455/342
f 277/456/328 281/401/291 283/377/267 282/452/339
f 272/457/338 274/458/325 292/459/343 294/460/344
f 264/426/317 280/428/319 269/427/318 266/425/316
f 292/459/343 274/458/325 284/461/340 290/462/345
f 303/463/346 297/384/274 300/383/273 302/464/347
f 284/453/340 274/465/325 277/456/328 282/452/339
f 291/390/280 293/392/282 292/459/343 290/462/345
f 279/448/335 280/428/319 264/426/317 261/449/336
f 301/398/288 300/383/273 298/385/275 299/391/281
f 272/457/338 294/460/344 288/466/348 268/467/311
f 293/392/282 298/385/275 295/468/349
f 296/469/350 295/468/349 297/384/274 319/470/294
f 288/466/348 294/460/344 295/468/349 296/469/350
f 284/461/340 286/471/342 287/472/351 290/462/345
f 287/472/351 288/473/348 296/474/350 289/415/306
f 287/472/351 286/471/342 268/475/311 288/473/348
f 316/400/290 318/405/295 315/476/352 314/477/353
f 320/416/307 296/474/350 319/404/294
f 297/384/274 295/468/349 298/385/275
f 287/472/351 289/415/306 291/390/280 290/462/345
f 292/459/343 293/392/282 295/468/349 294/460/344
f 306/478/354 315/479/352 318/480/295 303/463/346
f 305/481/355 302/464/347 304/397/287 307/482/356
f 304/397/287 316/400/290 314/477/353 307/482/356
f 336/483/357 335/484/358 322/402/292 344/485/324
f 74/92/76 321/378/268 334/486/359 341/446/333
f 300/383/273 301/398/288 304/397/287 302/464/347
f 9/10/10 98/117/99 343/432/323 323/441/330
f 303/463/346 302/464/347 305/481/355 306/478/354
f 325/487/360 335/484/358 336/483/357 326/488/361
f 296/474/350 320/416/307 289/415/306
f 303/463/346 318/480/295 319/470/294 297/384/274
f 378/489/362 376/412/303 353/379/269 359/382/272
f 255/490/363 1/4/4 339/491/364 338/492/365
f 331/493/366 339/491/364 340/445/332 332/444/331
f 317/399/289 301/398/288 299/391/281 320/416/307
f 330/494/367 338/492/365 339/491/364 331/493/366
f 323/441/330 343/432/323 344/435/324 322/442/292
f 340/445/332 95/113/96 74/92/76 341/446/333
f 332/444/331 333/447/334 324/495/368 342/496/369
f 326/488/361 336/483/357 337/497/370 329/498/371
f 358/499/372 357/500/293 356/501/373 355/502/374
f 375/503/375 379/504/376 385/505/377 383/506/378
f 337/497/370 387/507/276 255/490/363 338/492/365
f 379/504/376 377/413/304 384/508/379 385/505/377
f 349/509/380 257/510/381 351/511/382 348/512/383
f 383/506/378 385/505/377 381/396/286 382/395/285
f 377/413/304 361/406/296 380/513/384 384/508/379
f 256/514/385 395/515/386 149/191/151 5/190/1
f 401/516/387 397/517/388 398/518/389 402/519/390
f 329/498/371 330/494/367 342/496/369 326/488/361
f 356/501/373 357/500/293 392/520/278 391/521/391
f 347/380/270 346/522/392 350/523/393 390/424/315
f 98/117/99 7/8/8 386/433/277 343/432/323
f 352/524/394 345/525/395 346/522/392 347/380/270
f 7/8/8 257/526/381 394/527/396 386/433/277
f 324/495/368 334/486/359 335/484/358 325/487/360
f 359/382/272 389/381/271 357/403/293 358/528/372
f 350/523/393 256/529/385 255/530/363 390/424/315
f 394/531/396 391/521/391 392/520/278 386/532/277
f 379/504/376 375/503/375 358/499/372 355/502/374
f 339/491/364 1/4/4 95/113/96 340/445/332
f 349/509/380 391/521/391 394/531/396 257/510/381
f 324/495/368 325/487/360 326/488/361 342/496/369
f 346/522/392 345/525/395 348/512/383 350/523/393
f 369/418/309 368/533/187 373/534/186 374/535/397
f 377/413/304 379/504/376 355/502/374 354/414/305
f 402/519/390 398/518/389 400/536/398 405/537/399
f 371/538/400 366/409/299 365/408/298 370/539/401
f 255/530/363 387/386/276 393/389/279 390/424/315
f 377/413/304 376/412/303 360/407/297 361/406/296
f 197/220/172 417/540/402 430/541/403 205/221/173
f 381/396/286 380/513/384 361/406/296 362/393/283
f 369/418/309 364/417/308 363/542/284 368/533/187
f 329/498/371 337/497/370 338/492/365 330/494/367
f 362/393/283 361/406/296 366/409/299 367/237/188
f 385/505/377 384/508/379 380/513/384 381/396/286
f 337/497/370 336/483/357 344/485/324 387/507/276
f 348/512/383 351/511/382 256/529/385 350/523/393
f 363/394/284 362/393/283 367/237/188 368/236/187
f 351/543/382 396/544/404 395/515/386 256/514/385
f 330/494/367 331/493/366 332/444/331 342/496/369
f 378/489/362 375/545/375 363/542/284 364/417/308
f 355/502/374 356/501/373 352/524/394 354/414/305
f 363/394/284 375/503/375 383/506/378 382/395/285
f 333/447/334 341/446/333 334/486/359 324/495/368
f 352/524/394 347/380/270 353/379/269 354/414/305
f 371/538/400 372/234/185 367/237/188 366/409/299
f 352/524/394 356/501/373 391/521/391 349/509/380
f 416/546/405 410/547/406 409/548/407 407/549/408
f 345/525/395 352/524/394 349/509/380 348/512/383
f 6/186/7 150/189/150 396/550/404 351/551/382
f 376/412/303 378/489/362 364/417/308 360/407/297
f 433/552/409 195/255/206 205/221/173 430/541/403
f 365/408/298 369/418/309 374/535/397 370/539/401
f 415/553/410 410/547/406 408/554/411 413/555/412
f 421/262/213 388/263/214 440/556/413 419/557/414
f 305/481/355 401/558/387 402/559/390 306/478/354
f 405/560/399 400/561/398 399/562/415 403/563/416
f 404/564/417 415/553/410 413/555/412 401/516/387
f 306/478/354 402/559/390 405/565/399 315/479/352
f 307/482/356 404/566/417 401/558/387 305/481/355
f 454/567/418 434/568/419 196/258/209 223/257/208
f 411/569/420 407/549/408 409/548/407 412/570/421
f 420/571/422 418/572/423 427/573/424 426/574/425
f 399/562/415 411/569/420 412/570/421 403/563/416
f 315/476/352 405/575/399 403/576/416 314/477/353
f 461/577/426 476/578/427 475/579/428 462/580/429
f 401/516/387 413/555/412 414/581/430 397/517/388
f 314/477/353 403/576/416 404/566/417 307/482/356
f 413/555/412 408/554/411 406/582/431 414/581/430
f 404/564/417 403/563/416 412/570/421 415/553/410
f 416/546/405 406/582/431 408/554/411 410/547/406
f 435/583/432 202/225/177 206/261/212 436/584/433
f 415/553/410 412/570/421 409/548/407 410/547/406
f 150/189/150 202/225/177 435/583/432 396/550/404
f 373/585/186 463/586/434 462/587/429 374/588/397
f 201/272/221 418/572/423 420/571/422 200/229/181
f 438/589/435 425/590/436 424/591/437
f 444/592/438 446/593/439 451/594/440 448/595/441
f 417/596/402 437/597/442 429/598/443 431/599/444
f 436/584/433 206/261/212 196/265/209 434/600/419
f 471/277/226 421/262/213 419/557/414 423/601/445
f 476/578/427 480/602/446 479/603/447 475/579/428
f 438/604/448 424/605/449 420/571/422 426/574/425
f 464/606/450 459/607/451 460/608/452 463/609/434
f 204/226/178 200/229/181 420/571/422 424/605/449
f 441/610/453 438/611/454 439/612/455
f 430/541/403 453/613/456 452/614/457 433/552/409
f 466/615/458 457/616/459 458/617/460 465/618/461
f 439/612/455 438/611/454 440/619/462
f 430/541/403 417/540/402 431/620/444 453/613/456
f 449/621/463 448/622/441 451/623/440 450/624/464
f 438/589/435 422/625/465 425/590/436
f 479/626/447 483/627/466 486/628/467 482/629/468
f 432/630/469 431/599/444 429/598/443 442/631/470
f 463/586/434 460/632/452 461/633/426 462/587/429
f 193/273/222 191/275/224 428/634/471 437/597/442
f 210/279/227 181/266/215 502/635/472 505/636/473
f 494/637/474 495/638/475 496/639/476 493/640/477
f 199/238/189 203/241/192 441/610/453 439/612/455
f 396/641/404 456/642/478 455/643/479 395/644/386
f 201/272/221 149/283/151 395/645/386 418/572/423
f 444/646/438 455/643/479 456/642/478 446/647/439
f 434/648/419 452/649/457 447/650/480 436/651/433
f 424/591/437 425/590/436 198/247/198 204/246/197
f 423/601/445 419/557/414 426/574/425 427/573/424
f 433/552/409 454/567/418 223/257/208 195/255/206
f 465/618/461 458/617/460 459/607/451 464/606/450
f 450/652/464 451/594/440 446/593/439 447/653/480
f 435/654/432 436/651/433 447/650/480 446/647/439
f 453/655/456 431/656/444 432/657/469 445/658/481
f 444/646/438 445/658/481 432/657/469 443/659/482
f 433/552/409 452/614/457 434/568/419 454/567/418
f 445/658/481 447/650/480 452/649/457 453/655/456
f 444/646/438 443/659/482 395/644/386 455/643/479
f 447/653/480 445/660/481 449/661/463 450/652/464
f 396/641/404 435/654/432 446/647/439 456/642/478
f 371/662/400 465/618/461 464/606/450 372/663/185
f 467/664/483 414/665/430 406/666/431 416/667/405
f 372/663/185 464/606/450 463/609/434 373/668/186
f 466/669/458 478/670/484 477/671/485 457/672/459
f 483/627/466 484/673/486 485/674/487 486/628/467
f 374/588/397 462/587/429 466/675/458 370/676/401
f 461/633/426 474/677/488 469/678/489 457/679/459
f 411/680/420 399/681/415 468/682/490 467/664/483
f 481/683/491 485/674/487 484/673/486 480/684/446
f 428/634/471 510/685/492 490/686/493 437/597/442
f 461/633/426 460/632/452 473/687/494 474/677/488
f 43/49/46 285/454/341 282/452/339 41/45/42
f 457/616/459 469/688/489 470/689/495 458/617/460
f 457/672/459 477/671/485 476/690/427 461/691/426
f 416/667/405 407/692/408 411/680/420 467/664/483
f 370/693/401 466/615/458 465/618/461 371/662/400
f 414/665/430 467/664/483 468/682/490 397/694/388
f 480/602/446 484/695/486 483/696/466 479/603/447
f 458/617/460 470/689/495 472/697/496 459/607/451
f 470/689/495 474/698/488 473/699/494 472/697/496
f 397/694/388 468/682/490 399/681/415 400/700/398 398/701/389
f 488/702/497 492/703/498 491/704/499 487/705/500
f 510/706/501 496/639/476 495/638/475 490/707/502
f 490/707/502 495/638/475 494/637/474 489/708/503
f 462/709/429 475/710/428 478/670/484 466/669/458
f 478/670/484 482/629/468 481/683/491 477/671/485
f 482/629/468 486/628/467 485/674/487 481/683/491
f 475/710/428 479/626/447 482/629/468 478/670/484
f 259/421/312 258/440/329 281/443/291 277/439/328
f 477/671/485 481/683/491 480/684/446 476/690/427
f 469/688/489 474/698/488 470/689/495
f 459/607/451 472/697/496 473/699/494 460/608/452
f 442/631/470 497/711/504 488/712/505 427/573/424
f 192/233/184 183/232/183 503/713/506 504/714/507
f 182/274/223 192/233/184 504/714/507 327/715/508
f 181/266/215 177/276/225 501/716/509 502/635/472
f 427/573/424 488/712/505 487/717/510 423/601/445
f 177/276/225 182/274/223 327/715/508 501/716/509
f 183/232/183 210/279/227 505/636/473 503/713/506
f 497/718/511 498/719/511 511/720/512 489/721/513
f 423/601/445 487/717/510 510/685/492 428/634/471
f 501/722/514 327/723/515 313/724/516 308/725/517
f 510/726/518 499/727/519 487/728/520
f 489/708/503 494/637/474 493/640/477 497/729/521
f 487/705/500 491/704/499 496/639/476 510/706/501
f 437/597/442 490/686/493 489/730/522 429/598/443
f 311/731/523 310/732/524 313/724/516 312/733/525
f 504/734/526 503/735/527 311/731/523 312/733/525
f 502/736/528 501/722/514 308/725/517 309/737/529
f 505/738/530 502/736/528 309/737/529 310/732/524
f 327/723/515 504/734/526 312/733/525 313/724/516
f 503/735/527 505/738/530 310/732/524 311/731/523
f 308/725/517 313/724/516 310/732/524 309/737/529
f 488/739/531 500/740/532 498/719/533 497/718/533
f 429/598/443 489/730/522 497/711/504 442/631/470
f 491/704/499 492/703/498 493/640/477 496/639/476
f 497/729/521 493/640/477 492/703/498 488/702/497
f 432/630/469 442/631/470 427/573/424 443/741/482
f 503/742/534 504/743/535 328/744/536 507/745/537
f 395/645/386 443/741/482 427/573/424 418/572/423
f 504/743/535 327/746/538 328/744/536
f 327/747/539 501/748/540 508/749/541
f 321/378/268 322/402/292 335/484/358 334/486/359
f 208/248/199 207/239/190 199/238/189 388/750/542
f 375/545/375 378/489/362 359/382/272 358/528/372
f 444/751/438 448/622/441 449/621/463 445/752/481
f 323/441/330 258/440/329 8/11/11 9/10/10
f 193/273/222 437/597/442 417/596/402 197/282/172
f 43/49/46 44/50/47 286/455/342 285/454/341
f 268/753/311 286/455/342 44/50/47 21/52/23
f 191/275/224 471/277/226 423/601/445 428/634/471
f 419/557/414 440/556/413 438/604/448 426/574/425
f 5/1/1 1/4/4 255/490/363 256/754/385
f 257/526/381 7/8/8 6/7/7 351/755/382
f 487/728/520 499/727/519 500/740/532 488/739/531
f 440/619/462 388/750/542 199/238/189 439/612/455
f 505/756/543 503/742/534 507/745/537 506/757/543
f 502/758/544 505/756/545 506/757/545 509/759/546
f 501/748/540 502/758/544 509/759/546 508/749/541
f 489/721/513 511/720/512 512/760/547 490/761/548
f 490/761/548 512/760/547 510/762/549
s 0
f 513/763/550 514/764/550 518/765/550 515/766/550
f 516/767/551 517/768/551 518/765/551 514/764/551
f 519/769/552 520/770/552 524/771/552 521/772/552
f 522/773/553 523/774/553 524/771/553 520/770/553
s 1
f 422/625/465 525/775/554 198/247/198 425/590/436
f 176/244/195 179/243/194 198/247/198 525/775/554
f 194/776/555 176/777/556 532/778/557 533/779/558
f 209/780/559 194/776/555 533/779/558 528/781/560
f 203/782/561 209/780/559 528/781/560 537/783/562
f 422/784/563 438/785/564 530/786/565 539/787/566
f 176/777/556 525/788/567 526/789/568 532/778/557
f 441/790/569 203/791/561 537/792/562 540/793/570
f 438/785/564 441/790/569 540/793/570 530/786/565
f 525/794/567 422/784/563 539/787/566 526/795/568
f 533/779/558 532/778/557 535/796/571 534/797/572
f 539/787/566 530/786/565 536/798/573 529/799/574
f 540/793/570 537/792/562 531/800/575 527/801/576
f 537/783/562 528/781/560 538/802/577 531/803/575
f 526/795/568 539/787/566 529/799/574 541/804/578
f 530/786/565 540/793/570 527/801/576 536/798/573
f 528/781/560 533/779/558 534/797/572 538/802/577
f 532/778/557 526/789/568 541/805/578 535/796/571
f 531/803/575 538/802/577 544/806/579 543/807/580
f 527/801/576 531/800/575 543/808/580 542/809/581
f 527/801/576 542/809/581 529/799/574 536/798/573
f 538/802/577 534/797/572 535/796/571 544/806/579
f 535/796/571 541/805/578 543/807/580 544/806/579
f 529/799/574 542/809/581 543/808/580 541/804/578
f 497/810/582 489/811/583 553/812/584 546/813/582
f 510/814/585 487/815/586 547/816/587
f 488/817/588 497/810/589 546/813/589 548/818/590
f 503/819/591 550/820/592 545/821/593 504/822/594
f 504/822/594 545/821/593 327/823/595
f 327/824/596 551/825/597 501/826/598
f 487/815/586 488/817/588 548/818/590 547/816/587
f 505/827/599 549/828/599 550/820/592 503/819/591
f 502/829/600 552/830/601 549/828/602 505/827/602
f 501/826/598 551/825/597 552/830/601 502/829/600
f 489/811/583 490/831/603 554/832/604 553/812/584
f 490/831/603 510/833/605 554/832/604
